<?xml version="1.0" standalone="no"?>
<!DOCTYPE svg PUBLIC "-//W3C//DTD SVG 1.1//EN" "http://www.w3.org/Graphics/SVG/1.1/DTD/svg11.dtd" >
<svg>
<metadata>
Created by FontForge 20110222 at Wed Jun 11 01:04:31 2014
 By Orthosie Webhosting
DaltonMaag Ltd Copyright (c) Dalton Maag Ltd, 1999-2007. All rights reserved. These fonts are for use by ThyssenKrupp and in conjunction with ThyssenKrupp related material only.
</metadata>
<defs>
<font id="TKTypeBoldRegular" horiz-adv-x="807" >
  <font-face 
    font-family="TKTypeBoldRegular"
    font-weight="400"
    font-stretch="normal"
    units-per-em="2048"
    panose-1="2 11 6 3 4 2 2 2 2 4"
    ascent="1638"
    descent="-410"
    x-height="1065"
    cap-height="1475"
    bbox="-246 -434 2620 1861"
    underline-thickness="162"
    underline-position="-46"
    unicode-range="U+0020-FB04"
  />
<missing-glyph horiz-adv-x="532" 
 />
    <glyph glyph-name="ff" unicode="ff" horiz-adv-x="1273" 
d="M406 862v-862h-256v862h-138v203h135v68q0 188 105 274q89 74 258 74q45 0 90.5 -3.5t73.5 -7.5v-180q-83 8 -125 8q-40 0 -67.5 -10.5t-41.5 -25.5q-20 -23 -27 -54t-7 -82v-61h369v68q0 188 105 274q89 74 258 74q45 0 90.5 -3.5t73.5 -7.5v-180q-83 8 -125 8
q-40 0 -67.5 -10.5t-41.5 -25.5q-20 -23 -27 -54t-7 -82v-61h235v-203h-235v-862h-256v862h-372z" />
    <glyph glyph-name="fi" unicode="fi" horiz-adv-x="1143" 
d="M150 0v862h-138v203h135v68q0 188 105 274q89 74 258 74q45 0 90.5 -3.5t73.5 -7.5v-180q-83 8 -125 8q-40 0 -67.5 -10.5t-41.5 -25.5q-20 -23 -27 -54t-7 -82v-61h235v-203h-235v-862h-256zM760 0v1065h256v-1065h-256zM760 1235v240h256v-240h-256z" />
    <glyph glyph-name="fl" unicode="fl" horiz-adv-x="1143" 
d="M150 0v862h-138v203h135v68q0 188 105 274q89 74 258 74q45 0 90.5 -3.5t73.5 -7.5v-180q-83 8 -125 8q-40 0 -67.5 -10.5t-41.5 -25.5q-20 -23 -27 -54t-7 -82v-61h235v-203h-235v-862h-256zM760 0v1475h256v-1475h-256z" />
    <glyph glyph-name="ffi" unicode="ffi" horiz-adv-x="1772" 
d="M406 862v-862h-256v862h-138v203h135v68q0 188 105 274q89 74 258 74q45 0 90.5 -3.5t73.5 -7.5v-180q-83 8 -125 8q-40 0 -67.5 -10.5t-41.5 -25.5q-20 -23 -27 -54t-7 -82v-61h369v68q0 188 105 274q89 74 258 74q45 0 90.5 -3.5t73.5 -7.5v-180q-83 8 -125 8
q-40 0 -67.5 -10.5t-41.5 -25.5q-20 -23 -27 -54t-7 -82v-61h235v-203h-235v-862h-256v862h-372zM1388 0v1065h256v-1065h-256zM1388 1235v240h256v-240h-256z" />
    <glyph glyph-name="ffl" unicode="ffl" horiz-adv-x="1772" 
d="M406 862v-862h-256v862h-138v203h135v68q0 188 105 274q89 74 258 74q45 0 90.5 -3.5t73.5 -7.5v-180q-83 8 -125 8q-40 0 -67.5 -10.5t-41.5 -25.5q-20 -23 -27 -54t-7 -82v-61h369v68q0 188 105 274q89 74 258 74q45 0 90.5 -3.5t73.5 -7.5v-180q-83 8 -125 8
q-40 0 -67.5 -10.5t-41.5 -25.5q-20 -23 -27 -54t-7 -82v-61h235v-203h-235v-862h-256v862h-372zM1388 0v1475h256v-1475h-256z" />
    <glyph glyph-name=".notdef" horiz-adv-x="532" 
 />
    <glyph glyph-name=".null" horiz-adv-x="0" 
 />
    <glyph glyph-name="nonmarkingreturn" horiz-adv-x="532" 
 />
    <glyph glyph-name="space" unicode=" " horiz-adv-x="532" 
 />
    <glyph glyph-name="exclam" unicode="!" horiz-adv-x="606" 
d="M156 0v301h295v-301h-295zM178 440l-22 1035h293l-23 -1035h-248z" />
    <glyph glyph-name="quotedbl" unicode="&#x22;" horiz-adv-x="895" 
d="M158 928l-47 364v183h276v-183l-47 -364h-182zM553 928l-47 364v183h276v-183l-47 -364h-182z" />
    <glyph glyph-name="numbersign" unicode="#" horiz-adv-x="1071" 
d="M104 0l86 395h-159v174h196l64 287h-160v174h197l86 395h198l-86 -395h154l86 395h199l-86 -395h161v-174h-198l-64 -287h162v-174h-199l-86 -395h-198l86 395h-154l-86 -395h-199zM426 569h154l63 287h-154z" />
    <glyph glyph-name="dollar" unicode="$" horiz-adv-x="1159" 
d="M496 -238v207q-112 11 -192.5 50t-137.5 102q-35 40 -62.5 88.5t-46.5 103.5l217 99q36 -94 88 -151.5t134 -74.5v435q-36 13 -45 18q-91 34 -167.5 76t-125.5 108q-31 42 -48.5 96.5t-17.5 129.5q0 53 11.5 111t36.5 105t59 81q45 48 116.5 81.5t180.5 42.5v127h155
v-127q115 -11 199 -54.5t129.5 -106.5t69.5 -123l-213 -111q-36 82 -80.5 125t-104.5 57v-436q6 -2 12.5 -4t12.5 -4q97 -38 151 -66t101 -67.5t73 -79.5q27 -41 42.5 -89.5t15.5 -123.5q0 -68 -20.5 -136.5t-68.5 -126.5t-126 -99.5t-193 -53.5v-209h-155zM651 186
q34 7 61 18t46 29q47 42 47 125q0 65 -32 112.5t-109 82.5l-13 6v-373zM496 881v381q-83 -17 -121 -74q-35 -50 -35 -127q0 -46 24.5 -83t60 -59t71.5 -38z" />
    <glyph glyph-name="percent" unicode="%" horiz-adv-x="1841" 
d="M555 -33l508 1508h225l-508 -1508h-225zM1212 29q-40 30 -65.5 71.5t-40 91.5t-20 107t-5.5 119q0 61 6 132t37 142.5t88 114.5q41 29 95.5 45t130.5 16q75 0 130 -16t95 -45.5t71.5 -83t45.5 -128t14 -177.5q0 -61 -5 -130t-32.5 -136t-81.5 -111q-45 -38 -104 -56
t-133 -18q-76 0 -130.5 16.5t-95.5 45.5zM1513 160q23 20 38.5 71.5t15.5 186.5q0 75 -8 132.5t-18.5 82.5t-27.5 41q-25 22 -75 22q-51 0 -76 -22q-8 -7 -20 -24.5t-22.5 -73.5t-10.5 -158q0 -76 5.5 -123.5t13.5 -75t17 -40t17 -19.5q25 -23 76 -23q50 0 75 23zM178 635
q-40 30 -65.5 71.5t-40 91.5t-20 107t-5.5 119q0 61 6 132t37 142.5t88 114.5q40 29 95 45.5t130 16.5q76 0 130.5 -16.5t95 -46t72 -83t45.5 -128t14 -177.5q0 -61 -6.5 -132.5t-33 -136t-79.5 -108.5q-45 -38 -104 -56t-134 -18t-130 16.5t-95 45.5zM479 766
q22 19 37.5 71t15.5 187q0 75 -7.5 131.5t-18 82.5t-27.5 42q-26 23 -76 23q-49 0 -75 -23q-24 -21 -39 -74t-15 -182q0 -76 5.5 -123.5t13.5 -75t17.5 -40t17.5 -19.5q12 -11 30.5 -17t44.5 -6t45 6t31 17z" />
    <glyph glyph-name="ampersand" unicode="&#x26;" horiz-adv-x="1333" 
d="M547 -33q-123 0 -212.5 34.5t-148 91.5t-86.5 131.5t-28 154.5q0 78 16 140t51 114.5t90 100t133 97.5q-58 78 -91 148.5t-33 150.5q0 77 25 139t71.5 106t112.5 67.5t147 23.5q80 0 145.5 -20.5t112.5 -60t72.5 -97t25.5 -131.5q0 -84 -36.5 -153.5t-99.5 -125
t-128 -100.5q57 -77 227 -276q34 103 45 231l232 -59q-19 -102 -47 -195t-68 -172l45 -45q23 -23 48 -37t46 -22q23 -8 50 -12.5t59 -4.5v-196q-20 -2 -40 -2h-36q-73 0 -130.5 16t-100 45t-78.5 66q-69 -64 -145.5 -97t-138 -42t-107.5 -9zM567 176q38 0 82 14t79 38.5
t63 56.5q-92 104 -299 372q-81 -54 -118.5 -106.5t-43.5 -94.5t-6 -73q0 -36 14 -73t43.5 -66.5t75.5 -48.5t110 -19zM555 950q67 46 104 89.5t46.5 73.5t9.5 50q0 56 -35 84.5t-86 28.5q-53 0 -89 -30.5t-36 -100.5q0 -51 23 -96.5t63 -98.5z" />
    <glyph glyph-name="quotesingle" unicode="'" horiz-adv-x="500" 
d="M160 928l-47 364v183h274v-183l-45 -364h-182z" />
    <glyph glyph-name="parenleft" unicode="(" horiz-adv-x="698" 
d="M483 -393q-102 127 -172.5 249.5t-114.5 241.5t-64.5 234.5t-20.5 226.5q0 171 47 342t135 325.5t190 280.5l195 -141q-76 -99 -132.5 -196.5t-93 -195t-55 -199.5t-18.5 -216q0 -113 18.5 -216.5t55 -203t93 -196t132.5 -195.5z" />
    <glyph glyph-name="parenright" unicode=")" horiz-adv-x="698" 
d="M21 -252q76 99 132.5 195.5t93 196t55 203t18.5 216.5q0 114 -18.5 216t-55 199.5t-93 195t-132.5 196.5l195 141q102 -126 190 -280.5t135 -325.5t47 -342q0 -111 -20.5 -226.5t-64.5 -234.5t-114.5 -241.5t-172.5 -249.5z" />
    <glyph glyph-name="asterisk" unicode="*" horiz-adv-x="889" 
d="M322 778l-158 113l51 72l113 116l-164 29l-84 31l65 184l84 -29l142 -73l-27 163v91h197v-91l-21 -165l146 73l84 29l59 -182l-84 -31l-158 -29l119 -114l53 -74l-159 -113l-52 74l-82 141l-73 -141z" />
    <glyph glyph-name="plus" unicode="+" horiz-adv-x="1159" 
d="M479 291v348h-348v201h348v346h201v-346h348v-201h-348v-348h-201z" />
    <glyph glyph-name="comma" unicode="," horiz-adv-x="502" 
d="M96 -313v143q39 6 64 18q29 14 43 39.5t14 73.5v39h-104v279h276v-287q0 -100 -28 -161t-80 -93q-36 -23 -82.5 -34.5t-102.5 -16.5z" />
    <glyph glyph-name="hyphen" unicode="-" horiz-adv-x="750" 
d="M72 416v227h606v-227h-606z" />
    <glyph glyph-name="period" unicode="." horiz-adv-x="502" 
d="M113 0v276h276v-276h-276z" />
    <glyph glyph-name="slash" unicode="/" horiz-adv-x="735" 
d="M10 0l490 1475h225l-489 -1475h-226z" />
    <glyph glyph-name="zero" unicode="0" horiz-adv-x="1159" 
d="M580 -33q-109 0 -186.5 26t-131.5 73q-62 53 -96 127.5t-50.5 161t-20 180.5t-3.5 186t3.5 186t20 180.5t50.5 161t96 127.5q54 47 131.5 73t186.5 26q108 0 185.5 -26t131.5 -73q84 -74 121.5 -194t43 -244.5t5.5 -216.5q0 -188 -13 -305t-54.5 -207t-102.5 -143
q-54 -47 -131.5 -73t-185.5 -26zM580 186q48 0 77.5 12.5t49.5 30.5q36 34 57.5 103.5t28 172.5t6.5 216q0 181 -12.5 277t-34 143t-45.5 71q-20 19 -49.5 31t-77.5 12t-77.5 -12t-49.5 -31q-38 -35 -59.5 -104t-27.5 -171.5t-6 -215.5q0 -166 12 -273t34 -152t47 -67
q20 -18 49.5 -30.5t77.5 -12.5z" />
    <glyph glyph-name="one" unicode="1" horiz-adv-x="1159" 
d="M293 0v211h229v938l-229 -131l-111 186l418 254h178v-1247h215v-211h-700z" />
    <glyph glyph-name="two" unicode="2" horiz-adv-x="1159" 
d="M106 0v213l45 45l71 71t88.5 90.5t97.5 103.5t98.5 110t90 109.5t73.5 102.5t49 89q33 86 33 145q0 51 -20.5 93t-64 63.5t-98.5 21.5q-62 0 -101 -21t-62 -56q-28 -42 -39 -96t-17 -105l-252 31q8 96 27 163t47 109t57 72q51 51 113 77t127.5 34t118.5 8q173 0 274 -66
t129.5 -157t28.5 -169q0 -101 -36 -195.5t-115 -198.5t-175 -208l-233 -250h559v-229h-914z" />
    <glyph glyph-name="three" unicode="3" horiz-adv-x="1159" 
d="M578 -33q-122 0 -206.5 30t-140.5 87t-88 138.5t-47 183.5l244 22q11 -62 28.5 -107.5t44 -75.5t63 -44.5t85.5 -14.5q47 0 81 12t58 33q45 42 59.5 109t14.5 147q0 63 -13 114t-44 83q-50 53 -150 53q-71 0 -174 -39l-102 131l387 388h-522v225h825v-201l-299 -307
q37 -3 63 -12q69 -16 118.5 -48.5t84.5 -78.5q48 -62 69 -144t21 -176q0 -98 -22.5 -181.5t-59.5 -139t-79 -91.5q-54 -45 -128 -70.5t-171 -25.5z" />
    <glyph glyph-name="four" unicode="4" horiz-adv-x="1159" 
d="M659 0v281h-555v198l564 979h243v-964h140v-213h-138v-281h-254zM354 494h303v526z" />
    <glyph glyph-name="five" unicode="5" horiz-adv-x="1159" 
d="M578 -33q-120 0 -207 32t-144 89t-86.5 135.5t-34.5 171.5l248 25q13 -126 64.5 -180t146.5 -54q44 0 76 13.5t53 36.5q34 36 50 102.5t16 159.5q0 62 -13 111t-42 81q-25 29 -60.5 44.5t-83.5 15.5q-59 0 -100.5 -20t-69.5 -56t-47 -72l-197 23l54 817h745v-225h-522
l-18 -308q38 23 70.5 34.5t73.5 16.5t87 5q91 0 158.5 -25.5t115.5 -73.5q60 -63 88.5 -159.5t28.5 -221.5q0 -85 -20 -171.5t-57.5 -146.5t-78.5 -97q-54 -48 -125.5 -75.5t-168.5 -27.5z" />
    <glyph glyph-name="six" unicode="6" horiz-adv-x="1159" 
d="M594 -33q-97 0 -168.5 24.5t-124.5 69.5q-61 52 -97 125.5t-55.5 159t-25.5 178.5t-6 185q0 93 5.5 188t24 182.5t54 163t96.5 129.5q53 48 128.5 75.5t178.5 27.5q119 0 201 -30.5t135 -90.5q37 -44 59 -100.5t33 -129.5l-244 -51q-22 90 -40 123q-20 31 -55 49.5
t-95 18.5q-38 0 -68 -12t-53 -33q-44 -40 -67.5 -114t-28.5 -140.5t-6 -114.5q57 54 124 81t160 27t162 -25t119 -73q62 -60 90.5 -154t28.5 -219q0 -131 -32.5 -235.5t-104.5 -173.5q-56 -53 -136.5 -82t-191.5 -29zM602 178q79 0 124.5 43.5t57 112t11.5 133.5
q0 115 -26 184t-70 87t-85 18q-60 0 -102 -24t-68.5 -63t-38.5 -88t-12 -100q0 -69 11 -125t36 -95.5t65 -61t97 -21.5z" />
    <glyph glyph-name="seven" unicode="7" horiz-adv-x="1159" 
d="M287 0l463 1208h-402v-153h-217v387h881v-213l-471 -1229h-254z" />
    <glyph glyph-name="eight" unicode="8" horiz-adv-x="1159" 
d="M580 -33q-94 0 -181 23t-154.5 75t-108 136.5t-40.5 208.5q0 88 23 160.5t71.5 123.5t108.5 80q-51 33 -82 75.5t-47.5 85t-21.5 81.5t-5 65q0 78 25 149t78 125.5t135.5 87t198.5 32.5q115 0 197.5 -32.5t135.5 -87t78 -125.5t25 -149q0 -58 -16 -116t-52.5 -108
t-87.5 -83q85 -42 132.5 -110.5t59 -134.5t11.5 -119q0 -124 -40.5 -208.5t-107.5 -136.5t-154.5 -75t-180.5 -23zM580 180q81 0 134.5 29.5t72 86t18.5 122.5q0 81 -29 135.5t-82.5 76t-113.5 21.5q-61 0 -104 -17t-70 -47.5t-39.5 -73.5t-12.5 -95q0 -66 15 -111.5
t44 -73.5t71 -40.5t96 -12.5zM580 864q71 0 113 31.5t55 80.5t14 99q2 91 -41.5 143t-140.5 52t-141 -52t-44 -143q0 -100 43.5 -155.5t141.5 -55.5z" />
    <glyph glyph-name="nine" unicode="9" horiz-adv-x="1159" 
d="M555 -33q-119 0 -202.5 30.5t-137.5 90.5q-37 42 -60 99.5t-34 129.5l250 52q21 -92 41 -123t54.5 -49.5t94.5 -18.5q38 0 68.5 12t52.5 33q41 38 65.5 106.5t30 137t6.5 113.5q-56 -54 -123 -81.5t-161 -27.5q-93 0 -162 24t-117 72q-62 59 -91.5 154.5t-29.5 226.5
q0 143 31 247.5t102 172.5q56 53 137.5 80t192.5 27q100 0 173.5 -23.5t125.5 -67.5q79 -67 121.5 -183t50.5 -242t8 -226q0 -174 -16.5 -299t-59.5 -218.5t-104 -147.5q-54 -47 -129 -74t-178 -27zM545 674q82 0 136 50.5t69.5 114.5t15.5 115q0 69 -11 126.5t-36 98
t-64.5 63t-97.5 22.5q-81 0 -124.5 -45.5t-55 -115t-12.5 -134.5q-1 -83 11 -139.5t35.5 -91t57.5 -49.5t76 -15z" />
    <glyph glyph-name="colon" unicode=":" horiz-adv-x="502" 
d="M113 0v276h276v-276h-276zM113 788v277h276v-277h-276z" />
    <glyph glyph-name="semicolon" unicode=";" horiz-adv-x="502" 
d="M96 -313v143q39 6 64 18q29 14 43 39.5t14 73.5v39h-104v279h276v-287q0 -100 -28 -161t-80 -93q-36 -23 -82.5 -34.5t-102.5 -16.5zM113 788v277h276v-277h-276z" />
    <glyph glyph-name="less" unicode="&#x3c;" horiz-adv-x="1159" 
d="M891 246l-705 401v180l705 402l82 -185l-551 -307l551 -307z" />
    <glyph glyph-name="equal" unicode="=" horiz-adv-x="1159" 
d="M131 440v201h897v-201h-897zM131 836v200h897v-200h-897z" />
    <glyph glyph-name="greater" unicode="&#x3e;" horiz-adv-x="1159" 
d="M268 246l-82 184l551 307l-551 307l82 185l705 -402v-180z" />
    <glyph glyph-name="question" unicode="?" horiz-adv-x="975" 
d="M293 0v301h293v-301h-293zM313 440v23q0 122 42.5 213.5t96 141t93.5 85.5q49 45 74 75t37 63.5t12 66.5q0 37 -10.5 65t-28.5 48q-47 45 -135 45q-63 0 -103.5 -19.5t-64.5 -50.5q-28 -37 -40 -84.5t-18 -95.5l-250 35q13 78 30.5 134t47.5 100t62 73q57 51 138.5 84
t197.5 33q229 0 346 -123q42 -44 64 -107t22 -137q0 -97 -40.5 -171.5t-111.5 -143.5q-41 -39 -78.5 -72.5t-65.5 -70.5t-44.5 -82.5t-16.5 -108.5v-19h-256z" />
    <glyph glyph-name="at" unicode="@" horiz-adv-x="1706" 
d="M895 -223q-178 0 -322.5 55t-250.5 154q-125 117 -193 281t-68 360q0 80 17 176.5t55.5 194.5t101 189.5t154.5 162.5t216 114t284 43q174 0 314 -54.5t238.5 -148t151 -218t52.5 -263.5q0 -153 -45 -276.5t-120.5 -210.5t-173.5 -134.5t-204 -47.5q-59 0 -94.5 16
t-55.5 41q-18 26 -24 55q-47 -48 -110 -80t-140 -32q-124 0 -193 69q-51 48 -72.5 119t-21.5 162q0 82 12 172q17 93 35 147q22 66 53.5 126.5t77.5 107.5q41 43 84 67.5t92.5 32.5t94.5 8q60 0 114.5 -24.5t81.5 -56t37 -56.5l25 115h190l-164 -746q-8 -35 -8 -57
q0 -14 35 -14q32 0 87 27.5t110.5 87.5t86.5 157.5t31 208.5q0 109 -37 206t-109 170t-178.5 115.5t-244.5 42.5q-189 0 -326 -80t-211 -205.5t-97 -240t-23 -197.5q0 -84 14 -155.5t39.5 -132.5t60 -111.5t76.5 -91.5q73 -71 163.5 -113.5t167.5 -56.5t134 -14
q121 0 232 34t195 94t140 126l135 -115q-86 -89 -149.5 -137.5t-140.5 -83.5q-185 -84 -412 -84zM727 328q76 0 138 73t92.5 157.5t41.5 146.5q5 20 5 28q6 37 6 70q0 84 -36.5 135t-115.5 51q-49 0 -85 -16.5t-62 -44.5q-43 -48 -62.5 -109t-36.5 -147q-18 -94 -18 -154
q0 -49 8 -92.5t37 -69.5q31 -28 88 -28z" />
    <glyph glyph-name="A" unicode="A" horiz-adv-x="1214" 
d="M10 0l447 1475h262l485 -1475h-280l-101 340h-458l-95 -340h-260zM430 575h324l-168 564z" />
    <glyph glyph-name="B" unicode="B" horiz-adv-x="1249" 
d="M162 0v1475h512q93 0 174.5 -24.5t141.5 -74t95 -125.5t35 -178q0 -94 -44 -175t-128 -132q80 -36 129.5 -98t65.5 -129.5t16 -124.5q0 -85 -28.5 -160t-86 -131.5t-145.5 -89.5t-207 -33h-530zM420 217h215q106 0 162.5 28.5t72 81.5t15.5 111q0 107 -62.5 156
t-193.5 49h-209v-426zM420 858h227q66 0 115 31t70.5 80t21.5 100q0 70 -25 112.5t-77.5 59t-114.5 16.5h-217v-399z" />
    <glyph glyph-name="C" unicode="C" horiz-adv-x="1212" 
d="M653 -33q-112 0 -195.5 31.5t-143.5 86.5t-99.5 129t-62.5 159.5t-32 178.5t-9 185q0 97 8.5 191.5t31.5 180t63.5 158.5t103.5 126.5t152 83.5t210 30q141 0 239.5 -50t151 -133t78.5 -167l-246 -94q-24 89 -57 136t-80.5 66t-101.5 19q-81 0 -133.5 -39.5t-83.5 -111
t-43.5 -172.5t-12.5 -224q0 -269 67 -405.5t204 -136.5q75 0 122.5 29.5t74 87t44.5 124.5l254 -96q-35 -133 -105.5 -218t-175.5 -120t-223 -35z" />
    <glyph glyph-name="D" unicode="D" horiz-adv-x="1296" 
d="M162 0v1475h360q146 0 243.5 -22t159 -61t105.5 -83q86 -89 121 -222t35 -307q0 -156 -20 -278t-67.5 -214t-111.5 -149q-64 -56 -125.5 -86.5t-133 -41.5t-146.5 -11h-420zM424 233h80q79 0 133.5 10.5t85 28.5t55.5 41q46 42 75.5 111.5t40.5 162t11 193.5
q0 107 -13.5 182t-38 118.5t-50.5 70.5q-37 36 -77.5 55t-100 27t-121.5 8h-80v-1008z" />
    <glyph glyph-name="E" unicode="E" horiz-adv-x="1090" 
d="M162 0v1475h839v-242h-577v-354h549v-242h-549v-395h594v-242h-856z" />
    <glyph glyph-name="F" unicode="F" horiz-adv-x="1030" 
d="M162 0v1475h811v-242h-549v-336h520v-242h-518v-655h-264z" />
    <glyph glyph-name="G" unicode="G" horiz-adv-x="1264" 
d="M616 -33q-185 0 -297 94.5t-161 270.5q-25 85 -36 186t-11 219q0 107 10.5 214.5t44.5 203.5q40 120 114.5 202t180 116t219.5 34q192 0 307.5 -85.5t169.5 -266.5l-256 -84q-6 39 -24.5 80t-42.5 68q-35 35 -76 49t-90 14q-62 0 -100.5 -16t-67.5 -45
q-44 -43 -70.5 -126.5t-32.5 -176t-6 -177.5q0 -180 22 -302.5t85 -184.5q31 -29 72.5 -46.5t97.5 -17.5q81 0 134.5 30t76 89.5t22.5 130.5v86h-252v228h508v-756h-215l-14 115q-47 -51 -95.5 -83t-102.5 -47.5t-114 -15.5z" />
    <glyph glyph-name="H" unicode="H" horiz-adv-x="1341" 
d="M162 0v1475h262v-555h494v555h262v-1475h-262v676h-494v-676h-262z" />
    <glyph glyph-name="I" unicode="I" horiz-adv-x="586" 
d="M162 0v1475h262v-1475h-262z" />
    <glyph glyph-name="J" unicode="J" horiz-adv-x="1081" 
d="M494 -33q-119 0 -205.5 31t-145.5 90q-40 40 -70 92t-42 117l243 90q16 -79 51.5 -125.5t76.5 -57.5t77 -11q45 0 77.5 10t55.5 30q37 32 50.5 93t13.5 159v990h262v-926q0 -146 -8 -227.5t-36.5 -143.5t-70.5 -102q-59 -56 -143 -82.5t-186 -26.5z" />
    <glyph glyph-name="K" unicode="K" horiz-adv-x="1260" 
d="M162 0v1475h262v-621l496 621h301l-480 -582l508 -893h-309l-371 682l-145 -176v-506h-262z" />
    <glyph glyph-name="L" unicode="L" horiz-adv-x="1026" 
d="M162 0v1475h262v-1233h575v-242h-837z" />
    <glyph glyph-name="M" unicode="M" horiz-adv-x="1546" 
d="M162 0v1475h289l323 -773l332 773h278v-1475h-254v995l-251 -612h-217l-244 606v-989h-256z" />
    <glyph glyph-name="N" unicode="N" horiz-adv-x="1327" 
d="M162 0v1475h274l475 -988v988h254v-1475h-262l-487 1006v-1006h-254z" />
    <glyph glyph-name="O" unicode="O" horiz-adv-x="1356" 
d="M678 -33q-112 0 -197 26t-147 73t-103.5 112.5t-66.5 143.5q-31 92 -42 197.5t-11 217.5q0 113 11 218t42 198q25 78 66.5 143.5t103.5 112t147 72.5t197 26q160 0 271 -55t163.5 -138t79.5 -161q31 -93 42 -198t11 -218q0 -112 -11 -217.5t-42 -197.5
q-26 -78 -67 -143.5t-103 -112.5t-147 -73t-197 -26zM678 188q68 0 115.5 20t78 60t50.5 90q23 60 33 148.5t10 230.5q0 137 -10 225.5t-33 149.5q-28 71 -68.5 110t-87 49.5t-88.5 10.5q-69 0 -120 -21t-80 -60.5t-46 -88.5q-28 -70 -35.5 -157.5t-7.5 -217.5
q0 -99 4.5 -179.5t15 -124t23.5 -75.5q25 -70 66.5 -110t88.5 -50t91 -10z" />
    <glyph glyph-name="P" unicode="P" horiz-adv-x="1159" 
d="M162 0v1475h461q174 0 282.5 -75.5t143 -180t34.5 -199.5q0 -101 -28 -184.5t-88.5 -144.5t-155.5 -94.5t-229 -33.5h-158v-563h-262zM428 780h152q111 0 168 57t57 185q0 90 -29.5 144.5t-90 72.5t-132.5 18h-125v-477z" />
    <glyph glyph-name="Q" unicode="Q" horiz-adv-x="1356" 
d="M1145 -117l-170 152q-57 -32 -130 -50t-167 -18q-112 0 -197 26t-147 73t-103.5 112.5t-66.5 143.5q-31 92 -42 197.5t-11 217.5q0 113 11 218t42 198q25 78 66.5 143.5t103.5 112t147 72.5t197 26q160 0 271 -55t163.5 -138t79.5 -161q31 -93 42 -198t11 -218
q0 -100 -9 -194t-32 -181q-14 -49 -33 -95.5t-45 -86.5l158 -141zM678 188q61 0 104 17l-129 114l140 156l129 -117v2q23 60 33 148t10 229q0 137 -10 225.5t-33 149.5q-28 71 -68.5 110t-87 49.5t-88.5 10.5q-69 0 -120 -21t-80 -60.5t-46 -88.5q-28 -70 -35.5 -157.5
t-7.5 -217.5q0 -99 4.5 -179.5t15 -124t23.5 -75.5q25 -70 66.5 -110t88.5 -50t91 -10z" />
    <glyph glyph-name="R" unicode="R" horiz-adv-x="1219" 
d="M162 0v1475h475q120 0 208.5 -34t146.5 -94.5t86 -142.5t28 -178q0 -49 -9 -104t-34 -108.5t-68 -100.5t-110 -80l301 -633h-299l-262 575h-201v-575h-262zM422 793h176q56 0 99 13t72.5 41t44.5 72.5t15 108.5q0 92 -31 142.5t-92.5 68.5t-134.5 18h-149v-464z" />
    <glyph glyph-name="S" unicode="S" horiz-adv-x="1188" 
d="M592 -33q-109 0 -193.5 25t-148 71.5t-107.5 112t-71 146.5l223 100q22 -59 50 -104t64.5 -75t83.5 -45.5t107 -15.5q63 0 110.5 15t77.5 43q23 21 36.5 52t13.5 75q0 66 -33.5 114.5t-112.5 83.5q-66 29 -131 53.5t-127 49.5q-41 18 -80 36.5t-73.5 41t-63.5 49.5
t-51 61q-28 42 -42.5 95t-14.5 122q0 66 13.5 125.5t51 121.5t106 107t151 62.5t173.5 17.5q144 0 246 -44t155 -113.5t80 -137.5l-217 -112q-35 80 -79.5 125t-96.5 58t-102 13q-62 0 -110 -18t-77 -55q-20 -26 -30.5 -60t-10.5 -78q0 -55 31 -93.5t82 -67.5t116.5 -52.5
t133.5 -48.5q82 -33 140.5 -62t103.5 -68.5t69 -78.5q22 -33 35.5 -69.5t19 -72t5.5 -77.5q0 -68 -20.5 -136t-67 -128t-118 -98t-146 -52t-154.5 -14z" />
    <glyph glyph-name="T" unicode="T" horiz-adv-x="1073" 
d="M406 0v1231h-383v244h1028v-244h-383v-1231h-262z" />
    <glyph glyph-name="U" unicode="U" horiz-adv-x="1303" 
d="M649 -33q-117 0 -211 26.5t-159.5 85.5t-100.5 155t-35 235v1006h263v-994q0 -77 14.5 -129.5t44 -85t75.5 -47t109 -14.5q97 0 152.5 33.5t74.5 99.5t19 143v994h264v-1006q0 -139 -35.5 -235t-101.5 -155t-160.5 -85.5t-212.5 -26.5z" />
    <glyph glyph-name="V" unicode="V" horiz-adv-x="1130" 
d="M432 0l-422 1475h279l276 -1082l289 1082h266l-424 -1475h-264z" />
    <glyph glyph-name="W" unicode="W" horiz-adv-x="1624" 
d="M338 0l-328 1475h279l186 -1033l217 1033h256l203 -1033l199 1033h264l-330 -1475h-268l-205 975l-205 -975h-268z" />
    <glyph glyph-name="X" unicode="X" horiz-adv-x="1133" 
d="M10 0l418 766l-377 709h289l233 -455l242 455h268l-376 -691l415 -784h-286l-275 528l-282 -528h-269z" />
    <glyph glyph-name="Y" unicode="Y" horiz-adv-x="1141" 
d="M428 0v598l-418 877h281l280 -623l291 623h268l-440 -877v-598h-262z" />
    <glyph glyph-name="Z" unicode="Z" horiz-adv-x="997" 
d="M31 0v225l610 1008h-586v242h887v-224l-612 -1009h637v-242h-936z" />
    <glyph glyph-name="bracketleft" unicode="[" horiz-adv-x="686" 
d="M143 -393v1868h502v-211h-256v-1446h256v-211h-502z" />
    <glyph glyph-name="backslash" unicode="\" horiz-adv-x="743" 
d="M500 0l-490 1475h234l489 -1475h-233z" />
    <glyph glyph-name="bracketright" unicode="]" horiz-adv-x="686" 
d="M41 -393v211h256v1446h-256v211h502v-1868h-502z" />
    <glyph glyph-name="asciicircum" unicode="^" horiz-adv-x="1094" 
d="M201 801l-164 114l516 623l504 -629l-172 -104l-334 416z" />
    <glyph glyph-name="underscore" unicode="_" horiz-adv-x="1044" 
d="M-2 -289v162h1049v-162h-1049z" />
    <glyph glyph-name="grave" unicode="`" horiz-adv-x="702" 
d="M389 1200l-227 260h268l111 -260h-152z" />
    <glyph glyph-name="a" unicode="a" horiz-adv-x="1069" 
d="M426 -31q-91 0 -161 32.5t-115 94.5q-70 91 -70 232q0 63 15.5 112.5t43.5 87.5q53 70 141.5 102t196.5 32h215v71q0 82 -45 116t-119 34q-61 0 -99.5 -15t-57.5 -39t-31 -49l-225 72q41 120 144.5 183t279.5 63q103 0 188 -28.5t137 -90.5q46 -54 63 -112t17 -134v-733
h-237l-7 92q-31 -38 -75.5 -66t-97.5 -42.5t-101 -14.5zM506 193q54 0 102 27t67 61.5t19 66.5v123h-170q-78 0 -120.5 -20.5t-54 -53t-11.5 -63.5q0 -66 37 -103q20 -18 50.5 -28t80.5 -10z" />
    <glyph glyph-name="b" unicode="b" horiz-adv-x="1116" 
d="M653 -33q-54 0 -97.5 15t-78 37.5t-61 48t-45.5 47.5l-6 -115h-238v1475h258v-506q32 42 76 72.5t95 43.5t99 13q118 0 194 -43.5t118 -128.5q37 -75 48 -172t11 -222q0 -109 -9.5 -191t-31.5 -142q-23 -68 -70.5 -123t-115 -82t-146.5 -27zM578 188q74 0 117.5 43
t56.5 121q3 20 7.5 72t4.5 108q0 57 -3 111t-11 86q-11 48 -35.5 81.5t-60 48.5t-74.5 15q-61 0 -109.5 -30.5t-68 -80t-19.5 -104.5v-253q0 -75 31 -128t76 -71.5t88 -18.5z" />
    <glyph glyph-name="c" unicode="c" horiz-adv-x="969" 
d="M543 -33q-90 0 -158 19.5t-117.5 54.5t-82 83t-52.5 105q-25 68 -34 145.5t-9 157.5q0 81 9 157t34 145q21 57 54.5 105.5t83.5 84t118.5 55t159.5 19.5q162 0 263 -78t130 -223l-233 -74q-22 88 -64.5 124t-107.5 36t-102.5 -33.5t-57.5 -89.5q-16 -47 -21.5 -105
t-5.5 -123t4 -112t12 -82t20.5 -59.5t29.5 -42.5q18 -22 48.5 -36t67.5 -14q54 0 89.5 17t57.5 54.5t36 86.5l233 -78q-40 -145 -142 -222t-263 -77z" />
    <glyph glyph-name="d" unicode="d" horiz-adv-x="1116" 
d="M463 -33q-79 0 -136 23t-96.5 57.5t-63.5 75t-36 76.5q-22 60 -31.5 142t-9.5 191q0 124 11 222t49 172q42 85 117.5 128.5t193.5 43.5q70 0 127.5 -23t92 -55t54.5 -59v514h254v-1475h-237l-7 117q-32 -44 -74.5 -79t-98 -53t-109.5 -18zM539 188q62 0 109 31.5t66 83.5
t19 103v253q0 78 -34.5 129.5t-79.5 68.5t-82 17q-57 0 -95.5 -25t-53.5 -58t-21 -62q-8 -32 -11.5 -86t-3.5 -111q0 -56 4.5 -110t8.5 -70q12 -78 55.5 -121t118.5 -43z" />
    <glyph glyph-name="e" unicode="e" horiz-adv-x="1044" 
d="M545 -33q-155 0 -255.5 54t-150.5 176q-49 117 -49 313q0 170 30.5 288.5t102.5 190.5q54 54 134.5 81.5t195.5 27.5q105 0 176.5 -28t118.5 -73q51 -51 77 -117.5t33 -146t7 -149.5v-131h-619v-35q0 -66 15.5 -110t43.5 -71t67 -38t87 -11q62 0 102 22t60.5 50.5
t28.5 46.5l206 -100q-35 -80 -91 -134t-138.5 -80t-181.5 -26zM348 635h365q0 104 -26.5 163t-69 76t-82.5 17q-41 0 -74.5 -12t-57.5 -41.5t-38.5 -78.5t-16.5 -124z" />
    <glyph glyph-name="f" unicode="f" horiz-adv-x="645" 
d="M150 0v862h-138v203h135v68q0 188 105 274q89 74 258 74q45 0 90.5 -3.5t73.5 -7.5v-180q-83 8 -125 8q-40 0 -67.5 -10.5t-41.5 -25.5q-20 -23 -27 -54t-7 -82v-61h235v-203h-235v-862h-256z" />
    <glyph glyph-name="g" unicode="g" horiz-adv-x="1116" 
d="M553 -434q-173 0 -282.5 55t-151.5 152l227 86q25 -32 54.5 -52.5t66.5 -29t80 -8.5q113 0 158 57q20 26 24 64t4 87v146q-36 -40 -75.5 -68t-90 -41.5t-104.5 -13.5q-79 0 -136 20.5t-96.5 52.5t-63.5 70.5t-36 73.5q-22 60 -31.5 142.5t-9.5 191.5q0 92 6 167t20 122.5
t34 85.5q42 85 117.5 128.5t193.5 43.5q72 0 129.5 -23.5t96 -60t58.5 -66.5l7 117h237v-1112q0 -69 -8.5 -121t-29.5 -92t-48 -68q-54 -55 -144 -80.5t-206 -25.5zM539 221q62 0 108.5 31.5t66 83t19.5 102.5v221q0 78 -34.5 129.5t-79.5 68.5t-82 17q-57 0 -95.5 -25
t-53.5 -58t-21 -62q-15 -60 -15 -178q0 -54 4.5 -107t12.5 -90q14 -66 54.5 -99.5t115.5 -33.5z" />
    <glyph glyph-name="h" unicode="h" horiz-adv-x="1124" 
d="M127 0v1475h256v-523q36 45 80.5 79.5t102 50.5t118.5 16q92 0 166.5 -38t111.5 -116t37 -178v-766h-256v721q0 65 -39.5 104t-113.5 39q-66 0 -116 -39.5t-70.5 -94t-20.5 -101.5v-629h-256z" />
    <glyph glyph-name="i" unicode="i" horiz-adv-x="510" 
d="M127 0v1065h256v-1065h-256zM127 1235v240h256v-240h-256z" />
    <glyph glyph-name="j" unicode="j" horiz-adv-x="518" 
d="M43 -393q-52 0 -106 4v213h26q86 0 122.5 21t43 60.5t6.5 84.5v1075h256v-1098q0 -88 -16.5 -155t-65.5 -113q-46 -43 -112 -67.5t-154 -24.5zM135 1233v242h256v-242h-256z" />
    <glyph glyph-name="k" unicode="k" horiz-adv-x="1065" 
d="M127 0v1475h256v-754l336 344h309l-334 -334l361 -731h-287l-258 547l-127 -127v-420h-256z" />
    <glyph glyph-name="l" unicode="l" horiz-adv-x="510" 
d="M127 0v1475h256v-1475h-256z" />
    <glyph glyph-name="m" unicode="m" horiz-adv-x="1651" 
d="M127 0v1065h238l6 -119q36 50 77.5 84t96.5 51t117 17q37 0 74.5 -7t72 -24t63 -46t48.5 -73q40 50 84 83t103.5 50t125.5 17q91 0 160 -38.5t101 -116t32 -177.5v-766h-256v721q0 52 -16 83.5t-47 45.5t-68 14q-65 0 -110 -40.5t-60 -94t-15 -100.5v-629h-256v721
q0 52 -16 83.5t-47 45.5t-68 14q-64 0 -109 -40.5t-60 -94t-15 -100.5v-629h-256z" />
    <glyph glyph-name="n" unicode="n" horiz-adv-x="1104" 
d="M127 0v1065h238l6 -119q42 52 84 85t99.5 50t119.5 17q52 0 106 -14.5t98.5 -52t72.5 -101.5t28 -164v-766h-256v721q0 65 -34.5 104t-108.5 39q-44 0 -80 -19t-62 -51.5t-40.5 -75t-14.5 -89.5v-629h-256z" />
    <glyph glyph-name="o" unicode="o" horiz-adv-x="1090" 
d="M547 -33q-88 0 -155.5 19t-118 53t-85 82t-55.5 106q-23 66 -33 143t-10 162t10 161.5t33 142.5q32 91 95.5 153t146.5 85.5t172 23.5q126 0 213 -40t131 -102t65 -120q23 -66 33 -143t10 -161q0 -85 -10 -162t-33 -143q-33 -91 -95.5 -152t-144.5 -84.5t-169 -23.5z
M547 186q75 0 117 39t58.5 122.5t16.5 184.5q0 78 -7 134t-21 96q-23 66 -64 91.5t-100 25.5q-60 0 -102.5 -25t-65.5 -90q-14 -40 -21.5 -97t-7.5 -135q0 -77 7.5 -133t21.5 -96q23 -65 65.5 -91t102.5 -26z" />
    <glyph glyph-name="p" unicode="p" horiz-adv-x="1116" 
d="M127 -393v1458h238l6 -117q32 49 78.5 84.5t100 50.5t105.5 15q118 0 194 -43.5t118 -128.5q37 -75 48 -172t11 -222q0 -109 -9.5 -191t-31.5 -142q-23 -68 -70.5 -123t-115 -82t-146.5 -27q-77 0 -133.5 22.5t-87 50.5t-49.5 50v-483h-256zM578 188q74 0 117.5 43
t56.5 121q3 20 7.5 72t4.5 108q0 57 -3 111t-11 86q-11 48 -35.5 81.5t-60 48.5t-74.5 15q-61 0 -109.5 -30.5t-68 -80t-19.5 -104.5v-253q0 -75 31 -128t76 -71.5t88 -18.5z" />
    <glyph glyph-name="q" unicode="q" horiz-adv-x="1116" 
d="M733 -393v483q-36 -40 -75.5 -67.5t-90 -41.5t-104.5 -14q-79 0 -136 23t-96.5 57.5t-63.5 75t-36 76.5q-22 60 -31.5 142t-9.5 191q0 124 11 222t49 172q42 85 117.5 128.5t193.5 43.5q72 0 129.5 -23.5t96 -60t58.5 -66.5l7 117h237v-1458h-256zM539 188q62 0 109 31.5
t66 83.5t19 103v253q0 78 -34.5 129.5t-79.5 68.5t-82 17q-57 0 -95.5 -25t-53.5 -58t-21 -62q-8 -32 -11.5 -86t-3.5 -111q0 -56 4.5 -110t8.5 -70q12 -78 55.5 -121t118.5 -43z" />
    <glyph glyph-name="r" unicode="r" horiz-adv-x="717" 
d="M127 0v1065h238l6 -217q18 38 43.5 77t62 70.5t85 51.5t112.5 20h33v-258q-57 6 -76 6q-72 0 -119.5 -27t-76 -71.5t-40.5 -101.5t-12 -117v-498h-256z" />
    <glyph glyph-name="s" unicode="s" horiz-adv-x="995" 
d="M518 -33q-74 0 -130.5 11t-91 26.5t-60.5 30.5q-53 31 -92.5 78t-59.5 100l215 92q27 -45 61 -73t70 -39t76 -11q61 0 99 14.5t53.5 39t15.5 53.5q0 35 -16.5 56.5t-48 37.5t-79 29.5t-108.5 33.5q-71 25 -111 46q-42 20 -71 42.5t-47 45.5q-22 26 -36.5 65t-18 68
t-3.5 47q0 38 8.5 82.5t30.5 85.5q28 53 81 92.5t127.5 58.5t152.5 19q148 0 249.5 -54t143.5 -165l-207 -95q-9 22 -23.5 42t-36.5 35.5t-52 24.5t-70 9q-85 0 -125 -33q-37 -27 -37 -82q0 -37 35 -66t95 -48.5t118 -34.5q81 -23 134.5 -51t81.5 -56t40 -47
q18 -31 30.5 -75t12.5 -103q0 -77 -21 -123.5t-51 -85.5q-30 -37 -85 -66t-120.5 -43t-128.5 -14z" />
    <glyph glyph-name="t" unicode="t" horiz-adv-x="662" 
d="M504 -16q-102 0 -169 26.5t-106.5 75.5t-55 119.5t-15.5 159.5v497h-138v203h136v258h258v-258h217v-203h-217v-495q0 -90 31 -130t108 -40q44 0 88 4v-209q-11 -2 -27 -3t-34.5 -2.5t-38 -2t-37.5 -0.5z" />
    <glyph glyph-name="u" unicode="u" horiz-adv-x="1112" 
d="M438 -31q-52 0 -107.5 14.5t-101 52t-75 101.5t-29.5 164v764h256v-719q0 -65 38.5 -104t112.5 -39q62 0 110 38.5t67.5 94t19.5 102.5v627h256v-1065h-237l-7 119q-39 -49 -80 -81.5t-101.5 -50.5t-121.5 -18z" />
    <glyph glyph-name="v" unicode="v" horiz-adv-x="1026" 
d="M389 0l-379 1065h264l246 -721l246 721h250l-379 -1065h-248z" />
    <glyph glyph-name="w" unicode="w" horiz-adv-x="1475" 
d="M317 0l-307 1065h264l175 -721l174 721h243l174 -721l174 721h250l-307 -1065h-248l-172 647l-172 -647h-248z" />
    <glyph glyph-name="x" unicode="x" horiz-adv-x="995" 
d="M20 0l340 539l-325 526h282l187 -326l188 326h273l-326 -520l336 -545h-283l-196 344l-201 -344h-275z" />
    <glyph glyph-name="y" unicode="y" horiz-adv-x="1024" 
d="M215 -393q-66 0 -98 8v225q27 -6 59 -6q44 0 73.5 14.5t54 47.5t40.5 75l33 84l-367 1010h266l234 -657l250 657h254l-445 -1149q-52 -133 -111.5 -202.5t-122.5 -88t-120 -18.5z" />
    <glyph glyph-name="z" unicode="z" horiz-adv-x="860" 
d="M31 0v180l473 682h-447v203h758v-180l-473 -682h487v-203h-798z" />
    <glyph glyph-name="braceleft" unicode="{" horiz-adv-x="707" 
d="M666 -396q-111 0 -168.5 8t-91.5 23q-60 24 -92.5 62t-49 87t-21.5 108.5t-5 125.5v161q0 121 -15 162q-16 45 -49 61t-133 27v221q74 6 110.5 17t49 28.5t22.5 42.5q10 29 11.5 69.5t1.5 92.5v161q0 141 24.5 224t72.5 119t103 50q45 12 101.5 16.5t128.5 4.5v-211
q-64 0 -100 -5.5t-54 -23.5t-22.5 -55t-4.5 -103v-177q0 -113 -14 -181q-12 -53 -38.5 -99t-78.5 -81q52 -35 77.5 -81t37.5 -99q14 -68 14 -180v-178q0 -65 4.5 -102t22.5 -55.5t55 -22.5t101 -6v-211z" />
    <glyph glyph-name="bar" unicode="|" horiz-adv-x="549" 
d="M164 -176v1651h221v-1651h-221z" />
    <glyph glyph-name="braceright" unicode="}" horiz-adv-x="707" 
d="M41 -396v211q102 2 136 15t40 59.5t6 111.5v178q0 114 15 180q12 53 37.5 99t76.5 81q-51 35 -77.5 81t-38.5 99q-15 66 -15 181v177q0 107 -14 139.5t-58.5 40t-107.5 7.5v211q72 0 128 -4.5t101 -16.5q86 -24 129 -75.5t57.5 -137.5t14.5 -180v-161q0 -125 12 -162
q11 -35 32.5 -52.5t62 -24.5t88.5 -11v-221q-82 -9 -115 -19t-46 -28.5t-22 -40.5q-14 -43 -14 -162v-161q0 -66 -4 -125.5t-21.5 -108.5t-51.5 -87t-91 -62q-37 -17 -94 -24t-166 -7z" />
    <glyph glyph-name="asciitilde" unicode="~" horiz-adv-x="1124" 
d="M186 512l-155 119q20 40 43.5 77.5t52.5 69.5q43 51 100 83t131 32q51 0 107.5 -19.5t112.5 -44.5q158 -71 186 -71q29 0 56 19.5t48 45.5t70 103l156 -121q-31 -60 -57.5 -97.5t-55.5 -66.5q-43 -42 -97 -69t-120 -27q-53 0 -109 19t-110 44q-161 72 -187 72
q-20 0 -40.5 -10t-43.5 -33q-25 -33 -88 -125z" />
    <glyph glyph-name="uni00A0" unicode="&#xa0;" horiz-adv-x="528" 
 />
    <glyph glyph-name="exclamdown" unicode="&#xa1;" horiz-adv-x="606" 
d="M158 -410l22 1035h248l23 -1035h-293zM156 764v301h295v-301h-295z" />
    <glyph glyph-name="cent" unicode="&#xa2;" horiz-adv-x="1159" 
d="M539 -276v247q-90 11 -155 38.5t-110 72.5q-75 74 -102 189t-27 261q0 138 26.5 251.5t98.5 191.5q47 48 112.5 78t156.5 41v186h153v-186q100 -14 172.5 -58.5t109.5 -107.5t50 -125l-223 -70q-16 57 -40 94t-69 50v-684q44 15 70 48t43 93l217 -74q-35 -124 -119 -196
t-211 -91v-249h-153zM539 184v697q-45 -11 -73.5 -42.5t-43.5 -80.5q-14 -45 -19.5 -101t-5.5 -125q0 -75 5 -130t18 -95q15 -54 44.5 -81.5t74.5 -41.5z" />
    <glyph glyph-name="sterling" unicode="&#xa3;" horiz-adv-x="1159" 
d="M106 0v186q145 120 202 180.5t72 96.5t15 86q0 27 -8 47h-262v186h137q-24 32 -47.5 67t-42 73t-30 80t-11.5 88q0 89 29 156.5t82 115.5q63 57 154.5 85t199.5 28q131 0 227 -36t156 -110q37 -45 63.5 -103t38.5 -130l-254 -52q-11 48 -27.5 86t-41.5 66q-29 32 -71 50
t-105 18q-50 0 -86 -14t-62 -40q-21 -21 -33 -49.5t-12 -60.5q0 -44 15.5 -82.5t39.5 -75.5q1 -3 44.5 -59t51.5 -65.5t27 -35.5h99h266v-186h-283v-18q0 -88 -22 -152t-63 -115t-91 -98h586v-213h-953z" />
    <glyph glyph-name="currency" unicode="&#xa4;" horiz-adv-x="1159" 
d="M238 274l-123 125l114 117q-63 98 -63 221q0 62 17 119t48 107l-116 118l125 125l116 -119q48 31 104 48.5t118 17.5q57 0 112 -17t111 -49l119 119l122 -125l-116 -118q31 -48 48 -105.5t17 -120.5q0 -120 -63 -221l116 -117l-124 -125l-115 117q-100 -65 -227 -65
q-62 0 -119 17t-107 48zM578 496q71 0 132.5 39t86 95.5t24.5 106.5q0 74 -40 133.5t-96 84t-107 24.5q-50 0 -94 -19t-77 -52t-52 -77t-19 -94t19 -94t52 -76.5t77 -51.5t94 -19z" />
    <glyph glyph-name="yen" unicode="&#xa5;" horiz-adv-x="1159" 
d="M438 0v246h-317v180h317v166h-317v180h233l-344 670h279l286 -608l297 608h277l-361 -670h248v-180h-336v-166h336v-180h-336v-246h-262z" />
    <glyph glyph-name="brokenbar" unicode="&#xa6;" horiz-adv-x="549" 
d="M164 -174v549h221v-549h-221zM164 926v549h221v-549h-221z" />
    <glyph glyph-name="section" unicode="&#xa7;" horiz-adv-x="1012" 
d="M516 -319q-161 0 -268 71t-166 225l194 82q22 -61 48.5 -98.5t56.5 -58.5t63.5 -28t69.5 -7q63 0 99.5 20.5t48.5 52t12 60.5t-17 56.5t-44.5 52t-62.5 47.5t-71 43t-70 38t-59 33q-46 28 -89 61t-76.5 73t-53.5 88t-20 106q0 63 27 123t73.5 97t99.5 54q-55 39 -98.5 90
t-60.5 101t-17 100q0 93 50 169.5t136.5 109.5t188.5 33q161 0 258 -71t141 -224l-196 -66q-14 50 -29 80t-37 51q-26 26 -61 37.5t-70 11.5q-64 0 -102.5 -22t-49 -52t-10.5 -55q0 -37 24.5 -67.5t64.5 -58t91 -54.5t105 -57q105 -61 166.5 -113.5t93 -119.5t31.5 -136
q0 -58 -27.5 -115.5t-73 -95.5t-96.5 -59q80 -54 126 -125t46 -174q0 -63 -22 -115t-64 -90q-52 -51 -129.5 -77.5t-173.5 -26.5zM524 410q54 1 99 22t64.5 55.5t19.5 69.5q0 55 -41 95.5t-142 99.5q-64 -2 -108.5 -23t-63 -54t-18.5 -71q0 -43 27 -77.5t70.5 -62
t92.5 -54.5z" />
    <glyph glyph-name="dieresis" unicode="&#xa8;" horiz-adv-x="702" 
d="M74 1212v203h225v-203h-225zM403 1212v203h226v-203h-226z" />
    <glyph glyph-name="copyright" unicode="&#xa9;" horiz-adv-x="1663" 
d="M831 -33q-106 0 -204.5 27.5t-184 77.5t-156 120t-120.5 156t-77.5 184.5t-27.5 204.5q0 142 48 269t133 228t194 164.5t208 86t187 22.5q106 0 205 -27.5t184.5 -77.5t156 -120t120.5 -156t77.5 -184.5t27.5 -204.5q0 -139 -48 -267.5t-132 -228.5t-194 -164.5
t-209.5 -87t-187.5 -22.5zM831 139q123 0 232 47.5t190.5 129t129 190t47.5 231.5q0 82 -21.5 158t-61 142.5t-94 121.5t-121 94t-143 60.5t-158.5 21.5q-125 0 -242 -52t-200.5 -145.5t-119.5 -196.5t-36 -204q0 -123 47.5 -231.5t129 -190t190 -129t231.5 -47.5zM827 289
q-69 0 -122.5 15.5t-93.5 43t-67.5 65.5t-45.5 83q-22 51 -30.5 109t-8.5 118q0 63 9.5 121.5t31.5 109.5q30 72 83 119t120 65.5t137 18.5q116 0 196.5 -53t124.5 -174l-170 -58q-25 57 -52 86t-52.5 36t-46.5 7q-59 0 -96 -16.5t-56 -54.5q-39 -87 -39 -207
q0 -50 6 -102.5t29 -94.5q20 -34 56 -55.5t96 -21.5q36 0 67 14t55.5 48t42.5 79l166 -55q-44 -131 -127.5 -188.5t-212.5 -57.5z" />
    <glyph glyph-name="ordfeminine" unicode="&#xaa;" horiz-adv-x="758" 
d="M322 760q-63 0 -115 19t-86 55q-26 27 -40.5 64t-14.5 83q0 90 51 143q30 30 64.5 46t88 23t105.5 7h121v25q0 112 -107 112q-44 0 -72 -10.5t-42.5 -30t-26.5 -41.5l-154 56q38 92 112.5 128t186.5 36q116 0 178 -37.5t80.5 -94t18.5 -110.5v-457h-156l-6 47
q-42 -34 -87 -48.5t-99 -14.5zM352 901q45 0 81.5 17t49.5 39t13 38v70h-111q-78 0 -109.5 -22.5t-31.5 -65.5q0 -40 28 -58t80 -18z" />
    <glyph glyph-name="guillemotleft" unicode="&#xab;" horiz-adv-x="1182" 
d="M457 25l-385 495l385 496l190 -92l-270 -404l270 -403zM920 25l-385 495l385 496l190 -92l-270 -404l270 -403z" />
    <glyph glyph-name="logicalnot" unicode="&#xac;" horiz-adv-x="1159" 
d="M829 442v394h-700v200h897l4 -594h-201z" />
    <glyph glyph-name="uni00AD" unicode="&#xad;" horiz-adv-x="750" 
d="M72 416v227h606v-227h-606z" />
    <glyph glyph-name="registered" unicode="&#xae;" horiz-adv-x="1663" 
d="M831 -33q-106 0 -204.5 27.5t-184 77.5t-156 120t-120.5 156t-77.5 184.5t-27.5 204.5q0 142 48 269t133 228t194 164.5t208 86t187 22.5q106 0 205 -27.5t184.5 -77.5t156 -120t120.5 -156t77.5 -184.5t27.5 -204.5q0 -139 -48 -267.5t-132 -228.5t-194 -164.5
t-209.5 -87t-187.5 -22.5zM831 139q123 0 232 47.5t190.5 129t129 190t47.5 231.5q0 82 -21.5 158t-61 142.5t-94 121.5t-121 94t-143 60.5t-158.5 21.5q-125 0 -242 -52t-200.5 -145.5t-119.5 -196.5t-36 -204q0 -123 47.5 -231.5t129 -190t190 -129t231.5 -47.5zM518 307
v832h348q101 0 165.5 -41.5t86 -101.5t21.5 -117q0 -88 -31 -139.5t-84 -80.5l168 -352h-201l-141 311h-154v-311h-178zM696 770h150q54 0 80 23.5t26 85.5q0 48 -15 71.5t-43 30t-63 6.5h-135v-217z" />
    <glyph glyph-name="macron" unicode="&#xaf;" horiz-adv-x="702" 
d="M39 1217v192h625v-192h-625z" />
    <glyph glyph-name="degree" unicode="&#xb0;" horiz-adv-x="725" 
d="M362 885q-65 0 -121.5 24.5t-98.5 66.5t-66.5 98.5t-24.5 121.5q0 95 51.5 171.5t123 108t136.5 31.5q96 0 172 -51.5t108 -123.5t32 -136q0 -65 -24.5 -121.5t-66.5 -98.5t-99 -66.5t-122 -24.5zM362 1059q39 0 74 22t49.5 54.5t14.5 60.5q0 41 -23 74.5t-55.5 48
t-59.5 14.5q-41 0 -75 -23.5t-48 -54.5t-14 -59t11 -53t30 -43.5t44 -29.5t52 -11z" />
    <glyph glyph-name="plusminus" unicode="&#xb1;" horiz-adv-x="1159" 
d="M131 0v205h897v-205h-897zM479 309v336h-348v205h348v336h201v-336h348v-205h-348v-336h-201z" />
    <glyph glyph-name="twosuperior" unicode="&#xb2;" 
d="M61 592v139l293 252q80 69 116.5 119t42 77t5.5 42q0 29 -12.5 48t-39 29.5t-58.5 10.5q-60 0 -93 -40.5t-43 -123.5l-211 12q3 51 20 107t57 103t108.5 77.5t175.5 30.5q129 0 204.5 -44t97 -103.5t21.5 -106.5q0 -101 -66 -187.5t-149 -149t-145 -110.5h360v-182h-684z
" />
    <glyph glyph-name="threesuperior" unicode="&#xb3;" 
d="M397 573q-88 0 -151.5 18t-106 54t-67 90.5t-35.5 128.5l215 15q6 -48 23.5 -79t46 -43t61.5 -12q69 0 102 38.5t33 107.5q0 56 -31 91.5t-94 35.5q-57 0 -127 -35l-69 111l280 204h-387v158h615v-162l-209 -151q123 -3 186 -72.5t63 -187.5q0 -77 -25.5 -135t-71 -97
t-109.5 -58.5t-142 -19.5z" />
    <glyph glyph-name="acute" unicode="&#xb4;" horiz-adv-x="702" 
d="M162 1200l110 260h269l-228 -260h-151z" />
    <glyph glyph-name="mu" unicode="&#xb5;" horiz-adv-x="1114" 
d="M127 -393v1458h256v-703q0 -84 42.5 -121.5t109.5 -37.5q70 0 117.5 39.5t63 94t15.5 101.5v627h256v-1065h-237l-7 119q-24 -51 -57 -85t-75 -49.5t-85 -15.5q-46 0 -84.5 23t-64.5 51v-436h-250z" />
    <glyph glyph-name="paragraph" unicode="&#xb6;" horiz-adv-x="1262" 
d="M506 -393v977q-9 0 -19.5 1t-19.5 1q-93 11 -164.5 46t-122.5 91q-54 60 -82 139t-28 172q0 65 20 127.5t57.5 116t91 94.5t121.5 64q65 18 134 28q81 11 157 11h588v-213h-111v-1655h-213v1655h-194v-1655h-215z" />
    <glyph glyph-name="periodcentered" unicode="&#xb7;" horiz-adv-x="502" 
d="M113 582v276h276v-276h-276z" />
    <glyph glyph-name="cedilla" unicode="&#xb8;" horiz-adv-x="702" 
d="M219 -403q-28 0 -74 6l9 127h21q30 0 69 3.5t61 8.5q23 6 38 16t15 27q0 11 -14.5 19.5t-54 13t-99.5 4.5l62 178h170l-33 -86q54 -7 93.5 -27.5t57 -50.5t17.5 -65q0 -44 -24.5 -77t-69.5 -54q-89 -43 -244 -43z" />
    <glyph glyph-name="onesuperior" unicode="&#xb9;" 
d="M170 592v164h162v489l-164 -71l-78 153l297 148h154v-719h151v-164h-522z" />
    <glyph glyph-name="ordmasculine" unicode="&#xba;" horiz-adv-x="758" 
d="M379 754q-58 0 -103.5 12t-80 34t-59 52.5t-40.5 67.5q-18 43 -26.5 92t-8.5 102t8.5 102t26.5 93q25 57 68.5 96.5t99.5 54.5t115 15q84 0 143 -25t91.5 -64.5t48.5 -76.5q18 -44 26 -93t8 -102q0 -45 -6 -91.5t-24 -92.5q-25 -61 -71.5 -103t-103 -57.5t-112.5 -15.5z
M379 897q60 0 86.5 28.5t40.5 86.5q8 40 8 102q0 60 -8 100q-10 41 -24.5 66t-42.5 37t-60 12q-44 0 -72 -17.5t-39 -45t-16 -52.5q-8 -40 -8 -100q0 -62 8 -102q6 -26 14 -47t22.5 -36t36 -23.5t54.5 -8.5z" />
    <glyph glyph-name="guillemotright" unicode="&#xbb;" horiz-adv-x="1182" 
d="M262 25l-190 92l270 403l-270 404l190 92l385 -496zM725 25l-190 92l270 403l-270 404l190 92l385 -496z" />
    <glyph glyph-name="onequarter" unicode="&#xbc;" horiz-adv-x="1841" 
d="M103 592v164h162v489l-164 -71l-78 153l297 148h154v-719h151v-164h-522zM534 -33l508 1508h225l-507 -1508h-226zM1425 -9v153h-424v146l422 584h207v-576h80v-154h-80v-153h-205zM1214 298h219v318z" />
    <glyph glyph-name="onehalf" unicode="&#xbd;" horiz-adv-x="1841" 
d="M103 592v164h162v489l-164 -71l-78 153l297 148h154v-719h151v-164h-522zM514 -33l508 1508h225l-507 -1508h-226zM1056 -9v139l293 252q80 69 116.5 119t42 77t5.5 42q0 29 -12.5 48t-39 29.5t-58.5 10.5q-60 0 -93 -40.5t-43 -123.5l-211 12q3 51 20 107t57 103
t108.5 77.5t175.5 30.5q129 0 204.5 -44t97 -103.5t21.5 -106.5q0 -101 -66 -187.5t-149 -149t-145 -110.5h360v-182h-684z" />
    <glyph glyph-name="threequarters" unicode="&#xbe;" horiz-adv-x="1841" 
d="M385 573q-88 0 -151.5 18t-106 54t-67 90.5t-35.5 128.5l215 15q6 -48 23.5 -79t46 -43t61.5 -12q69 0 102 38.5t33 107.5q0 56 -31 91.5t-94 35.5q-57 0 -127 -35l-69 111l280 204h-387v158h615v-162l-209 -151q123 -3 186 -72.5t63 -187.5q0 -77 -25.5 -135t-71 -97
t-109.5 -58.5t-142 -19.5zM562 -33l508 1508h225l-507 -1508h-226zM1445 -9v153h-424v146l422 584h207v-576h80v-154h-80v-153h-205zM1234 298h219v318z" />
    <glyph glyph-name="questiondown" unicode="&#xbf;" horiz-adv-x="975" 
d="M481 -410q-229 0 -346 123q-42 44 -64 107t-22 137q0 73 25.5 137.5t61.5 107.5t65 70q41 39 78.5 72.5t65.5 70.5t44.5 82.5t16.5 108.5v19h256v-23q0 -124 -44 -215.5t-97 -141t-91 -83.5q-45 -40 -74 -75t-39 -66t-10 -64q0 -37 10.5 -65t28.5 -48q46 -45 135 -45
q63 0 103 19.5t65 50.5q28 37 39.5 84.5t18.5 95.5l249 -35q-15 -94 -45 -172t-94 -135q-57 -50 -139 -83.5t-197 -33.5zM389 764v301h293v-301h-293z" />
    <glyph glyph-name="Agrave" unicode="&#xc0;" horiz-adv-x="1214" 
d="M10 0l447 1475h262l485 -1475h-280l-101 340h-458l-95 -340h-260zM430 575h324l-168 564zM553 1548l-227 260h268l111 -260h-152z" />
    <glyph glyph-name="Aacute" unicode="&#xc1;" horiz-adv-x="1214" 
d="M10 0l447 1475h262l485 -1475h-280l-101 340h-458l-95 -340h-260zM430 575h324l-168 564zM490 1548l110 260h269l-228 -260h-151z" />
    <glyph glyph-name="Acircumflex" unicode="&#xc2;" horiz-adv-x="1214" 
d="M10 0l447 1475h262l485 -1475h-280l-101 340h-458l-95 -340h-260zM430 575h324l-168 564zM289 1546l225 260h178l218 -260h-226l-82 100l-86 -100h-227z" />
    <glyph glyph-name="Atilde" unicode="&#xc3;" horiz-adv-x="1214" 
d="M10 0l447 1475h262l485 -1475h-280l-101 340h-458l-95 -340h-260zM430 575h324l-168 564zM286 1542v47q0 85 25 132.5t61.5 61t73.5 13.5q51 0 133 -31q72 -35 90 -35q23 0 35.5 14.5t20.5 59.5h141v-47q0 -59 -11.5 -98t-33.5 -64t-51 -35t-64 -10q-37 0 -68 9t-59 20
q-82 37 -96 37q-18 0 -29 -8t-16.5 -24.5t-9.5 -41.5h-142z" />
    <glyph glyph-name="Adieresis" unicode="&#xc4;" horiz-adv-x="1214" 
d="M10 0l447 1475h262l485 -1475h-280l-101 340h-458l-95 -340h-260zM430 575h324l-168 564zM314 1560v203h225v-203h-225zM643 1560v203h226v-203h-226z" />
    <glyph glyph-name="Aring" unicode="&#xc5;" horiz-adv-x="1214" 
d="M10 0l432 1430q-21 23 -34 54t-13 66q0 39 14.5 71.5t39.5 55.5q26 25 61 39.5t76 14.5q37 0 71 -13.5t60 -38.5q26 -24 41.5 -57t15.5 -72q0 -48 -22 -90q-18 -22 -21 -24l473 -1436h-280l-105 340h-452l-97 -340h-260zM434 575h314l-162 533zM586 1475q25 0 44 11.5
t28.5 29t9.5 32.5q0 33 -23 54q-30 24 -59 24q-36 0 -60 -22q-22 -24 -22 -56q0 -31 22.5 -52t59.5 -21z" />
    <glyph glyph-name="AE" unicode="&#xc6;" horiz-adv-x="1745" 
d="M10 0l772 1475h875v-226h-574v-379h545v-225h-545v-420h590v-225h-844v369h-366l-187 -369h-266zM567 578h262v520z" />
    <glyph glyph-name="Ccedilla" unicode="&#xc7;" horiz-adv-x="1212" 
d="M653 -33q-112 0 -195.5 31.5t-143.5 86.5t-99.5 129t-62.5 159.5t-32 178.5t-9 185q0 97 8.5 191.5t31.5 180t63.5 158.5t103.5 126.5t152 83.5t210 30q141 0 239.5 -50t151 -133t78.5 -167l-246 -94q-24 89 -57 136t-80.5 66t-101.5 19q-81 0 -133.5 -39.5t-83.5 -111
t-43.5 -172.5t-12.5 -224q0 -269 67 -405.5t204 -136.5q75 0 122.5 29.5t74 87t44.5 124.5l254 -96q-35 -133 -105.5 -218t-175.5 -120t-223 -35zM516 -403q-28 0 -74 6l9 127h21q30 0 69 3.5t61 8.5q23 6 38 16t15 27q0 11 -14.5 19.5t-54 13t-99.5 4.5l62 178h170l-33 -86
q54 -7 93.5 -27.5t57 -50.5t17.5 -65q0 -44 -24.5 -77t-69.5 -54q-89 -43 -244 -43z" />
    <glyph glyph-name="Egrave" unicode="&#xc8;" horiz-adv-x="1090" 
d="M162 0v1475h839v-242h-577v-354h549v-242h-549v-395h594v-242h-856zM553 1548l-227 260h268l111 -260h-152z" />
    <glyph glyph-name="Eacute" unicode="&#xc9;" horiz-adv-x="1090" 
d="M162 0v1475h839v-242h-577v-354h549v-242h-549v-395h594v-242h-856zM490 1548l110 260h269l-228 -260h-151z" />
    <glyph glyph-name="Ecircumflex" unicode="&#xca;" horiz-adv-x="1090" 
d="M162 0v1475h839v-242h-577v-354h549v-242h-549v-395h594v-242h-856zM266 1546l225 260h178l218 -260h-226l-82 100l-86 -100h-227z" />
    <glyph glyph-name="Edieresis" unicode="&#xcb;" horiz-adv-x="1090" 
d="M162 0v1475h839v-242h-577v-354h549v-242h-549v-395h594v-242h-856zM293 1560v203h225v-203h-225zM622 1560v203h226v-203h-226z" />
    <glyph glyph-name="Igrave" unicode="&#xcc;" horiz-adv-x="586" 
d="M162 0v1475h262v-1475h-262zM269 1548l-227 260h268l111 -260h-152z" />
    <glyph glyph-name="Iacute" unicode="&#xcd;" horiz-adv-x="586" 
d="M162 0v1475h262v-1475h-262zM172 1548l110 260h269l-228 -260h-151z" />
    <glyph glyph-name="Icircumflex" unicode="&#xce;" horiz-adv-x="586" 
d="M162 0v1475h262v-1475h-262zM-11 1546l225 260h178l218 -260h-226l-82 100l-86 -100h-227z" />
    <glyph glyph-name="Idieresis" unicode="&#xcf;" horiz-adv-x="586" 
d="M162 0v1475h262v-1475h-262zM20 1560v203h225v-203h-225zM349 1560v203h226v-203h-226z" />
    <glyph glyph-name="Eth" unicode="&#xd0;" horiz-adv-x="1296" 
d="M162 0v670h-125v178h125v627h360q146 0 243.5 -22t159 -61t105.5 -83q86 -89 121 -222t35 -307q0 -156 -20 -278t-67.5 -214t-111.5 -149q-64 -56 -125.5 -86.5t-133 -41.5t-146.5 -11h-420zM424 233h80q79 0 133.5 10.5t85 28.5t55.5 41q46 42 75.5 111.5t40.5 162
t11 193.5q0 107 -13.5 182t-38 118.5t-50.5 70.5q-37 36 -77.5 55t-100 27t-121.5 8h-80v-393h207v-178h-207v-437z" />
    <glyph glyph-name="Ntilde" unicode="&#xd1;" horiz-adv-x="1327" 
d="M162 0v1475h274l475 -988v988h254v-1475h-262l-487 1006v-1006h-254zM372 1542v47q0 85 25 132.5t61.5 61t73.5 13.5q51 0 133 -31q72 -35 90 -35q23 0 35.5 14.5t20.5 59.5h141v-47q0 -59 -11.5 -98t-33.5 -64t-51 -35t-64 -10q-37 0 -68 9t-59 20q-82 37 -96 37
q-18 0 -29 -8t-16.5 -24.5t-9.5 -41.5h-142z" />
    <glyph glyph-name="Ograve" unicode="&#xd2;" horiz-adv-x="1356" 
d="M678 -33q-112 0 -197 26t-147 73t-103.5 112.5t-66.5 143.5q-31 92 -42 197.5t-11 217.5q0 113 11 218t42 198q25 78 66.5 143.5t103.5 112t147 72.5t197 26q160 0 271 -55t163.5 -138t79.5 -161q31 -93 42 -198t11 -218q0 -112 -11 -217.5t-42 -197.5
q-26 -78 -67 -143.5t-103 -112.5t-147 -73t-197 -26zM678 188q68 0 115.5 20t78 60t50.5 90q23 60 33 148.5t10 230.5q0 137 -10 225.5t-33 149.5q-28 71 -68.5 110t-87 49.5t-88.5 10.5q-69 0 -120 -21t-80 -60.5t-46 -88.5q-28 -70 -35.5 -157.5t-7.5 -217.5
q0 -99 4.5 -179.5t15 -124t23.5 -75.5q25 -70 66.5 -110t88.5 -50t91 -10zM676 1548l-227 260h268l111 -260h-152z" />
    <glyph glyph-name="Oacute" unicode="&#xd3;" horiz-adv-x="1356" 
d="M678 -33q-112 0 -197 26t-147 73t-103.5 112.5t-66.5 143.5q-31 92 -42 197.5t-11 217.5q0 113 11 218t42 198q25 78 66.5 143.5t103.5 112t147 72.5t197 26q160 0 271 -55t163.5 -138t79.5 -161q31 -93 42 -198t11 -218q0 -112 -11 -217.5t-42 -197.5
q-26 -78 -67 -143.5t-103 -112.5t-147 -73t-197 -26zM678 188q68 0 115.5 20t78 60t50.5 90q23 60 33 148.5t10 230.5q0 137 -10 225.5t-33 149.5q-28 71 -68.5 110t-87 49.5t-88.5 10.5q-69 0 -120 -21t-80 -60.5t-46 -88.5q-28 -70 -35.5 -157.5t-7.5 -217.5
q0 -99 4.5 -179.5t15 -124t23.5 -75.5q25 -70 66.5 -110t88.5 -50t91 -10zM551 1548l110 260h269l-228 -260h-151z" />
    <glyph glyph-name="Ocircumflex" unicode="&#xd4;" horiz-adv-x="1356" 
d="M678 -33q-112 0 -197 26t-147 73t-103.5 112.5t-66.5 143.5q-31 92 -42 197.5t-11 217.5q0 113 11 218t42 198q25 78 66.5 143.5t103.5 112t147 72.5t197 26q160 0 271 -55t163.5 -138t79.5 -161q31 -93 42 -198t11 -218q0 -112 -11 -217.5t-42 -197.5
q-26 -78 -67 -143.5t-103 -112.5t-147 -73t-197 -26zM678 188q68 0 115.5 20t78 60t50.5 90q23 60 33 148.5t10 230.5q0 137 -10 225.5t-33 149.5q-28 71 -68.5 110t-87 49.5t-88.5 10.5q-69 0 -120 -21t-80 -60.5t-46 -88.5q-28 -70 -35.5 -157.5t-7.5 -217.5
q0 -99 4.5 -179.5t15 -124t23.5 -75.5q25 -70 66.5 -110t88.5 -50t91 -10zM369 1546l225 260h178l218 -260h-226l-82 100l-86 -100h-227z" />
    <glyph glyph-name="Otilde" unicode="&#xd5;" horiz-adv-x="1356" 
d="M678 -33q-112 0 -197 26t-147 73t-103.5 112.5t-66.5 143.5q-31 92 -42 197.5t-11 217.5q0 113 11 218t42 198q25 78 66.5 143.5t103.5 112t147 72.5t197 26q160 0 271 -55t163.5 -138t79.5 -161q31 -93 42 -198t11 -218q0 -112 -11 -217.5t-42 -197.5
q-26 -78 -67 -143.5t-103 -112.5t-147 -73t-197 -26zM678 188q68 0 115.5 20t78 60t50.5 90q23 60 33 148.5t10 230.5q0 137 -10 225.5t-33 149.5q-28 71 -68.5 110t-87 49.5t-88.5 10.5q-69 0 -120 -21t-80 -60.5t-46 -88.5q-28 -70 -35.5 -157.5t-7.5 -217.5
q0 -99 4.5 -179.5t15 -124t23.5 -75.5q25 -70 66.5 -110t88.5 -50t91 -10zM378 1542v47q0 85 25 132.5t61.5 61t73.5 13.5q51 0 133 -31q72 -35 90 -35q23 0 35.5 14.5t20.5 59.5h141v-47q0 -59 -11.5 -98t-33.5 -64t-51 -35t-64 -10q-37 0 -68 9t-59 20q-82 37 -96 37
q-18 0 -29 -8t-16.5 -24.5t-9.5 -41.5h-142z" />
    <glyph glyph-name="Odieresis" unicode="&#xd6;" horiz-adv-x="1356" 
d="M678 -33q-112 0 -197 26t-147 73t-103.5 112.5t-66.5 143.5q-31 92 -42 197.5t-11 217.5q0 113 11 218t42 198q25 78 66.5 143.5t103.5 112t147 72.5t197 26q160 0 271 -55t163.5 -138t79.5 -161q31 -93 42 -198t11 -218q0 -112 -11 -217.5t-42 -197.5
q-26 -78 -67 -143.5t-103 -112.5t-147 -73t-197 -26zM678 188q68 0 115.5 20t78 60t50.5 90q23 60 33 148.5t10 230.5q0 137 -10 225.5t-33 149.5q-28 71 -68.5 110t-87 49.5t-88.5 10.5q-69 0 -120 -21t-80 -60.5t-46 -88.5q-28 -70 -35.5 -157.5t-7.5 -217.5
q0 -99 4.5 -179.5t15 -124t23.5 -75.5q25 -70 66.5 -110t88.5 -50t91 -10zM402 1560v203h225v-203h-225zM731 1560v203h226v-203h-226z" />
    <glyph glyph-name="multiply" unicode="&#xd7;" horiz-adv-x="1159" 
d="M324 324l-127 129l260 286l-260 287l127 129l256 -281l256 281l127 -129l-261 -287l261 -286l-127 -129l-256 280z" />
    <glyph glyph-name="Oslash" unicode="&#xd8;" horiz-adv-x="1356" 
d="M266 -94l-155 94l116 184q-23 35 -40 74t-31 82q-26 88 -36.5 188.5t-10.5 208.5q0 113 12 218t41 198q26 78 67.5 143.5t103.5 112t146.5 72.5t196.5 26q103 0 183 -22t140 -64l93 148l155 -94l-119 -189q23 -34 40.5 -73t29.5 -83q26 -88 36.5 -187t10.5 -206
q0 -112 -12 -217.5t-41 -197.5q-26 -78 -68 -143.5t-104 -112.5t-146.5 -73t-195.5 -26q-102 0 -182 22t-140 62zM676 188q68 0 115.5 20t78 60t50.5 90q25 63 35 155t10 224q0 82 -3.5 146t-11.5 116l-465 -739q38 -40 85 -56t106 -16zM401 463l465 745h2q-37 42 -84 58
t-106 16q-69 0 -120 -21t-80 -60.5t-46 -88.5q-27 -67 -36 -151.5t-9 -223.5q0 -88 3 -155t11 -119z" />
    <glyph glyph-name="Ugrave" unicode="&#xd9;" horiz-adv-x="1303" 
d="M649 -33q-117 0 -211 26.5t-159.5 85.5t-100.5 155t-35 235v1006h263v-994q0 -77 14.5 -129.5t44 -85t75.5 -47t109 -14.5q97 0 152.5 33.5t74.5 99.5t19 143v994h264v-1006q0 -139 -35.5 -235t-101.5 -155t-160.5 -85.5t-212.5 -26.5zM614 1548l-227 260h268l111 -260
h-152z" />
    <glyph glyph-name="Uacute" unicode="&#xda;" horiz-adv-x="1303" 
d="M649 -33q-117 0 -211 26.5t-159.5 85.5t-100.5 155t-35 235v1006h263v-994q0 -77 14.5 -129.5t44 -85t75.5 -47t109 -14.5q97 0 152.5 33.5t74.5 99.5t19 143v994h264v-1006q0 -139 -35.5 -235t-101.5 -155t-160.5 -85.5t-212.5 -26.5zM551 1548l110 260h269l-228 -260
h-151z" />
    <glyph glyph-name="Ucircumflex" unicode="&#xdb;" horiz-adv-x="1303" 
d="M649 -33q-117 0 -211 26.5t-159.5 85.5t-100.5 155t-35 235v1006h263v-994q0 -77 14.5 -129.5t44 -85t75.5 -47t109 -14.5q97 0 152.5 33.5t74.5 99.5t19 143v994h264v-1006q0 -139 -35.5 -235t-101.5 -155t-160.5 -85.5t-212.5 -26.5zM342 1546l225 260h178l218 -260
h-226l-82 100l-86 -100h-227z" />
    <glyph glyph-name="Udieresis" unicode="&#xdc;" horiz-adv-x="1303" 
d="M649 -33q-117 0 -211 26.5t-159.5 85.5t-100.5 155t-35 235v1006h263v-994q0 -77 14.5 -129.5t44 -85t75.5 -47t109 -14.5q97 0 152.5 33.5t74.5 99.5t19 143v994h264v-1006q0 -139 -35.5 -235t-101.5 -155t-160.5 -85.5t-212.5 -26.5zM369 1560v203h225v-203h-225z
M698 1560v203h226v-203h-226z" />
    <glyph glyph-name="Yacute" unicode="&#xdd;" horiz-adv-x="1141" 
d="M428 0v598l-418 877h281l280 -623l291 623h268l-440 -877v-598h-262zM479 1548l110 260h269l-228 -260h-151z" />
    <glyph glyph-name="Thorn" unicode="&#xde;" horiz-adv-x="1178" 
d="M162 0v1475h262v-238h217q175 0 283.5 -75.5t143 -180t34.5 -199.5q0 -101 -28 -184.5t-88.5 -144t-156 -94t-229.5 -33.5h-176v-326h-262zM424 543h174q111 0 168 56.5t57 184.5q0 95 -29.5 146t-90 70.5t-132.5 19.5h-147v-477z" />
    <glyph glyph-name="germandbls" unicode="&#xdf;" horiz-adv-x="1130" 
d="M676 -12q-59 0 -101.5 4t-80.5 12v215q62 -12 104 -12q43 0 73 9t52 28q34 29 45.5 78.5t11.5 115.5q0 76 -13 129.5t-50 85.5q-28 25 -73 37t-112 12h-38v213h24q43 0 79 14t60 42q22 26 35 63t13 86q0 38 -9 68.5t-26 50.5q-40 43 -119 43q-45 0 -73.5 -15t-47.5 -38
q-25 -31 -32 -69.5t-7 -65.5v-1094h-264v1069q0 100 25.5 174t74.5 125q108 111 318 111q103 0 184 -25t135 -76q47 -43 72 -105t25 -147q0 -55 -13 -108.5t-47 -99.5q-17 -23 -39 -44t-51 -38q53 -19 90.5 -47t63.5 -62q42 -57 58.5 -134t16.5 -167q0 -119 -31 -204.5
t-85 -139.5q-50 -48 -113 -71t-135 -23z" />
    <glyph glyph-name="agrave" unicode="&#xe0;" horiz-adv-x="1069" 
d="M426 -31q-91 0 -161 32.5t-115 94.5q-70 91 -70 232q0 63 15.5 112.5t43.5 87.5q53 70 141.5 102t196.5 32h215v71q0 82 -45 116t-119 34q-61 0 -99.5 -15t-57.5 -39t-31 -49l-225 72q41 120 144.5 183t279.5 63q103 0 188 -28.5t137 -90.5q46 -54 63 -112t17 -134v-733
h-237l-7 92q-31 -38 -75.5 -66t-97.5 -42.5t-101 -14.5zM506 193q54 0 102 27t67 61.5t19 66.5v123h-170q-78 0 -120.5 -20.5t-54 -53t-11.5 -63.5q0 -66 37 -103q20 -18 50.5 -28t80.5 -10zM532 1200l-227 260h268l111 -260h-152z" />
    <glyph glyph-name="aacute" unicode="&#xe1;" horiz-adv-x="1069" 
d="M426 -31q-91 0 -161 32.5t-115 94.5q-70 91 -70 232q0 63 15.5 112.5t43.5 87.5q53 70 141.5 102t196.5 32h215v71q0 82 -45 116t-119 34q-61 0 -99.5 -15t-57.5 -39t-31 -49l-225 72q41 120 144.5 183t279.5 63q103 0 188 -28.5t137 -90.5q46 -54 63 -112t17 -134v-733
h-237l-7 92q-31 -38 -75.5 -66t-97.5 -42.5t-101 -14.5zM506 193q54 0 102 27t67 61.5t19 66.5v123h-170q-78 0 -120.5 -20.5t-54 -53t-11.5 -63.5q0 -66 37 -103q20 -18 50.5 -28t80.5 -10zM428 1200l110 260h269l-228 -260h-151z" />
    <glyph glyph-name="acircumflex" unicode="&#xe2;" horiz-adv-x="1069" 
d="M426 -31q-91 0 -161 32.5t-115 94.5q-70 91 -70 232q0 63 15.5 112.5t43.5 87.5q53 70 141.5 102t196.5 32h215v71q0 82 -45 116t-119 34q-61 0 -99.5 -15t-57.5 -39t-31 -49l-225 72q41 120 144.5 183t279.5 63q103 0 188 -28.5t137 -90.5q46 -54 63 -112t17 -134v-733
h-237l-7 92q-31 -38 -75.5 -66t-97.5 -42.5t-101 -14.5zM506 193q54 0 102 27t67 61.5t19 66.5v123h-170q-78 0 -120.5 -20.5t-54 -53t-11.5 -63.5q0 -66 37 -103q20 -18 50.5 -28t80.5 -10zM229 1198l225 260h178l218 -260h-226l-82 100l-86 -100h-227z" />
    <glyph glyph-name="atilde" unicode="&#xe3;" horiz-adv-x="1069" 
d="M426 -31q-91 0 -161 32.5t-115 94.5q-70 91 -70 232q0 63 15.5 112.5t43.5 87.5q53 70 141.5 102t196.5 32h215v71q0 82 -45 116t-119 34q-61 0 -99.5 -15t-57.5 -39t-31 -49l-225 72q41 120 144.5 183t279.5 63q103 0 188 -28.5t137 -90.5q46 -54 63 -112t17 -134v-733
h-237l-7 92q-31 -38 -75.5 -66t-97.5 -42.5t-101 -14.5zM506 193q54 0 102 27t67 61.5t19 66.5v123h-170q-78 0 -120.5 -20.5t-54 -53t-11.5 -63.5q0 -66 37 -103q20 -18 50.5 -28t80.5 -10zM256 1194v47q0 85 25 132.5t61.5 61t73.5 13.5q51 0 133 -31q72 -35 90 -35
q23 0 35.5 14.5t20.5 59.5h141v-47q0 -59 -11.5 -98t-33.5 -64t-51 -35t-64 -10q-37 0 -68 9t-59 20q-82 37 -96 37q-18 0 -29 -8t-16.5 -24.5t-9.5 -41.5h-142z" />
    <glyph glyph-name="adieresis" unicode="&#xe4;" horiz-adv-x="1069" 
d="M426 -31q-91 0 -161 32.5t-115 94.5q-70 91 -70 232q0 63 15.5 112.5t43.5 87.5q53 70 141.5 102t196.5 32h215v71q0 82 -45 116t-119 34q-61 0 -99.5 -15t-57.5 -39t-31 -49l-225 72q41 120 144.5 183t279.5 63q103 0 188 -28.5t137 -90.5q46 -54 63 -112t17 -134v-733
h-237l-7 92q-31 -38 -75.5 -66t-97.5 -42.5t-101 -14.5zM506 193q54 0 102 27t67 61.5t19 66.5v123h-170q-78 0 -120.5 -20.5t-54 -53t-11.5 -63.5q0 -66 37 -103q20 -18 50.5 -28t80.5 -10zM275 1212v203h225v-203h-225zM604 1212v203h226v-203h-226z" />
    <glyph glyph-name="aring" unicode="&#xe5;" horiz-adv-x="1069" 
d="M426 -31q-91 0 -161 32.5t-115 94.5q-70 91 -70 232q0 63 15.5 112.5t43.5 87.5q53 70 141.5 102t196.5 32h215v71q0 82 -45 116t-119 34q-61 0 -99.5 -15t-57.5 -39t-31 -49l-225 72q41 120 144.5 183t279.5 63q103 0 188 -28.5t137 -90.5q46 -54 63 -112t17 -134v-733
h-237l-7 92q-31 -38 -75.5 -66t-97.5 -42.5t-101 -14.5zM506 193q54 0 102 27t67 61.5t19 66.5v123h-170q-78 0 -120.5 -20.5t-54 -53t-11.5 -63.5q0 -66 37 -103q20 -18 50.5 -28t80.5 -10zM565 1153q-40 0 -74.5 14t-60 38t-40.5 57t-15 71t14 71t39 56q26 25 61.5 39
t75.5 14q37 0 71 -13t60 -38q26 -24 42 -57.5t16 -71.5q0 -76 -54 -127q-29 -28 -63 -40.5t-72 -12.5zM565 1257q25 0 43.5 11t28.5 29.5t10 33.5q0 34 -22 53q-31 25 -60 25q-17 0 -32.5 -6t-26.5 -17t-17 -24.5t-6 -30.5q0 -31 22.5 -52.5t59.5 -21.5z" />
    <glyph glyph-name="ae" unicode="&#xe6;" horiz-adv-x="1640" 
d="M1141 -33q-127 0 -215.5 39t-145.5 121q-3 -3 -6 -7t-6 -7q-68 -69 -131 -101t-116 -37.5t-95 -5.5q-93 0 -163.5 34t-117.5 99q-31 44 -48 101t-17 125q0 63 15.5 111t43.5 85q53 66 141.5 94.5t196.5 28.5h215v86q0 63 -25.5 96.5t-63.5 45.5t-75 12q-42 0 -72 -7
t-51.5 -21t-37 -34t-27.5 -45l-225 72q41 120 144.5 183t279.5 63q74 0 139.5 -16t116.5 -56q25 -19 43 -41q103 113 311 113q105 0 176.5 -28t118.5 -73q51 -51 77 -117.5t33 -146t7 -149.5v-113h-619v-53q0 -66 15.5 -110t43.5 -71t67 -38t87 -11q62 0 102 22t60.5 50.5
t28.5 46.5l206 -100q-35 -80 -91 -134t-138.5 -80t-181.5 -26zM506 193q54 0 102 27t67 61.5t19 66.5v123h-170q-78 0 -120.5 -20.5t-54 -53t-11.5 -63.5q0 -66 37 -103q20 -18 50.5 -28t80.5 -10zM944 647h365q0 99 -27 154.5t-69 72.5t-83 17t-74 -12t-57 -40t-38.5 -75
t-16.5 -117z" />
    <glyph glyph-name="ccedilla" unicode="&#xe7;" horiz-adv-x="969" 
d="M543 -33q-90 0 -158 19.5t-117.5 54.5t-82 83t-52.5 105q-25 68 -34 145.5t-9 157.5q0 81 9 157t34 145q21 57 54.5 105.5t83.5 84t118.5 55t159.5 19.5q162 0 263 -78t130 -223l-233 -74q-22 88 -64.5 124t-107.5 36t-102.5 -33.5t-57.5 -89.5q-16 -47 -21.5 -105
t-5.5 -123t4 -112t12 -82t20.5 -59.5t29.5 -42.5q18 -22 48.5 -36t67.5 -14q54 0 89.5 17t57.5 54.5t36 86.5l233 -78q-40 -145 -142 -222t-263 -77zM383 -403q-28 0 -74 6l9 127h21q30 0 69 3.5t61 8.5q23 6 38 16t15 27q0 11 -14.5 19.5t-54 13t-99.5 4.5l62 178h170
l-33 -86q54 -7 93.5 -27.5t57 -50.5t17.5 -65q0 -44 -24.5 -77t-69.5 -54q-89 -43 -244 -43z" />
    <glyph glyph-name="egrave" unicode="&#xe8;" horiz-adv-x="1044" 
d="M545 -33q-155 0 -255.5 54t-150.5 176q-49 117 -49 313q0 170 30.5 288.5t102.5 190.5q54 54 134.5 81.5t195.5 27.5q105 0 176.5 -28t118.5 -73q51 -51 77 -117.5t33 -146t7 -149.5v-131h-619v-35q0 -66 15.5 -110t43.5 -71t67 -38t87 -11q62 0 102 22t60.5 50.5
t28.5 46.5l206 -100q-35 -80 -91 -134t-138.5 -80t-181.5 -26zM348 635h365q0 104 -26.5 163t-69 76t-82.5 17q-41 0 -74.5 -12t-57.5 -41.5t-38.5 -78.5t-16.5 -124zM512 1200l-227 260h268l111 -260h-152z" />
    <glyph glyph-name="eacute" unicode="&#xe9;" horiz-adv-x="1044" 
d="M545 -33q-155 0 -255.5 54t-150.5 176q-49 117 -49 313q0 170 30.5 288.5t102.5 190.5q54 54 134.5 81.5t195.5 27.5q105 0 176.5 -28t118.5 -73q51 -51 77 -117.5t33 -146t7 -149.5v-131h-619v-35q0 -66 15.5 -110t43.5 -71t67 -38t87 -11q62 0 102 22t60.5 50.5
t28.5 46.5l206 -100q-35 -80 -91 -134t-138.5 -80t-181.5 -26zM348 635h365q0 104 -26.5 163t-69 76t-82.5 17q-41 0 -74.5 -12t-57.5 -41.5t-38.5 -78.5t-16.5 -124zM430 1200l110 260h269l-228 -260h-151z" />
    <glyph glyph-name="ecircumflex" unicode="&#xea;" horiz-adv-x="1044" 
d="M545 -33q-155 0 -255.5 54t-150.5 176q-49 117 -49 313q0 170 30.5 288.5t102.5 190.5q54 54 134.5 81.5t195.5 27.5q105 0 176.5 -28t118.5 -73q51 -51 77 -117.5t33 -146t7 -149.5v-131h-619v-35q0 -66 15.5 -110t43.5 -71t67 -38t87 -11q62 0 102 22t60.5 50.5
t28.5 46.5l206 -100q-35 -80 -91 -134t-138.5 -80t-181.5 -26zM348 635h365q0 104 -26.5 163t-69 76t-82.5 17q-41 0 -74.5 -12t-57.5 -41.5t-38.5 -78.5t-16.5 -124zM234 1198l225 260h178l218 -260h-226l-82 100l-86 -100h-227z" />
    <glyph glyph-name="edieresis" unicode="&#xeb;" horiz-adv-x="1044" 
d="M545 -33q-155 0 -255.5 54t-150.5 176q-49 117 -49 313q0 170 30.5 288.5t102.5 190.5q54 54 134.5 81.5t195.5 27.5q105 0 176.5 -28t118.5 -73q51 -51 77 -117.5t33 -146t7 -149.5v-131h-619v-35q0 -66 15.5 -110t43.5 -71t67 -38t87 -11q62 0 102 22t60.5 50.5
t28.5 46.5l206 -100q-35 -80 -91 -134t-138.5 -80t-181.5 -26zM348 635h365q0 104 -26.5 163t-69 76t-82.5 17q-41 0 -74.5 -12t-57.5 -41.5t-38.5 -78.5t-16.5 -124zM275 1212v203h225v-203h-225zM604 1212v203h226v-203h-226z" />
    <glyph glyph-name="igrave" unicode="&#xec;" horiz-adv-x="510" 
d="M127 0v1065h256v-1065h-256zM228 1200l-227 260h268l111 -260h-152z" />
    <glyph glyph-name="iacute" unicode="&#xed;" horiz-adv-x="510" 
d="M127 0v1065h256v-1065h-256zM130 1200l110 260h269l-228 -260h-151z" />
    <glyph glyph-name="icircumflex" unicode="&#xee;" horiz-adv-x="510" 
d="M127 0v1065h256v-1065h-256zM-54 1198l225 260h178l218 -260h-226l-82 100l-86 -100h-227z" />
    <glyph glyph-name="idieresis" unicode="&#xef;" horiz-adv-x="510" 
d="M127 0v1065h256v-1065h-256zM-15 1212v203h225v-203h-225zM314 1212v203h226v-203h-226z" />
    <glyph glyph-name="eth" unicode="&#xf0;" horiz-adv-x="1090" 
d="M547 -33q-88 0 -155.5 19t-118 53t-85 82t-55.5 106q-23 66 -33 135t-10 132t7 133.5t30 136.5q34 95 92 153t127 76.5t129 18.5q63 0 109.5 -12t70.5 -33q-5 12 -15 35t-28.5 53t-46 65t-67.5 70l-162 -137l-72 82l146 122q-103 67 -168 93l61 141q71 -22 134.5 -49.5
t117.5 -61.5l139 119l74 -80l-119 -102q143 -110 224.5 -260.5t103.5 -280.5t22 -221q0 -102 -10 -182t-33 -146q-21 -58 -55 -106t-83.5 -82t-116.5 -53t-154 -19zM546 186q76 0 118.5 35t58.5 108.5t16 164.5q0 108 -28 190q-23 66 -64 91.5t-101 25.5t-102 -25t-65 -90
q-29 -81 -29 -182q0 -56 7.5 -108.5t21.5 -92.5q23 -65 64.5 -91t102.5 -26z" />
    <glyph glyph-name="ntilde" unicode="&#xf1;" horiz-adv-x="1104" 
d="M127 0v1065h238l6 -119q42 52 84 85t99.5 50t119.5 17q52 0 106 -14.5t98.5 -52t72.5 -101.5t28 -164v-766h-256v721q0 65 -34.5 104t-108.5 39q-44 0 -80 -19t-62 -51.5t-40.5 -75t-14.5 -89.5v-629h-256zM276 1194v47q0 85 25 132.5t61.5 61t73.5 13.5q51 0 133 -31
q72 -35 90 -35q23 0 35.5 14.5t20.5 59.5h141v-47q0 -59 -11.5 -98t-33.5 -64t-51 -35t-64 -10q-37 0 -68 9t-59 20q-82 37 -96 37q-18 0 -29 -8t-16.5 -24.5t-9.5 -41.5h-142z" />
    <glyph glyph-name="ograve" unicode="&#xf2;" horiz-adv-x="1090" 
d="M547 -33q-88 0 -155.5 19t-118 53t-85 82t-55.5 106q-23 66 -33 143t-10 162t10 161.5t33 142.5q32 91 95.5 153t146.5 85.5t172 23.5q126 0 213 -40t131 -102t65 -120q23 -66 33 -143t10 -161q0 -85 -10 -162t-33 -143q-33 -91 -95.5 -152t-144.5 -84.5t-169 -23.5z
M547 186q75 0 117 39t58.5 122.5t16.5 184.5q0 78 -7 134t-21 96q-23 66 -64 91.5t-100 25.5q-60 0 -102.5 -25t-65.5 -90q-14 -40 -21.5 -97t-7.5 -135q0 -77 7.5 -133t21.5 -96q23 -65 65.5 -91t102.5 -26zM522 1200l-227 260h268l111 -260h-152z" />
    <glyph glyph-name="oacute" unicode="&#xf3;" horiz-adv-x="1090" 
d="M547 -33q-88 0 -155.5 19t-118 53t-85 82t-55.5 106q-23 66 -33 143t-10 162t10 161.5t33 142.5q32 91 95.5 153t146.5 85.5t172 23.5q126 0 213 -40t131 -102t65 -120q23 -66 33 -143t10 -161q0 -85 -10 -162t-33 -143q-33 -91 -95.5 -152t-144.5 -84.5t-169 -23.5z
M547 186q75 0 117 39t58.5 122.5t16.5 184.5q0 78 -7 134t-21 96q-23 66 -64 91.5t-100 25.5q-60 0 -102.5 -25t-65.5 -90q-14 -40 -21.5 -97t-7.5 -135q0 -77 7.5 -133t21.5 -96q23 -65 65.5 -91t102.5 -26zM449 1200l110 260h269l-228 -260h-151z" />
    <glyph glyph-name="ocircumflex" unicode="&#xf4;" horiz-adv-x="1090" 
d="M547 -33q-88 0 -155.5 19t-118 53t-85 82t-55.5 106q-23 66 -33 143t-10 162t10 161.5t33 142.5q32 91 95.5 153t146.5 85.5t172 23.5q126 0 213 -40t131 -102t65 -120q23 -66 33 -143t10 -161q0 -85 -10 -162t-33 -143q-33 -91 -95.5 -152t-144.5 -84.5t-169 -23.5z
M547 186q75 0 117 39t58.5 122.5t16.5 184.5q0 78 -7 134t-21 96q-23 66 -64 91.5t-100 25.5q-60 0 -102.5 -25t-65.5 -90q-14 -40 -21.5 -97t-7.5 -135q0 -77 7.5 -133t21.5 -96q23 -65 65.5 -91t102.5 -26zM240 1198l225 260h178l218 -260h-226l-82 100l-86 -100h-227z
" />
    <glyph glyph-name="otilde" unicode="&#xf5;" horiz-adv-x="1090" 
d="M547 -33q-88 0 -155.5 19t-118 53t-85 82t-55.5 106q-23 66 -33 143t-10 162t10 161.5t33 142.5q32 91 95.5 153t146.5 85.5t172 23.5q126 0 213 -40t131 -102t65 -120q23 -66 33 -143t10 -161q0 -85 -10 -162t-33 -143q-33 -91 -95.5 -152t-144.5 -84.5t-169 -23.5z
M547 186q75 0 117 39t58.5 122.5t16.5 184.5q0 78 -7 134t-21 96q-23 66 -64 91.5t-100 25.5q-60 0 -102.5 -25t-65.5 -90q-14 -40 -21.5 -97t-7.5 -135q0 -77 7.5 -133t21.5 -96q23 -65 65.5 -91t102.5 -26zM256 1194v47q0 85 25 132.5t61.5 61t73.5 13.5q51 0 133 -31
q72 -35 90 -35q23 0 35.5 14.5t20.5 59.5h141v-47q0 -59 -11.5 -98t-33.5 -64t-51 -35t-64 -10q-37 0 -68 9t-59 20q-82 37 -96 37q-18 0 -29 -8t-16.5 -24.5t-9.5 -41.5h-142z" />
    <glyph glyph-name="odieresis" unicode="&#xf6;" horiz-adv-x="1090" 
d="M547 -33q-88 0 -155.5 19t-118 53t-85 82t-55.5 106q-23 66 -33 143t-10 162t10 161.5t33 142.5q32 91 95.5 153t146.5 85.5t172 23.5q126 0 213 -40t131 -102t65 -120q23 -66 33 -143t10 -161q0 -85 -10 -162t-33 -143q-33 -91 -95.5 -152t-144.5 -84.5t-169 -23.5z
M547 186q75 0 117 39t58.5 122.5t16.5 184.5q0 78 -7 134t-21 96q-23 66 -64 91.5t-100 25.5q-60 0 -102.5 -25t-65.5 -90q-14 -40 -21.5 -97t-7.5 -135q0 -77 7.5 -133t21.5 -96q23 -65 65.5 -91t102.5 -26zM279 1212v203h225v-203h-225zM608 1212v203h226v-203h-226z" />
    <glyph glyph-name="divide" unicode="&#xf7;" horiz-adv-x="1159" 
d="M580 262q-27 0 -51.5 11t-42.5 29t-29 42t-11 51q0 37 22.5 71.5t53.5 48t58 13.5q39 0 71.5 -22t47 -53t14.5 -58q0 -41 -23.5 -73.5t-53 -46t-56.5 -13.5zM131 639v201h897v-201h-897zM580 950q-27 0 -51.5 11t-42.5 29t-29 42t-11 51q0 38 22.5 72.5t53 48t58.5 13.5
q40 0 72.5 -23.5t46.5 -53.5t14 -57q0 -41 -23.5 -73.5t-53.5 -46t-56 -13.5z" />
    <glyph glyph-name="oslash" unicode="&#xf8;" horiz-adv-x="1090" 
d="M203 -98l-113 78l98 143q-35 52 -57 115q-23 65 -32 139t-9 155q0 85 10 161.5t33 142.5q32 91 95.5 153t146.5 85.5t172 23.5q85 0 149.5 -18t114.5 -50l76 109l112 -78l-90 -131q34 -52 54 -115t28 -134t8 -149q0 -85 -10 -162t-33 -143q-33 -91 -95.5 -152
t-144.5 -84.5t-169 -23.5q-81 0 -145 16.5t-113 45.5zM547 170q62 0 104.5 26.5t67.5 94.5q15 42 23 101t8 140q0 94 -9 152l-323 -471q25 -23 57 -33t72 -10zM352 360l330 482q-26 29 -59.5 41t-75.5 12q-63 0 -107.5 -26.5t-68.5 -94.5q-31 -81 -31 -242q0 -52 3 -94
t9 -78z" />
    <glyph glyph-name="ugrave" unicode="&#xf9;" horiz-adv-x="1112" 
d="M438 -31q-52 0 -107.5 14.5t-101 52t-75 101.5t-29.5 164v764h256v-719q0 -65 38.5 -104t112.5 -39q62 0 110 38.5t67.5 94t19.5 102.5v627h256v-1065h-237l-7 119q-39 -49 -80 -81.5t-101.5 -50.5t-121.5 -18zM502 1200l-227 260h268l111 -260h-152z" />
    <glyph glyph-name="uacute" unicode="&#xfa;" horiz-adv-x="1112" 
d="M438 -31q-52 0 -107.5 14.5t-101 52t-75 101.5t-29.5 164v764h256v-719q0 -65 38.5 -104t112.5 -39q62 0 110 38.5t67.5 94t19.5 102.5v627h256v-1065h-237l-7 119q-39 -49 -80 -81.5t-101.5 -50.5t-121.5 -18zM449 1200l110 260h269l-228 -260h-151z" />
    <glyph glyph-name="ucircumflex" unicode="&#xfb;" horiz-adv-x="1112" 
d="M438 -31q-52 0 -107.5 14.5t-101 52t-75 101.5t-29.5 164v764h256v-719q0 -65 38.5 -104t112.5 -39q62 0 110 38.5t67.5 94t19.5 102.5v627h256v-1065h-237l-7 119q-39 -49 -80 -81.5t-101.5 -50.5t-121.5 -18zM225 1198l225 260h178l218 -260h-226l-82 100l-86 -100
h-227z" />
    <glyph glyph-name="udieresis" unicode="&#xfc;" horiz-adv-x="1112" 
d="M438 -31q-52 0 -107.5 14.5t-101 52t-75 101.5t-29.5 164v764h256v-719q0 -65 38.5 -104t112.5 -39q62 0 110 38.5t67.5 94t19.5 102.5v627h256v-1065h-237l-7 119q-39 -49 -80 -81.5t-101.5 -50.5t-121.5 -18zM258 1212v203h225v-203h-225zM587 1212v203h226v-203h-226z
" />
    <glyph glyph-name="yacute" unicode="&#xfd;" horiz-adv-x="1024" 
d="M215 -393q-66 0 -98 8v225q27 -6 59 -6q44 0 73.5 14.5t54 47.5t40.5 75l33 84l-367 1010h266l234 -657l250 657h254l-445 -1149q-52 -133 -111.5 -202.5t-122.5 -88t-120 -18.5zM447 1200l110 260h269l-228 -260h-151z" />
    <glyph glyph-name="thorn" unicode="&#xfe;" horiz-adv-x="1116" 
d="M127 -393v1868h256v-510q34 43 75 73t92.5 45t104.5 15q118 0 194 -43.5t118 -128.5q37 -75 48 -172t11 -222q0 -109 -9.5 -191t-31.5 -142q-23 -68 -70.5 -123t-115 -82t-146.5 -27q-77 0 -133.5 22.5t-87 50.5t-49.5 50v-483h-256zM578 188q74 0 117.5 43t56.5 121
q3 20 7.5 72t4.5 108q0 57 -3 111t-11 86q-11 48 -35.5 81.5t-60 48.5t-74.5 15q-61 0 -109.5 -30.5t-68 -80t-19.5 -104.5v-253q0 -75 31 -128t76 -71.5t88 -18.5z" />
    <glyph glyph-name="ydieresis" unicode="&#xff;" horiz-adv-x="1024" 
d="M215 -393q-66 0 -98 8v225q27 -6 59 -6q44 0 73.5 14.5t54 47.5t40.5 75l33 84l-367 1010h266l234 -657l250 657h254l-445 -1149q-52 -133 -111.5 -202.5t-122.5 -88t-120 -18.5zM258 1212v203h225v-203h-225zM587 1212v203h226v-203h-226z" />
    <glyph glyph-name="Amacron" unicode="&#x100;" horiz-adv-x="1214" 
d="M10 0l447 1475h262l485 -1475h-280l-101 340h-458l-95 -340h-260zM430 575h324l-168 564zM279 1565v192h625v-192h-625z" />
    <glyph glyph-name="amacron" unicode="&#x101;" horiz-adv-x="1069" 
d="M426 -31q-91 0 -161 32.5t-115 94.5q-70 91 -70 232q0 63 15.5 112.5t43.5 87.5q53 70 141.5 102t196.5 32h215v71q0 82 -45 116t-119 34q-61 0 -99.5 -15t-57.5 -39t-31 -49l-225 72q41 120 144.5 183t279.5 63q103 0 188 -28.5t137 -90.5q46 -54 63 -112t17 -134v-733
h-237l-7 92q-31 -38 -75.5 -66t-97.5 -42.5t-101 -14.5zM506 193q54 0 102 27t67 61.5t19 66.5v123h-170q-78 0 -120.5 -20.5t-54 -53t-11.5 -63.5q0 -66 37 -103q20 -18 50.5 -28t80.5 -10zM248 1217v192h625v-192h-625z" />
    <glyph glyph-name="Abreve" unicode="&#x102;" horiz-adv-x="1214" 
d="M10 0l447 1475h262l485 -1475h-280l-101 340h-458l-95 -340h-260zM430 575h324l-168 564zM585 1560q-70 0 -122 16t-89.5 46t-60.5 74.5t-35 101.5h193q6 -32 15.5 -52t23.5 -31.5t32.5 -16t42.5 -4.5q38 0 60 11t34.5 36t18.5 57h188q-7 -54 -20.5 -89t-34 -56.5
t-41.5 -36.5q-83 -56 -205 -56z" />
    <glyph glyph-name="abreve" unicode="&#x103;" horiz-adv-x="1069" 
d="M426 -31q-91 0 -161 32.5t-115 94.5q-70 91 -70 232q0 63 15.5 112.5t43.5 87.5q53 70 141.5 102t196.5 32h215v71q0 82 -45 116t-119 34q-61 0 -99.5 -15t-57.5 -39t-31 -49l-225 72q41 120 144.5 183t279.5 63q103 0 188 -28.5t137 -90.5q46 -54 63 -112t17 -134v-733
h-237l-7 92q-31 -38 -75.5 -66t-97.5 -42.5t-101 -14.5zM506 193q54 0 102 27t67 61.5t19 66.5v123h-170q-78 0 -120.5 -20.5t-54 -53t-11.5 -63.5q0 -66 37 -103q20 -18 50.5 -28t80.5 -10zM551 1212q-70 0 -122 16t-89.5 46t-60.5 74.5t-35 101.5h193q6 -32 15.5 -52
t23.5 -31.5t32.5 -16t42.5 -4.5q38 0 60 11t34.5 36t18.5 57h188q-7 -54 -20.5 -89t-34 -56.5t-41.5 -36.5q-83 -56 -205 -56z" />
    <glyph glyph-name="Aogonek" unicode="&#x104;" horiz-adv-x="1214" 
d="M10 0l447 1475h262l485 -1475h-280l-101 340h-458l-95 -340h-260zM430 575h324l-168 564zM1030 -401q-78 0 -136 30.5t-81 77t-23 96.5q0 45 12.5 93t35.5 104h169q-45 -112 -45 -160q0 -39 16.5 -60t38.5 -27.5t42 -6.5q39 0 143 21v-144q-54 -14 -97.5 -19t-74.5 -5z
" />
    <glyph glyph-name="aogonek" unicode="&#x105;" horiz-adv-x="1069" 
d="M426 -31q-91 0 -161 32.5t-115 94.5q-70 91 -70 232q0 63 15.5 112.5t43.5 87.5q53 70 141.5 102t196.5 32h215v71q0 82 -45 116t-119 34q-61 0 -99.5 -15t-57.5 -39t-31 -49l-225 72q41 120 144.5 183t279.5 63q103 0 188 -28.5t137 -90.5q46 -54 63 -112t17 -134v-733
h-237l-7 92q-31 -38 -75.5 -66t-97.5 -42.5t-101 -14.5zM506 193q54 0 102 27t67 61.5t19 66.5v123h-170q-78 0 -120.5 -20.5t-54 -53t-11.5 -63.5q0 -66 37 -103q20 -18 50.5 -28t80.5 -10zM859 -401q-78 0 -136 30.5t-81 77t-23 96.5q0 45 12.5 93t35.5 104h169
q-45 -112 -45 -160q0 -39 16.5 -60t38.5 -27.5t42 -6.5q39 0 143 21v-144q-54 -14 -97.5 -19t-74.5 -5z" />
    <glyph glyph-name="Cacute" unicode="&#x106;" horiz-adv-x="1212" 
d="M653 -33q-112 0 -195.5 31.5t-143.5 86.5t-99.5 129t-62.5 159.5t-32 178.5t-9 185q0 97 8.5 191.5t31.5 180t63.5 158.5t103.5 126.5t152 83.5t210 30q141 0 239.5 -50t151 -133t78.5 -167l-246 -94q-24 89 -57 136t-80.5 66t-101.5 19q-81 0 -133.5 -39.5t-83.5 -111
t-43.5 -172.5t-12.5 -224q0 -269 67 -405.5t204 -136.5q75 0 122.5 29.5t74 87t44.5 124.5l254 -96q-35 -133 -105.5 -218t-175.5 -120t-223 -35zM551 1548l110 260h269l-228 -260h-151z" />
    <glyph glyph-name="cacute" unicode="&#x107;" horiz-adv-x="969" 
d="M543 -33q-90 0 -158 19.5t-117.5 54.5t-82 83t-52.5 105q-25 68 -34 145.5t-9 157.5q0 81 9 157t34 145q21 57 54.5 105.5t83.5 84t118.5 55t159.5 19.5q162 0 263 -78t130 -223l-233 -74q-22 88 -64.5 124t-107.5 36t-102.5 -33.5t-57.5 -89.5q-16 -47 -21.5 -105
t-5.5 -123t4 -112t12 -82t20.5 -59.5t29.5 -42.5q18 -22 48.5 -36t67.5 -14q54 0 89.5 17t57.5 54.5t36 86.5l233 -78q-40 -145 -142 -222t-263 -77zM449 1200l110 260h269l-228 -260h-151z" />
    <glyph glyph-name="Ccircumflex" unicode="&#x108;" horiz-adv-x="1212" 
d="M653 -33q-112 0 -195.5 31.5t-143.5 86.5t-99.5 129t-62.5 159.5t-32 178.5t-9 185q0 97 8.5 191.5t31.5 180t63.5 158.5t103.5 126.5t152 83.5t210 30q141 0 239.5 -50t151 -133t78.5 -167l-246 -94q-24 89 -57 136t-80.5 66t-101.5 19q-81 0 -133.5 -39.5t-83.5 -111
t-43.5 -172.5t-12.5 -224q0 -269 67 -405.5t204 -136.5q75 0 122.5 29.5t74 87t44.5 124.5l254 -96q-35 -133 -105.5 -218t-175.5 -120t-223 -35zM367 1546l225 260h178l218 -260h-226l-82 100l-86 -100h-227z" />
    <glyph glyph-name="ccircumflex" unicode="&#x109;" horiz-adv-x="969" 
d="M543 -33q-90 0 -158 19.5t-117.5 54.5t-82 83t-52.5 105q-25 68 -34 145.5t-9 157.5q0 81 9 157t34 145q21 57 54.5 105.5t83.5 84t118.5 55t159.5 19.5q162 0 263 -78t130 -223l-233 -74q-22 88 -64.5 124t-107.5 36t-102.5 -33.5t-57.5 -89.5q-16 -47 -21.5 -105
t-5.5 -123t4 -112t12 -82t20.5 -59.5t29.5 -42.5q18 -22 48.5 -36t67.5 -14q54 0 89.5 17t57.5 54.5t36 86.5l233 -78q-40 -145 -142 -222t-263 -77zM234 1198l225 260h178l218 -260h-226l-82 100l-86 -100h-227z" />
    <glyph glyph-name="Cdotaccent" unicode="&#x10a;" horiz-adv-x="1212" 
d="M653 -33q-112 0 -195.5 31.5t-143.5 86.5t-99.5 129t-62.5 159.5t-32 178.5t-9 185q0 97 8.5 191.5t31.5 180t63.5 158.5t103.5 126.5t152 83.5t210 30q141 0 239.5 -50t151 -133t78.5 -167l-246 -94q-24 89 -57 136t-80.5 66t-101.5 19q-81 0 -133.5 -39.5t-83.5 -111
t-43.5 -172.5t-12.5 -224q0 -269 67 -405.5t204 -136.5q75 0 122.5 29.5t74 87t44.5 124.5l254 -96q-35 -133 -105.5 -218t-175.5 -120t-223 -35zM554 1562v234h244v-234h-244z" />
    <glyph glyph-name="cdotaccent" unicode="&#x10b;" horiz-adv-x="969" 
d="M543 -33q-90 0 -158 19.5t-117.5 54.5t-82 83t-52.5 105q-25 68 -34 145.5t-9 157.5q0 81 9 157t34 145q21 57 54.5 105.5t83.5 84t118.5 55t159.5 19.5q162 0 263 -78t130 -223l-233 -74q-22 88 -64.5 124t-107.5 36t-102.5 -33.5t-57.5 -89.5q-16 -47 -21.5 -105
t-5.5 -123t4 -112t12 -82t20.5 -59.5t29.5 -42.5q18 -22 48.5 -36t67.5 -14q54 0 89.5 17t57.5 54.5t36 86.5l233 -78q-40 -145 -142 -222t-263 -77zM432 1212v234h244v-234h-244z" />
    <glyph glyph-name="Ccaron" unicode="&#x10c;" horiz-adv-x="1212" 
d="M653 -33q-112 0 -195.5 31.5t-143.5 86.5t-99.5 129t-62.5 159.5t-32 178.5t-9 185q0 97 8.5 191.5t31.5 180t63.5 158.5t103.5 126.5t152 83.5t210 30q141 0 239.5 -50t151 -133t78.5 -167l-246 -94q-24 89 -57 136t-80.5 66t-101.5 19q-81 0 -133.5 -39.5t-83.5 -111
t-43.5 -172.5t-12.5 -224q0 -269 67 -405.5t204 -136.5q75 0 122.5 29.5t74 87t44.5 124.5l254 -96q-35 -133 -105.5 -218t-175.5 -120t-223 -35zM596 1546l-217 260h225l82 -100l86 100h228l-226 -260h-178z" />
    <glyph glyph-name="ccaron" unicode="&#x10d;" horiz-adv-x="969" 
d="M543 -33q-90 0 -158 19.5t-117.5 54.5t-82 83t-52.5 105q-25 68 -34 145.5t-9 157.5q0 81 9 157t34 145q21 57 54.5 105.5t83.5 84t118.5 55t159.5 19.5q162 0 263 -78t130 -223l-233 -74q-22 88 -64.5 124t-107.5 36t-102.5 -33.5t-57.5 -89.5q-16 -47 -21.5 -105
t-5.5 -123t4 -112t12 -82t20.5 -59.5t29.5 -42.5q18 -22 48.5 -36t67.5 -14q54 0 89.5 17t57.5 54.5t36 86.5l233 -78q-40 -145 -142 -222t-263 -77zM453 1198l-217 260h225l82 -100l86 100h228l-226 -260h-178z" />
    <glyph glyph-name="Dcaron" unicode="&#x10e;" horiz-adv-x="1296" 
d="M162 0v1475h360q146 0 243.5 -22t159 -61t105.5 -83q86 -89 121 -222t35 -307q0 -156 -20 -278t-67.5 -214t-111.5 -149q-64 -56 -125.5 -86.5t-133 -41.5t-146.5 -11h-420zM424 233h80q79 0 133.5 10.5t85 28.5t55.5 41q46 42 75.5 111.5t40.5 162t11 193.5
q0 107 -13.5 182t-38 118.5t-50.5 70.5q-37 36 -77.5 55t-100 27t-121.5 8h-80v-1008zM514 1546l-217 260h225l82 -100l86 100h228l-226 -260h-178z" />
    <glyph glyph-name="dcaron" unicode="&#x10f;" horiz-adv-x="1182" 
d="M463 -33q-79 0 -136 23t-96.5 57.5t-63.5 75t-36 76.5q-22 60 -31.5 142t-9.5 191q0 124 11 222t49 172q42 85 117.5 128.5t193.5 43.5q70 0 127.5 -23t92 -55t54.5 -59v514h254v-1475h-237l-7 117q-32 -44 -74.5 -79t-98 -53t-109.5 -18zM539 188q62 0 109 31.5t66 83.5
t19 103v253q0 78 -34.5 129.5t-79.5 68.5t-82 17q-57 0 -95.5 -25t-53.5 -58t-21 -62q-8 -32 -11.5 -86t-3.5 -111q0 -56 4.5 -110t8.5 -70q12 -78 55.5 -121t118.5 -43zM1119 1082v393h232l-53 -393h-179z" />
    <glyph glyph-name="Dcroat" unicode="&#x110;" horiz-adv-x="1296" 
d="M162 0v670h-125v178h125v627h360q146 0 243.5 -22t159 -61t105.5 -83q86 -89 121 -222t35 -307q0 -156 -20 -278t-67.5 -214t-111.5 -149q-64 -56 -125.5 -86.5t-133 -41.5t-146.5 -11h-420zM424 233h80q79 0 133.5 10.5t85 28.5t55.5 41q46 42 75.5 111.5t40.5 162
t11 193.5q0 107 -13.5 182t-38 118.5t-50.5 70.5q-37 36 -77.5 55t-100 27t-121.5 8h-80v-393h207v-178h-207v-437z" />
    <glyph glyph-name="dcroat" unicode="&#x111;" horiz-adv-x="1116" 
d="M463 -33q-79 0 -136 23t-96.5 57.5t-63.5 75t-36 76.5q-22 60 -31.5 142t-9.5 191q0 124 11 222t49 172q42 85 117.5 128.5t193.5 43.5q70 0 127.5 -23t92 -55t54.5 -59v215h-268v172h268v127h254v-127h127v-172h-127v-1176h-237l-7 117q-32 -44 -74.5 -79t-98 -53
t-109.5 -18zM539 188q62 0 109 31.5t66 83.5t19 103v253q0 78 -34.5 129.5t-79.5 68.5t-82 17q-57 0 -95.5 -25t-53.5 -58t-21 -62q-8 -32 -11.5 -86t-3.5 -111q0 -56 4.5 -110t8.5 -70q12 -78 55.5 -121t118.5 -43z" />
    <glyph glyph-name="Emacron" unicode="&#x112;" horiz-adv-x="1090" 
d="M162 0v1475h839v-242h-577v-354h549v-242h-549v-395h594v-242h-856zM264 1565v192h625v-192h-625z" />
    <glyph glyph-name="emacron" unicode="&#x113;" horiz-adv-x="1044" 
d="M545 -33q-155 0 -255.5 54t-150.5 176q-49 117 -49 313q0 170 30.5 288.5t102.5 190.5q54 54 134.5 81.5t195.5 27.5q105 0 176.5 -28t118.5 -73q51 -51 77 -117.5t33 -146t7 -149.5v-131h-619v-35q0 -66 15.5 -110t43.5 -71t67 -38t87 -11q62 0 102 22t60.5 50.5
t28.5 46.5l206 -100q-35 -80 -91 -134t-138.5 -80t-181.5 -26zM348 635h365q0 104 -26.5 163t-69 76t-82.5 17q-41 0 -74.5 -12t-57.5 -41.5t-38.5 -78.5t-16.5 -124zM219 1217v192h625v-192h-625z" />
    <glyph glyph-name="Ebreve" unicode="&#x114;" horiz-adv-x="1090" 
d="M162 0v1475h839v-242h-577v-354h549v-242h-549v-395h594v-242h-856zM592 1560q-70 0 -122 16t-89.5 46t-60.5 74.5t-35 101.5h193q6 -32 15.5 -52t23.5 -31.5t32.5 -16t42.5 -4.5q38 0 60 11t34.5 36t18.5 57h188q-7 -54 -20.5 -89t-34 -56.5t-41.5 -36.5
q-83 -56 -205 -56z" />
    <glyph glyph-name="ebreve" unicode="&#x115;" horiz-adv-x="1044" 
d="M545 -33q-155 0 -255.5 54t-150.5 176q-49 117 -49 313q0 170 30.5 288.5t102.5 190.5q54 54 134.5 81.5t195.5 27.5q105 0 176.5 -28t118.5 -73q51 -51 77 -117.5t33 -146t7 -149.5v-131h-619v-35q0 -66 15.5 -110t43.5 -71t67 -38t87 -11q62 0 102 22t60.5 50.5
t28.5 46.5l206 -100q-35 -80 -91 -134t-138.5 -80t-181.5 -26zM348 635h365q0 104 -26.5 163t-69 76t-82.5 17q-41 0 -74.5 -12t-57.5 -41.5t-38.5 -78.5t-16.5 -124zM535 1212q-70 0 -122 16t-89.5 46t-60.5 74.5t-35 101.5h193q6 -32 15.5 -52t23.5 -31.5t32.5 -16
t42.5 -4.5q38 0 60 11t34.5 36t18.5 57h188q-7 -54 -20.5 -89t-34 -56.5t-41.5 -36.5q-83 -56 -205 -56z" />
    <glyph glyph-name="Edotaccent" unicode="&#x116;" horiz-adv-x="1090" 
d="M162 0v1475h839v-242h-577v-354h549v-242h-549v-395h594v-242h-856zM475 1560v234h244v-234h-244z" />
    <glyph glyph-name="edotaccent" unicode="&#x117;" horiz-adv-x="1044" 
d="M545 -33q-155 0 -255.5 54t-150.5 176q-49 117 -49 313q0 170 30.5 288.5t102.5 190.5q54 54 134.5 81.5t195.5 27.5q105 0 176.5 -28t118.5 -73q51 -51 77 -117.5t33 -146t7 -149.5v-131h-619v-35q0 -66 15.5 -110t43.5 -71t67 -38t87 -11q62 0 102 22t60.5 50.5
t28.5 46.5l206 -100q-35 -80 -91 -134t-138.5 -80t-181.5 -26zM348 635h365q0 104 -26.5 163t-69 76t-82.5 17q-41 0 -74.5 -12t-57.5 -41.5t-38.5 -78.5t-16.5 -124zM428 1212v234h244v-234h-244z" />
    <glyph glyph-name="Eogonek" unicode="&#x118;" horiz-adv-x="1090" 
d="M162 0v1475h839v-242h-577v-354h549v-242h-549v-395h594v-242h-856zM933 -401q-78 0 -136 30.5t-81 77t-23 96.5q0 45 12.5 93t35.5 104h169q-45 -112 -45 -160q0 -39 16.5 -60t38.5 -27.5t42 -6.5q39 0 143 21v-144q-54 -14 -97.5 -19t-74.5 -5z" />
    <glyph glyph-name="eogonek" unicode="&#x119;" horiz-adv-x="1044" 
d="M545 -33q-155 0 -255.5 54t-150.5 176q-49 117 -49 313q0 170 30.5 288.5t102.5 190.5q54 54 134.5 81.5t195.5 27.5q105 0 176.5 -28t118.5 -73q51 -51 77 -117.5t33 -146t7 -149.5v-131h-619v-35q0 -66 15.5 -110t43.5 -71t67 -38t87 -11q62 0 102 22t60.5 50.5
t28.5 46.5l206 -100q-35 -80 -91 -134t-138.5 -80t-181.5 -26zM348 635h365q0 104 -26.5 163t-69 76t-82.5 17q-41 0 -74.5 -12t-57.5 -41.5t-38.5 -78.5t-16.5 -124zM605 -401q-78 0 -136 30.5t-81 77t-23 96.5q0 45 12.5 93t35.5 104h169q-45 -112 -45 -160
q0 -39 16.5 -60t38.5 -27.5t42 -6.5q39 0 143 21v-144q-54 -14 -97.5 -19t-74.5 -5z" />
    <glyph glyph-name="Ecaron" unicode="&#x11a;" horiz-adv-x="1090" 
d="M162 0v1475h839v-242h-577v-354h549v-242h-549v-395h594v-242h-856zM504 1546l-217 260h225l82 -100l86 100h228l-226 -260h-178z" />
    <glyph glyph-name="ecaron" unicode="&#x11b;" horiz-adv-x="1044" 
d="M545 -33q-155 0 -255.5 54t-150.5 176q-49 117 -49 313q0 170 30.5 288.5t102.5 190.5q54 54 134.5 81.5t195.5 27.5q105 0 176.5 -28t118.5 -73q51 -51 77 -117.5t33 -146t7 -149.5v-131h-619v-35q0 -66 15.5 -110t43.5 -71t67 -38t87 -11q62 0 102 22t60.5 50.5
t28.5 46.5l206 -100q-35 -80 -91 -134t-138.5 -80t-181.5 -26zM348 635h365q0 104 -26.5 163t-69 76t-82.5 17q-41 0 -74.5 -12t-57.5 -41.5t-38.5 -78.5t-16.5 -124zM461 1198l-217 260h225l82 -100l86 100h228l-226 -260h-178z" />
    <glyph glyph-name="Gcircumflex" unicode="&#x11c;" horiz-adv-x="1264" 
d="M616 -33q-185 0 -297 94.5t-161 270.5q-25 85 -36 186t-11 219q0 107 10.5 214.5t44.5 203.5q40 120 114.5 202t180 116t219.5 34q192 0 307.5 -85.5t169.5 -266.5l-256 -84q-6 39 -24.5 80t-42.5 68q-35 35 -76 49t-90 14q-62 0 -100.5 -16t-67.5 -45
q-44 -43 -70.5 -126.5t-32.5 -176t-6 -177.5q0 -180 22 -302.5t85 -184.5q31 -29 72.5 -46.5t97.5 -17.5q81 0 134.5 30t76 89.5t22.5 130.5v86h-252v228h508v-756h-215l-14 115q-47 -51 -95.5 -83t-102.5 -47.5t-114 -15.5zM361 1546l225 260h178l218 -260h-226l-82 100
l-86 -100h-227z" />
    <glyph glyph-name="gcircumflex" unicode="&#x11d;" horiz-adv-x="1116" 
d="M553 -434q-173 0 -282.5 55t-151.5 152l227 86q25 -32 54.5 -52.5t66.5 -29t80 -8.5q113 0 158 57q20 26 24 64t4 87v146q-36 -40 -75.5 -68t-90 -41.5t-104.5 -13.5q-79 0 -136 20.5t-96.5 52.5t-63.5 70.5t-36 73.5q-22 60 -31.5 142.5t-9.5 191.5q0 92 6 167t20 122.5
t34 85.5q42 85 117.5 128.5t193.5 43.5q72 0 129.5 -23.5t96 -60t58.5 -66.5l7 117h237v-1112q0 -69 -8.5 -121t-29.5 -92t-48 -68q-54 -55 -144 -80.5t-206 -25.5zM539 221q62 0 108.5 31.5t66 83t19.5 102.5v221q0 78 -34.5 129.5t-79.5 68.5t-82 17q-57 0 -95.5 -25
t-53.5 -58t-21 -62q-15 -60 -15 -178q0 -54 4.5 -107t12.5 -90q14 -66 54.5 -99.5t115.5 -33.5zM297 1198l225 260h178l218 -260h-226l-82 100l-86 -100h-227z" />
    <glyph glyph-name="Gbreve" unicode="&#x11e;" horiz-adv-x="1264" 
d="M616 -33q-185 0 -297 94.5t-161 270.5q-25 85 -36 186t-11 219q0 107 10.5 214.5t44.5 203.5q40 120 114.5 202t180 116t219.5 34q192 0 307.5 -85.5t169.5 -266.5l-256 -84q-6 39 -24.5 80t-42.5 68q-35 35 -76 49t-90 14q-62 0 -100.5 -16t-67.5 -45
q-44 -43 -70.5 -126.5t-32.5 -176t-6 -177.5q0 -180 22 -302.5t85 -184.5q31 -29 72.5 -46.5t97.5 -17.5q81 0 134.5 30t76 89.5t22.5 130.5v86h-252v228h508v-756h-215l-14 115q-47 -51 -95.5 -83t-102.5 -47.5t-114 -15.5zM684 1560q-70 0 -122 16t-89.5 46t-60.5 74.5
t-35 101.5h193q6 -32 15.5 -52t23.5 -31.5t32.5 -16t42.5 -4.5q38 0 60 11t34.5 36t18.5 57h188q-7 -54 -20.5 -89t-34 -56.5t-41.5 -36.5q-83 -56 -205 -56z" />
    <glyph glyph-name="gbreve" unicode="&#x11f;" horiz-adv-x="1116" 
d="M553 -434q-173 0 -282.5 55t-151.5 152l227 86q25 -32 54.5 -52.5t66.5 -29t80 -8.5q113 0 158 57q20 26 24 64t4 87v146q-36 -40 -75.5 -68t-90 -41.5t-104.5 -13.5q-79 0 -136 20.5t-96.5 52.5t-63.5 70.5t-36 73.5q-22 60 -31.5 142.5t-9.5 191.5q0 92 6 167t20 122.5
t34 85.5q42 85 117.5 128.5t193.5 43.5q72 0 129.5 -23.5t96 -60t58.5 -66.5l7 117h237v-1112q0 -69 -8.5 -121t-29.5 -92t-48 -68q-54 -55 -144 -80.5t-206 -25.5zM539 221q62 0 108.5 31.5t66 83t19.5 102.5v221q0 78 -34.5 129.5t-79.5 68.5t-82 17q-57 0 -95.5 -25
t-53.5 -58t-21 -62q-15 -60 -15 -178q0 -54 4.5 -107t12.5 -90q14 -66 54.5 -99.5t115.5 -33.5zM579 1212q-70 0 -122 16t-89.5 46t-60.5 74.5t-35 101.5h193q6 -32 15.5 -52t23.5 -31.5t32.5 -16t42.5 -4.5q38 0 60 11t34.5 36t18.5 57h188q-7 -54 -20.5 -89t-34 -56.5
t-41.5 -36.5q-83 -56 -205 -56z" />
    <glyph glyph-name="Gdotaccent" unicode="&#x120;" horiz-adv-x="1264" 
d="M616 -33q-185 0 -297 94.5t-161 270.5q-25 85 -36 186t-11 219q0 107 10.5 214.5t44.5 203.5q40 120 114.5 202t180 116t219.5 34q192 0 307.5 -85.5t169.5 -266.5l-256 -84q-6 39 -24.5 80t-42.5 68q-35 35 -76 49t-90 14q-62 0 -100.5 -16t-67.5 -45
q-44 -43 -70.5 -126.5t-32.5 -176t-6 -177.5q0 -180 22 -302.5t85 -184.5q31 -29 72.5 -46.5t97.5 -17.5q81 0 134.5 30t76 89.5t22.5 130.5v86h-252v228h508v-756h-215l-14 115q-47 -51 -95.5 -83t-102.5 -47.5t-114 -15.5zM560 1560v234h244v-234h-244z" />
    <glyph glyph-name="gdotaccent" unicode="&#x121;" horiz-adv-x="1116" 
d="M553 -434q-173 0 -282.5 55t-151.5 152l227 86q25 -32 54.5 -52.5t66.5 -29t80 -8.5q113 0 158 57q20 26 24 64t4 87v146q-36 -40 -75.5 -68t-90 -41.5t-104.5 -13.5q-79 0 -136 20.5t-96.5 52.5t-63.5 70.5t-36 73.5q-22 60 -31.5 142.5t-9.5 191.5q0 92 6 167t20 122.5
t34 85.5q42 85 117.5 128.5t193.5 43.5q72 0 129.5 -23.5t96 -60t58.5 -66.5l7 117h237v-1112q0 -69 -8.5 -121t-29.5 -92t-48 -68q-54 -55 -144 -80.5t-206 -25.5zM539 221q62 0 108.5 31.5t66 83t19.5 102.5v221q0 78 -34.5 129.5t-79.5 68.5t-82 17q-57 0 -95.5 -25
t-53.5 -58t-21 -62q-15 -60 -15 -178q0 -54 4.5 -107t12.5 -90q14 -66 54.5 -99.5t115.5 -33.5zM487 1212v234h244v-234h-244z" />
    <glyph glyph-name="Gcommaaccent" unicode="&#x122;" horiz-adv-x="1264" 
d="M616 -33q-185 0 -297 94.5t-161 270.5q-25 85 -36 186t-11 219q0 107 10.5 214.5t44.5 203.5q40 120 114.5 202t180 116t219.5 34q192 0 307.5 -85.5t169.5 -266.5l-256 -84q-6 39 -24.5 80t-42.5 68q-35 35 -76 49t-90 14q-62 0 -100.5 -16t-67.5 -45
q-44 -43 -70.5 -126.5t-32.5 -176t-6 -177.5q0 -180 22 -302.5t85 -184.5q31 -29 72.5 -46.5t97.5 -17.5q81 0 134.5 30t76 89.5t22.5 130.5v86h-252v228h508v-756h-215l-14 115q-47 -51 -95.5 -83t-102.5 -47.5t-114 -15.5zM531 -423q-28 0 -74 6l7 123q5 0 21.5 -1
t38.5 -1q55 0 91 10q23 6 38 16t15 27q0 10 -16 21t-54 15.5t-98 4.5l45 129q59 0 118.5 -8t106.5 -28t73 -56.5t26 -83.5q0 -44 -24.5 -77t-69.5 -54q-89 -43 -244 -43z" />
    <glyph glyph-name="gcommaaccent" unicode="&#x123;" horiz-adv-x="1116" 
d="M553 -434q-173 0 -282.5 55t-151.5 152l227 86q25 -32 54.5 -52.5t66.5 -29t80 -8.5q113 0 158 57q20 26 24 64t4 87v146q-36 -40 -75.5 -68t-90 -41.5t-104.5 -13.5q-79 0 -136 20.5t-96.5 52.5t-63.5 70.5t-36 73.5q-22 60 -31.5 142.5t-9.5 191.5q0 92 6 167t20 122.5
t34 85.5q42 85 117.5 128.5t193.5 43.5q72 0 129.5 -23.5t96 -60t58.5 -66.5l7 117h237v-1112q0 -69 -8.5 -121t-29.5 -92t-48 -68q-54 -55 -144 -80.5t-206 -25.5zM539 221q62 0 108.5 31.5t66 83t19.5 102.5v221q0 78 -34.5 129.5t-79.5 68.5t-82 17q-57 0 -95.5 -25
t-53.5 -58t-21 -62q-15 -60 -15 -178q0 -54 4.5 -107t12.5 -90q14 -66 54.5 -99.5t115.5 -33.5zM682 1194q-26 0 -60 2t-70 8t-71 17.5t-62 31t-44 48t-17 69.5q0 43 25 76.5t70 54.5q45 22 105.5 32.5t137.5 10.5q28 0 74 -6l-6 -123q-5 0 -21.5 0.5t-38.5 0.5
q-55 0 -92 -9q-23 -6 -38 -16t-15 -27q0 -5 3.5 -11.5t20 -13.5t50.5 -11.5t94 -4.5z" />
    <glyph glyph-name="Hcircumflex" unicode="&#x124;" horiz-adv-x="1341" 
d="M162 0v1475h262v-555h494v555h262v-1475h-262v676h-494v-676h-262zM360 1546l225 260h178l218 -260h-226l-82 100l-86 -100h-227z" />
    <glyph glyph-name="hcircumflex" unicode="&#x125;" horiz-adv-x="1124" 
d="M127 0v1475h256v-523q36 45 80.5 79.5t102 50.5t118.5 16q92 0 166.5 -38t111.5 -116t37 -178v-766h-256v721q0 65 -39.5 104t-113.5 39q-66 0 -116 -39.5t-70.5 -94t-20.5 -101.5v-629h-256zM128 1546l225 260h178l218 -260h-226l-82 100l-86 -100h-227z" />
    <glyph glyph-name="Hbar" unicode="&#x126;" horiz-adv-x="1341" 
d="M162 0v1121h-142v192h142v162h262v-162h494v162h262v-162h141v-192h-141v-1121h-262v676h-494v-676h-262zM918 920v201h-494v-201h494z" />
    <glyph glyph-name="hbar" unicode="&#x127;" horiz-adv-x="1124" 
d="M127 0v1176h-126v172h126v127h256v-127h297v-172h-297v-224q36 45 80.5 79.5t102 50.5t118.5 16q92 0 166.5 -38t111.5 -116t37 -178v-766h-256v721q0 65 -39.5 104t-113.5 39q-66 0 -116 -39.5t-70.5 -94t-20.5 -101.5v-629h-256z" />
    <glyph glyph-name="Itilde" unicode="&#x128;" horiz-adv-x="586" 
d="M162 0v1475h262v-1475h-262zM5 1542v47q0 85 25 132.5t61.5 61t73.5 13.5q51 0 133 -31q72 -35 90 -35q23 0 35.5 14.5t20.5 59.5h141v-47q0 -59 -11.5 -98t-33.5 -64t-51 -35t-64 -10q-37 0 -68 9t-59 20q-82 37 -96 37q-18 0 -29 -8t-16.5 -24.5t-9.5 -41.5h-142z" />
    <glyph glyph-name="itilde" unicode="&#x129;" horiz-adv-x="510" 
d="M127 0v1065h256v-1065h-256zM-33 1194v47q0 85 25 132.5t61.5 61t73.5 13.5q51 0 133 -31q72 -35 90 -35q23 0 35.5 14.5t20.5 59.5h141v-47q0 -59 -11.5 -98t-33.5 -64t-51 -35t-64 -10q-37 0 -68 9t-59 20q-82 37 -96 37q-18 0 -29 -8t-16.5 -24.5t-9.5 -41.5h-142z
" />
    <glyph glyph-name="Imacron" unicode="&#x12a;" horiz-adv-x="586" 
d="M162 0v1475h262v-1475h-262zM-21 1565v192h625v-192h-625z" />
    <glyph glyph-name="imacron" unicode="&#x12b;" horiz-adv-x="510" 
d="M127 0v1065h256v-1065h-256zM-54 1217v192h625v-192h-625z" />
    <glyph glyph-name="Ibreve" unicode="&#x12c;" horiz-adv-x="586" 
d="M162 0v1475h262v-1475h-262zM298 1560q-70 0 -122 16t-89.5 46t-60.5 74.5t-35 101.5h193q6 -32 15.5 -52t23.5 -31.5t32.5 -16t42.5 -4.5q38 0 60 11t34.5 36t18.5 57h188q-7 -54 -20.5 -89t-34 -56.5t-41.5 -36.5q-83 -56 -205 -56z" />
    <glyph glyph-name="ibreve" unicode="&#x12d;" horiz-adv-x="510" 
d="M127 0v1065h256v-1065h-256zM260 1212q-70 0 -122 16t-89.5 46t-60.5 74.5t-35 101.5h193q6 -32 15.5 -52t23.5 -31.5t32.5 -16t42.5 -4.5q38 0 60 11t34.5 36t18.5 57h188q-7 -54 -20.5 -89t-34 -56.5t-41.5 -36.5q-83 -56 -205 -56z" />
    <glyph glyph-name="Iogonek" unicode="&#x12e;" horiz-adv-x="586" 
d="M162 0v1475h262v-1475h-262zM340 -401q-78 0 -136 30.5t-81 77t-23 96.5q0 45 12.5 93t35.5 104h169q-45 -112 -45 -160q0 -39 16.5 -60t38.5 -27.5t42 -6.5q39 0 143 21v-144q-54 -14 -97.5 -19t-74.5 -5z" />
    <glyph glyph-name="iogonek" unicode="&#x12f;" horiz-adv-x="510" 
d="M127 0v1065h256v-1065h-256zM127 1235v240h256v-240h-256zM291 -401q-78 0 -136 30.5t-81 77t-23 96.5q0 45 12.5 93t35.5 104h169q-45 -112 -45 -160q0 -39 16.5 -60t38.5 -27.5t42 -6.5q39 0 143 21v-144q-54 -14 -97.5 -19t-74.5 -5z" />
    <glyph glyph-name="Idotaccent" unicode="&#x130;" horiz-adv-x="586" 
d="M162 0v1475h262v-1475h-262zM175 1560v234h244v-234h-244z" />
    <glyph glyph-name="dotlessi" unicode="&#x131;" horiz-adv-x="510" 
d="M127 0v1065h256v-1065h-256z" />
    <glyph glyph-name="IJ" unicode="&#x132;" horiz-adv-x="1667" 
d="M162 0v1475h262v-1475h-262zM1080 -33q-119 0 -205.5 31t-145.5 90q-40 40 -70 92t-42 117l243 90q16 -79 51.5 -125.5t76.5 -57.5t77 -11q45 0 77.5 10t55.5 30q37 32 50.5 93t13.5 159v990h262v-926q0 -146 -8 -227.5t-36.5 -143.5t-70.5 -102q-59 -56 -143 -82.5
t-186 -26.5z" />
    <glyph glyph-name="ij" unicode="&#x133;" horiz-adv-x="1028" 
d="M127 0v1065h256v-1065h-256zM127 1235v240h256v-240h-256zM553 -393q-52 0 -106 4v213h26q86 0 122.5 21t43 60.5t6.5 84.5v1075h256v-1098q0 -88 -16.5 -155t-65.5 -113q-46 -43 -112 -67.5t-154 -24.5zM645 1233v242h256v-242h-256z" />
    <glyph glyph-name="Jcircumflex" unicode="&#x134;" horiz-adv-x="1081" 
d="M494 -33q-119 0 -205.5 31t-145.5 90q-40 40 -70 92t-42 117l243 90q16 -79 51.5 -125.5t76.5 -57.5t77 -11q45 0 77.5 10t55.5 30q37 32 50.5 93t13.5 159v990h262v-926q0 -146 -8 -227.5t-36.5 -143.5t-70.5 -102q-59 -56 -143 -82.5t-186 -26.5zM500 1546l225 260h178
l218 -260h-226l-82 100l-86 -100h-227z" />
    <glyph glyph-name="jcircumflex" unicode="&#x135;" horiz-adv-x="518" 
d="M43 -393q-52 0 -106 4v213h26q86 0 122.5 21t43 60.5t6.5 84.5v1075h256v-1098q0 -88 -16.5 -155t-65.5 -113q-46 -43 -112 -67.5t-154 -24.5zM-47 1198l225 260h178l218 -260h-226l-82 100l-86 -100h-227z" />
    <glyph glyph-name="Kcommaaccent" unicode="&#x136;" horiz-adv-x="1260" 
d="M162 0v1475h262v-621l496 621h301l-480 -582l508 -893h-309l-371 682l-145 -176v-506h-262zM522 -423q-28 0 -74 6l7 123q5 0 21.5 -1t38.5 -1q55 0 91 10q23 6 38 16t15 27q0 10 -16 21t-54 15.5t-98 4.5l45 129q59 0 118.5 -8t106.5 -28t73 -56.5t26 -83.5
q0 -44 -24.5 -77t-69.5 -54q-89 -43 -244 -43z" />
    <glyph glyph-name="kcommaaccent" unicode="&#x137;" horiz-adv-x="1065" 
d="M127 0v1475h256v-754l336 344h309l-334 -334l361 -731h-287l-258 547l-127 -127v-420h-256zM430 -423q-28 0 -74 6l7 123q5 0 21.5 -1t38.5 -1q55 0 91 10q23 6 38 16t15 27q0 10 -16 21t-54 15.5t-98 4.5l45 129q59 0 118.5 -8t106.5 -28t73 -56.5t26 -83.5
q0 -44 -24.5 -77t-69.5 -54q-89 -43 -244 -43z" />
    <glyph glyph-name="kgreenlandic" unicode="&#x138;" horiz-adv-x="1065" 
d="M383 370v-370h-256v1065h256v-389l336 389h309l-326 -351l353 -714h-287l-246 520z" />
    <glyph glyph-name="Lacute" unicode="&#x139;" horiz-adv-x="1026" 
d="M162 0v1475h262v-1233h575v-242h-837zM168 1548l110 260h269l-228 -260h-151z" />
    <glyph glyph-name="lacute" unicode="&#x13a;" horiz-adv-x="510" 
d="M127 0v1475h256v-1475h-256zM136 1548l110 260h269l-228 -260h-151z" />
    <glyph glyph-name="Lcommaaccent" unicode="&#x13b;" horiz-adv-x="1026" 
d="M162 0v1475h262v-1233h575v-242h-837zM442 -423q-28 0 -74 6l7 123q5 0 21.5 -1t38.5 -1q55 0 91 10q23 6 38 16t15 27q0 10 -16 21t-54 15.5t-98 4.5l45 129q59 0 118.5 -8t106.5 -28t73 -56.5t26 -83.5q0 -44 -24.5 -77t-69.5 -54q-89 -43 -244 -43z" />
    <glyph glyph-name="lcommaaccent" unicode="&#x13c;" horiz-adv-x="510" 
d="M127 0v1475h256v-1475h-256zM130 -423q-28 0 -74 6l7 123q5 0 21.5 -1t38.5 -1q55 0 91 10q23 6 38 16t15 27q0 10 -16 21t-54 15.5t-98 4.5l45 129q59 0 118.5 -8t106.5 -28t73 -56.5t26 -83.5q0 -44 -24.5 -77t-69.5 -54q-89 -43 -244 -43z" />
    <glyph glyph-name="Lcaron" unicode="&#x13d;" horiz-adv-x="1026" 
d="M162 0v1475h262v-1233h575v-242h-837zM594 1082v393h232l-53 -393h-179z" />
    <glyph glyph-name="lcaron" unicode="&#x13e;" horiz-adv-x="571" 
d="M127 0v1475h256v-1475h-256zM513 1082v393h232l-53 -393h-179z" />
    <glyph glyph-name="Ldot" unicode="&#x13f;" horiz-adv-x="1026" 
d="M162 0v1475h262v-1233h575v-242h-837zM668 718v276h276v-276h-276z" />
    <glyph glyph-name="ldot" unicode="&#x140;" horiz-adv-x="919" 
d="M127 0v1475h256v-1475h-256zM573 622v276h276v-276h-276z" />
    <glyph glyph-name="Lslash" unicode="&#x141;" horiz-adv-x="1026" 
d="M7 750l155 64v661h262v-571l400 167v-226l-400 -167v-436h575v-242h-837v588l-155 -64v226z" />
    <glyph glyph-name="lslash" unicode="&#x142;" horiz-adv-x="510" 
d="M0 760l127 65v650h256v-538l127 66v-235l-127 -66v-702h-256v590l-127 -65v235z" />
    <glyph glyph-name="Nacute" unicode="&#x143;" horiz-adv-x="1327" 
d="M162 0v1475h274l475 -988v988h254v-1475h-262l-487 1006v-1006h-254zM570 1548l110 260h269l-228 -260h-151z" />
    <glyph glyph-name="nacute" unicode="&#x144;" horiz-adv-x="1104" 
d="M127 0v1065h238l6 -119q42 52 84 85t99.5 50t119.5 17q52 0 106 -14.5t98.5 -52t72.5 -101.5t28 -164v-766h-256v721q0 65 -34.5 104t-108.5 39q-44 0 -80 -19t-62 -51.5t-40.5 -75t-14.5 -89.5v-629h-256zM463 1200l110 260h269l-228 -260h-151z" />
    <glyph glyph-name="Ncommaaccent" unicode="&#x145;" horiz-adv-x="1327" 
d="M162 0v1475h274l475 -988v988h254v-1475h-262l-487 1006v-1006h-254zM536 -423q-28 0 -74 6l7 123q5 0 21.5 -1t38.5 -1q55 0 91 10q23 6 38 16t15 27q0 10 -16 21t-54 15.5t-98 4.5l45 129q59 0 118.5 -8t106.5 -28t73 -56.5t26 -83.5q0 -44 -24.5 -77t-69.5 -54
q-89 -43 -244 -43z" />
    <glyph glyph-name="ncommaaccent" unicode="&#x146;" horiz-adv-x="1104" 
d="M127 0v1065h238l6 -119q42 52 84 85t99.5 50t119.5 17q52 0 106 -14.5t98.5 -52t72.5 -101.5t28 -164v-766h-256v721q0 65 -34.5 104t-108.5 39q-44 0 -80 -19t-62 -51.5t-40.5 -75t-14.5 -89.5v-629h-256zM418 -423q-28 0 -74 6l7 123q5 0 21.5 -1t38.5 -1q55 0 91 10
q23 6 38 16t15 27q0 10 -16 21t-54 15.5t-98 4.5l45 129q59 0 118.5 -8t106.5 -28t73 -56.5t26 -83.5q0 -44 -24.5 -77t-69.5 -54q-89 -43 -244 -43z" />
    <glyph glyph-name="Ncaron" unicode="&#x147;" horiz-adv-x="1327" 
d="M162 0v1475h274l475 -988v988h254v-1475h-262l-487 1006v-1006h-254zM571 1546l-217 260h225l82 -100l86 100h228l-226 -260h-178z" />
    <glyph glyph-name="ncaron" unicode="&#x148;" horiz-adv-x="1104" 
d="M127 0v1065h238l6 -119q42 52 84 85t99.5 50t119.5 17q52 0 106 -14.5t98.5 -52t72.5 -101.5t28 -164v-766h-256v721q0 65 -34.5 104t-108.5 39q-44 0 -80 -19t-62 -51.5t-40.5 -75t-14.5 -89.5v-629h-256zM471 1198l-217 260h225l82 -100l86 100h228l-226 -260h-178z
" />
    <glyph glyph-name="napostrophe" unicode="&#x149;" horiz-adv-x="1320" 
d="M343 0v1065h238l6 -119q42 52 84 85t99.5 50t119.5 17q52 0 106 -14.5t98.5 -52t72.5 -101.5t28 -164v-766h-256v721q0 65 -34.5 104t-108.5 39q-44 0 -80 -19t-62 -51.5t-40.5 -75t-14.5 -89.5v-629h-256zM2 952v127q35 5 56 15q27 13 39.5 35.5t12.5 65.5v20h-92v260
h245v-252q0 -89 -25 -143.5t-71 -83.5q-32 -20 -73.5 -30t-91.5 -14z" />
    <glyph glyph-name="Eng" unicode="&#x14a;" horiz-adv-x="1327" 
d="M416 1006v-1006h-254v1475h274l475 -988v988h254l1 -1508q0 -88 -16.5 -155t-65.5 -113q-46 -43 -112 -67.5t-154 -24.5q-52 0 -106 4v213h26q86 0 122.5 21t43 60t6.5 85v10z" />
    <glyph glyph-name="eng" unicode="&#x14b;" horiz-adv-x="1104" 
d="M723 -10v731q0 65 -34.5 104t-108.5 39q-44 0 -80 -19t-62 -51.5t-40.5 -75t-14.5 -89.5v-629h-256v1065h238l6 -119q42 52 84 85t99.5 50t119.5 17q52 0 106 -14.5t98.5 -52t72.5 -101.5t28 -164v-799q0 -88 -16.5 -155t-65.5 -113q-46 -43 -112 -67.5t-154 -24.5
q-52 0 -106 4v213h26q86 0 122.5 21t43 60.5t6.5 84.5z" />
    <glyph glyph-name="Omacron" unicode="&#x14c;" horiz-adv-x="1356" 
d="M678 -33q-112 0 -197 26t-147 73t-103.5 112.5t-66.5 143.5q-31 92 -42 197.5t-11 217.5q0 113 11 218t42 198q25 78 66.5 143.5t103.5 112t147 72.5t197 26q160 0 271 -55t163.5 -138t79.5 -161q31 -93 42 -198t11 -218q0 -112 -11 -217.5t-42 -197.5
q-26 -78 -67 -143.5t-103 -112.5t-147 -73t-197 -26zM678 188q68 0 115.5 20t78 60t50.5 90q23 60 33 148.5t10 230.5q0 137 -10 225.5t-33 149.5q-28 71 -68.5 110t-87 49.5t-88.5 10.5q-69 0 -120 -21t-80 -60.5t-46 -88.5q-28 -70 -35.5 -157.5t-7.5 -217.5
q0 -99 4.5 -179.5t15 -124t23.5 -75.5q25 -70 66.5 -110t88.5 -50t91 -10zM371 1565v192h625v-192h-625z" />
    <glyph glyph-name="omacron" unicode="&#x14d;" horiz-adv-x="1090" 
d="M547 -33q-88 0 -155.5 19t-118 53t-85 82t-55.5 106q-23 66 -33 143t-10 162t10 161.5t33 142.5q32 91 95.5 153t146.5 85.5t172 23.5q126 0 213 -40t131 -102t65 -120q23 -66 33 -143t10 -161q0 -85 -10 -162t-33 -143q-33 -91 -95.5 -152t-144.5 -84.5t-169 -23.5z
M547 186q75 0 117 39t58.5 122.5t16.5 184.5q0 78 -7 134t-21 96q-23 66 -64 91.5t-100 25.5q-60 0 -102.5 -25t-65.5 -90q-14 -40 -21.5 -97t-7.5 -135q0 -77 7.5 -133t21.5 -96q23 -65 65.5 -91t102.5 -26zM232 1217v192h625v-192h-625z" />
    <glyph glyph-name="Obreve" unicode="&#x14e;" horiz-adv-x="1356" 
d="M678 -33q-112 0 -197 26t-147 73t-103.5 112.5t-66.5 143.5q-31 92 -42 197.5t-11 217.5q0 113 11 218t42 198q25 78 66.5 143.5t103.5 112t147 72.5t197 26q160 0 271 -55t163.5 -138t79.5 -161q31 -93 42 -198t11 -218q0 -112 -11 -217.5t-42 -197.5
q-26 -78 -67 -143.5t-103 -112.5t-147 -73t-197 -26zM678 188q68 0 115.5 20t78 60t50.5 90q23 60 33 148.5t10 230.5q0 137 -10 225.5t-33 149.5q-28 71 -68.5 110t-87 49.5t-88.5 10.5q-69 0 -120 -21t-80 -60.5t-46 -88.5q-28 -70 -35.5 -157.5t-7.5 -217.5
q0 -99 4.5 -179.5t15 -124t23.5 -75.5q25 -70 66.5 -110t88.5 -50t91 -10zM681 1560q-70 0 -122 16t-89.5 46t-60.5 74.5t-35 101.5h193q6 -32 15.5 -52t23.5 -31.5t32.5 -16t42.5 -4.5q38 0 60 11t34.5 36t18.5 57h188q-7 -54 -20.5 -89t-34 -56.5t-41.5 -36.5
q-83 -56 -205 -56z" />
    <glyph glyph-name="obreve" unicode="&#x14f;" horiz-adv-x="1090" 
d="M547 -33q-88 0 -155.5 19t-118 53t-85 82t-55.5 106q-23 66 -33 143t-10 162t10 161.5t33 142.5q32 91 95.5 153t146.5 85.5t172 23.5q126 0 213 -40t131 -102t65 -120q23 -66 33 -143t10 -161q0 -85 -10 -162t-33 -143q-33 -91 -95.5 -152t-144.5 -84.5t-169 -23.5z
M547 186q75 0 117 39t58.5 122.5t16.5 184.5q0 78 -7 134t-21 96q-23 66 -64 91.5t-100 25.5q-60 0 -102.5 -25t-65.5 -90q-14 -40 -21.5 -97t-7.5 -135q0 -77 7.5 -133t21.5 -96q23 -65 65.5 -91t102.5 -26zM548 1212q-70 0 -122 16t-89.5 46t-60.5 74.5t-35 101.5h193
q6 -32 15.5 -52t23.5 -31.5t32.5 -16t42.5 -4.5q38 0 60 11t34.5 36t18.5 57h188q-7 -54 -20.5 -89t-34 -56.5t-41.5 -36.5q-83 -56 -205 -56z" />
    <glyph glyph-name="Ohungarumlaut" unicode="&#x150;" horiz-adv-x="1356" 
d="M678 -33q-112 0 -197 26t-147 73t-103.5 112.5t-66.5 143.5q-31 92 -42 197.5t-11 217.5q0 113 11 218t42 198q25 78 66.5 143.5t103.5 112t147 72.5t197 26q160 0 271 -55t163.5 -138t79.5 -161q31 -93 42 -198t11 -218q0 -112 -11 -217.5t-42 -197.5
q-26 -78 -67 -143.5t-103 -112.5t-147 -73t-197 -26zM678 188q68 0 115.5 20t78 60t50.5 90q23 60 33 148.5t10 230.5q0 137 -10 225.5t-33 149.5q-28 71 -68.5 110t-87 49.5t-88.5 10.5q-69 0 -120 -21t-80 -60.5t-46 -88.5q-28 -70 -35.5 -157.5t-7.5 -217.5
q0 -99 4.5 -179.5t15 -124t23.5 -75.5q25 -70 66.5 -110t88.5 -50t91 -10zM426 1548l111 260h248l-205 -260h-154zM754 1548l110 260h248l-207 -260h-151z" />
    <glyph glyph-name="ohungarumlaut" unicode="&#x151;" horiz-adv-x="1090" 
d="M547 -33q-88 0 -155.5 19t-118 53t-85 82t-55.5 106q-23 66 -33 143t-10 162t10 161.5t33 142.5q32 91 95.5 153t146.5 85.5t172 23.5q126 0 213 -40t131 -102t65 -120q23 -66 33 -143t10 -161q0 -85 -10 -162t-33 -143q-33 -91 -95.5 -152t-144.5 -84.5t-169 -23.5z
M547 186q75 0 117 39t58.5 122.5t16.5 184.5q0 78 -7 134t-21 96q-23 66 -64 91.5t-100 25.5q-60 0 -102.5 -25t-65.5 -90q-14 -40 -21.5 -97t-7.5 -135q0 -77 7.5 -133t21.5 -96q23 -65 65.5 -91t102.5 -26zM295 1200l111 260h248l-205 -260h-154zM623 1200l110 260h248
l-207 -260h-151z" />
    <glyph glyph-name="OE" unicode="&#x152;" horiz-adv-x="1825" 
d="M631 -23q-103 0 -190.5 28.5t-149.5 90.5q-57 56 -92.5 127.5t-55 154t-26 173.5t-6.5 186q0 149 15.5 272t56 212t96.5 145q63 65 142.5 98t184.5 33q121 0 192 -23.5t109 -66.5v70h830v-228h-574v-379h545v-225h-545v-420h590v-227h-844v70q-50 -37 -91 -55.5
t-87.5 -27t-99.5 -8.5zM686 201q59 0 105.5 20t87.5 55q6 6 30 33v856q-18 25 -39 45q-37 32 -84.5 49t-101.5 17q-66 0 -114.5 -21.5t-80.5 -56.5q-38 -42 -58.5 -99.5t-29.5 -120.5t-10.5 -126t-1.5 -115q0 -55 1.5 -121.5t12 -132t34.5 -124t69 -97.5q32 -29 76 -45
t104 -16z" />
    <glyph glyph-name="oe" unicode="&#x153;" horiz-adv-x="1688" 
d="M547 -33q-88 0 -155.5 19t-118 53t-85 82t-55.5 106q-23 66 -33 143t-10 162t10 161.5t33 142.5q32 91 95.5 153t146.5 85.5t172 23.5q109 0 186 -36t131 -106q58 73 138 107.5t194 34.5q105 0 177 -28t118 -73q51 -51 77 -117.5t33 -146t7 -149.5v-131h-619v-35
q0 -66 15.5 -110t43.5 -71t67 -38t87 -11q62 0 102 22t60.5 50.5t28.5 46.5l206 -100q-35 -80 -91 -134t-138.5 -80t-181.5 -26q-109 0 -190 33.5t-138 105.5q-54 -68 -130.5 -103.5t-182.5 -35.5zM545 186h2q75 0 117 39t58.5 122.5t16.5 184.5q0 78 -7 134t-21 96
q-23 66 -64 91.5t-100 25.5h-2q-59 0 -101 -26t-65 -89q-29 -81 -29 -232q0 -77 7.5 -133t21.5 -96q23 -65 64.5 -91t101.5 -26zM991 635h365q0 104 -26.5 163t-69 76t-82.5 17q-41 0 -74.5 -12t-57.5 -41.5t-38.5 -78.5t-16.5 -124z" />
    <glyph glyph-name="Racute" unicode="&#x154;" horiz-adv-x="1219" 
d="M162 0v1475h475q120 0 208.5 -34t146.5 -94.5t86 -142.5t28 -178q0 -49 -9 -104t-34 -108.5t-68 -100.5t-110 -80l301 -633h-299l-262 575h-201v-575h-262zM422 793h176q56 0 99 13t72.5 41t44.5 72.5t15 108.5q0 92 -31 142.5t-92.5 68.5t-134.5 18h-149v-464zM486 1548
l110 260h269l-228 -260h-151z" />
    <glyph glyph-name="racute" unicode="&#x155;" horiz-adv-x="717" 
d="M127 0v1065h238l6 -217q18 38 43.5 77t62 70.5t85 51.5t112.5 20h33v-258q-57 6 -76 6q-72 0 -119.5 -27t-76 -71.5t-40.5 -101.5t-12 -117v-498h-256zM275 1200l110 260h269l-228 -260h-151z" />
    <glyph glyph-name="Rcommaaccent" unicode="&#x156;" horiz-adv-x="1219" 
d="M162 0v1475h475q120 0 208.5 -34t146.5 -94.5t86 -142.5t28 -178q0 -49 -9 -104t-34 -108.5t-68 -100.5t-110 -80l301 -633h-299l-262 575h-201v-575h-262zM422 793h176q56 0 99 13t72.5 41t44.5 72.5t15 108.5q0 92 -31 142.5t-92.5 68.5t-134.5 18h-149v-464zM526 -423
q-28 0 -74 6l7 123q5 0 21.5 -1t38.5 -1q55 0 91 10q23 6 38 16t15 27q0 10 -16 21t-54 15.5t-98 4.5l45 129q59 0 118.5 -8t106.5 -28t73 -56.5t26 -83.5q0 -44 -24.5 -77t-69.5 -54q-89 -43 -244 -43z" />
    <glyph glyph-name="rcommaaccent" unicode="&#x157;" horiz-adv-x="717" 
d="M127 0v1065h238l6 -217q18 38 43.5 77t62 70.5t85 51.5t112.5 20h33v-258q-57 6 -76 6q-72 0 -119.5 -27t-76 -71.5t-40.5 -101.5t-12 -117v-498h-256zM142 -423q-28 0 -74 6l7 123q5 0 21.5 -1t38.5 -1q55 0 91 10q23 6 38 16t15 27q0 10 -16 21t-54 15.5t-98 4.5
l45 129q59 0 118.5 -8t106.5 -28t73 -56.5t26 -83.5q0 -44 -24.5 -77t-69.5 -54q-89 -43 -244 -43z" />
    <glyph glyph-name="Rcaron" unicode="&#x158;" horiz-adv-x="1219" 
d="M162 0v1475h475q120 0 208.5 -34t146.5 -94.5t86 -142.5t28 -178q0 -49 -9 -104t-34 -108.5t-68 -100.5t-110 -80l301 -633h-299l-262 575h-201v-575h-262zM422 793h176q56 0 99 13t72.5 41t44.5 72.5t15 108.5q0 92 -31 142.5t-92.5 68.5t-134.5 18h-149v-464zM516 1546
l-217 260h225l82 -100l86 100h228l-226 -260h-178z" />
    <glyph glyph-name="rcaron" unicode="&#x159;" horiz-adv-x="717" 
d="M127 0v1065h238l6 -217q18 38 43.5 77t62 70.5t85 51.5t112.5 20h33v-258q-57 6 -76 6q-72 0 -119.5 -27t-76 -71.5t-40.5 -101.5t-12 -117v-498h-256zM344 1198l-217 260h225l82 -100l86 100h228l-226 -260h-178z" />
    <glyph glyph-name="Sacute" unicode="&#x15a;" horiz-adv-x="1188" 
d="M592 -33q-109 0 -193.5 25t-148 71.5t-107.5 112t-71 146.5l223 100q22 -59 50 -104t64.5 -75t83.5 -45.5t107 -15.5q63 0 110.5 15t77.5 43q23 21 36.5 52t13.5 75q0 66 -33.5 114.5t-112.5 83.5q-66 29 -131 53.5t-127 49.5q-41 18 -80 36.5t-73.5 41t-63.5 49.5
t-51 61q-28 42 -42.5 95t-14.5 122q0 66 13.5 125.5t51 121.5t106 107t151 62.5t173.5 17.5q144 0 246 -44t155 -113.5t80 -137.5l-217 -112q-35 80 -79.5 125t-96.5 58t-102 13q-62 0 -110 -18t-77 -55q-20 -26 -30.5 -60t-10.5 -78q0 -55 31 -93.5t82 -67.5t116.5 -52.5
t133.5 -48.5q82 -33 140.5 -62t103.5 -68.5t69 -78.5q22 -33 35.5 -69.5t19 -72t5.5 -77.5q0 -68 -20.5 -136t-67 -128t-118 -98t-146 -52t-154.5 -14zM496 1548l110 260h269l-228 -260h-151z" />
    <glyph glyph-name="sacute" unicode="&#x15b;" horiz-adv-x="995" 
d="M518 -33q-74 0 -130.5 11t-91 26.5t-60.5 30.5q-53 31 -92.5 78t-59.5 100l215 92q27 -45 61 -73t70 -39t76 -11q61 0 99 14.5t53.5 39t15.5 53.5q0 35 -16.5 56.5t-48 37.5t-79 29.5t-108.5 33.5q-71 25 -111 46q-42 20 -71 42.5t-47 45.5q-22 26 -36.5 65t-18 68
t-3.5 47q0 38 8.5 82.5t30.5 85.5q28 53 81 92.5t127.5 58.5t152.5 19q148 0 249.5 -54t143.5 -165l-207 -95q-9 22 -23.5 42t-36.5 35.5t-52 24.5t-70 9q-85 0 -125 -33q-37 -27 -37 -82q0 -37 35 -66t95 -48.5t118 -34.5q81 -23 134.5 -51t81.5 -56t40 -47
q18 -31 30.5 -75t12.5 -103q0 -77 -21 -123.5t-51 -85.5q-30 -37 -85 -66t-120.5 -43t-128.5 -14zM420 1200l110 260h269l-228 -260h-151z" />
    <glyph glyph-name="Scircumflex" unicode="&#x15c;" horiz-adv-x="1188" 
d="M592 -33q-109 0 -193.5 25t-148 71.5t-107.5 112t-71 146.5l223 100q22 -59 50 -104t64.5 -75t83.5 -45.5t107 -15.5q63 0 110.5 15t77.5 43q23 21 36.5 52t13.5 75q0 66 -33.5 114.5t-112.5 83.5q-66 29 -131 53.5t-127 49.5q-41 18 -80 36.5t-73.5 41t-63.5 49.5
t-51 61q-28 42 -42.5 95t-14.5 122q0 66 13.5 125.5t51 121.5t106 107t151 62.5t173.5 17.5q144 0 246 -44t155 -113.5t80 -137.5l-217 -112q-35 80 -79.5 125t-96.5 58t-102 13q-62 0 -110 -18t-77 -55q-20 -26 -30.5 -60t-10.5 -78q0 -55 31 -93.5t82 -67.5t116.5 -52.5
t133.5 -48.5q82 -33 140.5 -62t103.5 -68.5t69 -78.5q22 -33 35.5 -69.5t19 -72t5.5 -77.5q0 -68 -20.5 -136t-67 -128t-118 -98t-146 -52t-154.5 -14zM294 1546l225 260h178l218 -260h-226l-82 100l-86 -100h-227z" />
    <glyph glyph-name="scircumflex" unicode="&#x15d;" horiz-adv-x="995" 
d="M518 -33q-74 0 -130.5 11t-91 26.5t-60.5 30.5q-53 31 -92.5 78t-59.5 100l215 92q27 -45 61 -73t70 -39t76 -11q61 0 99 14.5t53.5 39t15.5 53.5q0 35 -16.5 56.5t-48 37.5t-79 29.5t-108.5 33.5q-71 25 -111 46q-42 20 -71 42.5t-47 45.5q-22 26 -36.5 65t-18 68
t-3.5 47q0 38 8.5 82.5t30.5 85.5q28 53 81 92.5t127.5 58.5t152.5 19q148 0 249.5 -54t143.5 -165l-207 -95q-9 22 -23.5 42t-36.5 35.5t-52 24.5t-70 9q-85 0 -125 -33q-37 -27 -37 -82q0 -37 35 -66t95 -48.5t118 -34.5q81 -23 134.5 -51t81.5 -56t40 -47
q18 -31 30.5 -75t12.5 -103q0 -77 -21 -123.5t-51 -85.5q-30 -37 -85 -66t-120.5 -43t-128.5 -14zM247 1198l225 260h178l218 -260h-226l-82 100l-86 -100h-227z" />
    <glyph glyph-name="Scedilla" unicode="&#x15e;" horiz-adv-x="1188" 
d="M592 -33q-109 0 -193.5 25t-148 71.5t-107.5 112t-71 146.5l223 100q22 -59 50 -104t64.5 -75t83.5 -45.5t107 -15.5q63 0 110.5 15t77.5 43q23 21 36.5 52t13.5 75q0 66 -33.5 114.5t-112.5 83.5q-66 29 -131 53.5t-127 49.5q-41 18 -80 36.5t-73.5 41t-63.5 49.5
t-51 61q-28 42 -42.5 95t-14.5 122q0 66 13.5 125.5t51 121.5t106 107t151 62.5t173.5 17.5q144 0 246 -44t155 -113.5t80 -137.5l-217 -112q-35 80 -79.5 125t-96.5 58t-102 13q-62 0 -110 -18t-77 -55q-20 -26 -30.5 -60t-10.5 -78q0 -55 31 -93.5t82 -67.5t116.5 -52.5
t133.5 -48.5q82 -33 140.5 -62t103.5 -68.5t69 -78.5q22 -33 35.5 -69.5t19 -72t5.5 -77.5q0 -68 -20.5 -136t-67 -128t-118 -98t-146 -52t-154.5 -14zM450 -403q-28 0 -74 6l9 127h21q30 0 69 3.5t61 8.5q23 6 38 16t15 27q0 11 -14.5 19.5t-54 13t-99.5 4.5l62 178h170
l-33 -86q54 -7 93.5 -27.5t57 -50.5t17.5 -65q0 -44 -24.5 -77t-69.5 -54q-89 -43 -244 -43z" />
    <glyph glyph-name="scedilla" unicode="&#x15f;" horiz-adv-x="995" 
d="M518 -33q-74 0 -130.5 11t-91 26.5t-60.5 30.5q-53 31 -92.5 78t-59.5 100l215 92q27 -45 61 -73t70 -39t76 -11q61 0 99 14.5t53.5 39t15.5 53.5q0 35 -16.5 56.5t-48 37.5t-79 29.5t-108.5 33.5q-71 25 -111 46q-42 20 -71 42.5t-47 45.5q-22 26 -36.5 65t-18 68
t-3.5 47q0 38 8.5 82.5t30.5 85.5q28 53 81 92.5t127.5 58.5t152.5 19q148 0 249.5 -54t143.5 -165l-207 -95q-9 22 -23.5 42t-36.5 35.5t-52 24.5t-70 9q-85 0 -125 -33q-37 -27 -37 -82q0 -37 35 -66t95 -48.5t118 -34.5q81 -23 134.5 -51t81.5 -56t40 -47
q18 -31 30.5 -75t12.5 -103q0 -77 -21 -123.5t-51 -85.5q-30 -37 -85 -66t-120.5 -43t-128.5 -14zM377 -403q-28 0 -74 6l9 127h21q30 0 69 3.5t61 8.5q23 6 38 16t15 27q0 11 -14.5 19.5t-54 13t-99.5 4.5l62 178h170l-33 -86q54 -7 93.5 -27.5t57 -50.5t17.5 -65
q0 -44 -24.5 -77t-69.5 -54q-89 -43 -244 -43z" />
    <glyph glyph-name="Scaron" unicode="&#x160;" horiz-adv-x="1188" 
d="M592 -33q-109 0 -193.5 25t-148 71.5t-107.5 112t-71 146.5l223 100q22 -59 50 -104t64.5 -75t83.5 -45.5t107 -15.5q63 0 110.5 15t77.5 43q23 21 36.5 52t13.5 75q0 66 -33.5 114.5t-112.5 83.5q-66 29 -131 53.5t-127 49.5q-41 18 -80 36.5t-73.5 41t-63.5 49.5
t-51 61q-28 42 -42.5 95t-14.5 122q0 66 13.5 125.5t51 121.5t106 107t151 62.5t173.5 17.5q144 0 246 -44t155 -113.5t80 -137.5l-217 -112q-35 80 -79.5 125t-96.5 58t-102 13q-62 0 -110 -18t-77 -55q-20 -26 -30.5 -60t-10.5 -78q0 -55 31 -93.5t82 -67.5t116.5 -52.5
t133.5 -48.5q82 -33 140.5 -62t103.5 -68.5t69 -78.5q22 -33 35.5 -69.5t19 -72t5.5 -77.5q0 -68 -20.5 -136t-67 -128t-118 -98t-146 -52t-154.5 -14zM537 1546l-217 260h225l82 -100l86 100h228l-226 -260h-178z" />
    <glyph glyph-name="scaron" unicode="&#x161;" horiz-adv-x="995" 
d="M518 -33q-74 0 -130.5 11t-91 26.5t-60.5 30.5q-53 31 -92.5 78t-59.5 100l215 92q27 -45 61 -73t70 -39t76 -11q61 0 99 14.5t53.5 39t15.5 53.5q0 35 -16.5 56.5t-48 37.5t-79 29.5t-108.5 33.5q-71 25 -111 46q-42 20 -71 42.5t-47 45.5q-22 26 -36.5 65t-18 68
t-3.5 47q0 38 8.5 82.5t30.5 85.5q28 53 81 92.5t127.5 58.5t152.5 19q148 0 249.5 -54t143.5 -165l-207 -95q-9 22 -23.5 42t-36.5 35.5t-52 24.5t-70 9q-85 0 -125 -33q-37 -27 -37 -82q0 -37 35 -66t95 -48.5t118 -34.5q81 -23 134.5 -51t81.5 -56t40 -47
q18 -31 30.5 -75t12.5 -103q0 -77 -21 -123.5t-51 -85.5q-30 -37 -85 -66t-120.5 -43t-128.5 -14zM463 1198l-217 260h225l82 -100l86 100h228l-226 -260h-178z" />
    <glyph glyph-name="Tcommaaccent" unicode="&#x162;" horiz-adv-x="1073" 
d="M406 0v1231h-383v244h1028v-244h-383v-1231h-262zM381 -423q-28 0 -74 6l7 123q5 0 21.5 -1t38.5 -1q55 0 91 10q23 6 38 16t15 27q0 10 -16 21t-54 15.5t-98 4.5l45 129q59 0 118.5 -8t106.5 -28t73 -56.5t26 -83.5q0 -44 -24.5 -77t-69.5 -54q-89 -43 -244 -43z" />
    <glyph glyph-name="tcommaaccent" unicode="&#x163;" horiz-adv-x="662" 
d="M504 -16q-102 0 -169 26.5t-106.5 75.5t-55 119.5t-15.5 159.5v497h-138v203h136v258h258v-258h217v-203h-217v-495q0 -90 31 -130t108 -40q44 0 88 4v-209q-11 -2 -27 -3t-34.5 -2.5t-38 -2t-37.5 -0.5zM239 -423q-28 0 -74 6l7 123q5 0 21.5 -1t38.5 -1q55 0 91 10
q23 6 38 16t15 27q0 10 -16 21t-54 15.5t-98 4.5l45 129q59 0 118.5 -8t106.5 -28t73 -56.5t26 -83.5q0 -44 -24.5 -77t-69.5 -54q-89 -43 -244 -43z" />
    <glyph glyph-name="Tcaron" unicode="&#x164;" horiz-adv-x="1073" 
d="M406 0v1231h-383v244h1028v-244h-383v-1231h-262zM453 1546l-217 260h225l82 -100l86 100h228l-226 -260h-178z" />
    <glyph glyph-name="tcaron" unicode="&#x165;" horiz-adv-x="662" 
d="M504 -16q-102 0 -169 26.5t-106.5 75.5t-55 119.5t-15.5 159.5v497h-138v203h136v258h258v-258h217v-203h-217v-495q0 -90 31 -130t108 -40q44 0 88 4v-209q-11 -2 -27 -3t-34.5 -2.5t-38 -2t-37.5 -0.5zM532 1162v393h232l-53 -393h-179z" />
    <glyph glyph-name="Tbar" unicode="&#x166;" horiz-adv-x="1073" 
d="M406 0v569h-306v212h306v450h-383v244h1028v-244h-383v-450h334v-212h-334v-569h-262z" />
    <glyph glyph-name="tbar" unicode="&#x167;" horiz-adv-x="662" 
d="M20 437v192h138v233h-138v203h136v258h258v-258h217v-203h-217v-233h217v-192h-217v-70q0 -90 31 -130t108 -40q44 0 88 4v-209q-11 -2 -27 -3t-34.5 -2.5t-38 -2t-37.5 -0.5q-102 0 -169 26.5t-106.5 75.5t-55 119.5t-15.5 159.5v72h-138z" />
    <glyph glyph-name="Utilde" unicode="&#x168;" horiz-adv-x="1303" 
d="M649 -33q-117 0 -211 26.5t-159.5 85.5t-100.5 155t-35 235v1006h263v-994q0 -77 14.5 -129.5t44 -85t75.5 -47t109 -14.5q97 0 152.5 33.5t74.5 99.5t19 143v994h264v-1006q0 -139 -35.5 -235t-101.5 -155t-160.5 -85.5t-212.5 -26.5zM361 1542v47q0 85 25 132.5
t61.5 61t73.5 13.5q51 0 133 -31q72 -35 90 -35q23 0 35.5 14.5t20.5 59.5h141v-47q0 -59 -11.5 -98t-33.5 -64t-51 -35t-64 -10q-37 0 -68 9t-59 20q-82 37 -96 37q-18 0 -29 -8t-16.5 -24.5t-9.5 -41.5h-142z" />
    <glyph glyph-name="utilde" unicode="&#x169;" horiz-adv-x="1112" 
d="M438 -31q-52 0 -107.5 14.5t-101 52t-75 101.5t-29.5 164v764h256v-719q0 -65 38.5 -104t112.5 -39q62 0 110 38.5t67.5 94t19.5 102.5v627h256v-1065h-237l-7 119q-39 -49 -80 -81.5t-101.5 -50.5t-121.5 -18zM266 1194v47q0 85 25 132.5t61.5 61t73.5 13.5
q51 0 133 -31q72 -35 90 -35q23 0 35.5 14.5t20.5 59.5h141v-47q0 -59 -11.5 -98t-33.5 -64t-51 -35t-64 -10q-37 0 -68 9t-59 20q-82 37 -96 37q-18 0 -29 -8t-16.5 -24.5t-9.5 -41.5h-142z" />
    <glyph glyph-name="Umacron" unicode="&#x16a;" horiz-adv-x="1303" 
d="M649 -33q-117 0 -211 26.5t-159.5 85.5t-100.5 155t-35 235v1006h263v-994q0 -77 14.5 -129.5t44 -85t75.5 -47t109 -14.5q97 0 152.5 33.5t74.5 99.5t19 143v994h264v-1006q0 -139 -35.5 -235t-101.5 -155t-160.5 -85.5t-212.5 -26.5zM342 1565v192h625v-192h-625z" />
    <glyph glyph-name="umacron" unicode="&#x16b;" horiz-adv-x="1112" 
d="M438 -31q-52 0 -107.5 14.5t-101 52t-75 101.5t-29.5 164v764h256v-719q0 -65 38.5 -104t112.5 -39q62 0 110 38.5t67.5 94t19.5 102.5v627h256v-1065h-237l-7 119q-39 -49 -80 -81.5t-101.5 -50.5t-121.5 -18zM242 1217v192h625v-192h-625z" />
    <glyph glyph-name="Ubreve" unicode="&#x16c;" horiz-adv-x="1303" 
d="M649 -33q-117 0 -211 26.5t-159.5 85.5t-100.5 155t-35 235v1006h263v-994q0 -77 14.5 -129.5t44 -85t75.5 -47t109 -14.5q97 0 152.5 33.5t74.5 99.5t19 143v994h264v-1006q0 -139 -35.5 -235t-101.5 -155t-160.5 -85.5t-212.5 -26.5zM654 1560q-70 0 -122 16t-89.5 46
t-60.5 74.5t-35 101.5h193q6 -32 15.5 -52t23.5 -31.5t32.5 -16t42.5 -4.5q38 0 60 11t34.5 36t18.5 57h188q-7 -54 -20.5 -89t-34 -56.5t-41.5 -36.5q-83 -56 -205 -56z" />
    <glyph glyph-name="ubreve" unicode="&#x16d;" horiz-adv-x="1112" 
d="M438 -31q-52 0 -107.5 14.5t-101 52t-75 101.5t-29.5 164v764h256v-719q0 -65 38.5 -104t112.5 -39q62 0 110 38.5t67.5 94t19.5 102.5v627h256v-1065h-237l-7 119q-39 -49 -80 -81.5t-101.5 -50.5t-121.5 -18zM559 1212q-70 0 -122 16t-89.5 46t-60.5 74.5t-35 101.5
h193q6 -32 15.5 -52t23.5 -31.5t32.5 -16t42.5 -4.5q38 0 60 11t34.5 36t18.5 57h188q-7 -54 -20.5 -89t-34 -56.5t-41.5 -36.5q-83 -56 -205 -56z" />
    <glyph glyph-name="Uring" unicode="&#x16e;" horiz-adv-x="1303" 
d="M649 -33q-117 0 -211 26.5t-159.5 85.5t-100.5 155t-35 235v1006h263v-994q0 -77 14.5 -129.5t44 -85t75.5 -47t109 -14.5q97 0 152.5 33.5t74.5 99.5t19 143v994h264v-1006q0 -139 -35.5 -235t-101.5 -155t-160.5 -85.5t-212.5 -26.5zM651 1501q-40 0 -74.5 14t-60 38
t-40.5 57t-15 71t14 71t39 56q26 25 61.5 39t75.5 14q37 0 71 -13t60 -38q26 -24 42 -57.5t16 -71.5q0 -76 -54 -127q-29 -28 -63 -40.5t-72 -12.5zM651 1605q25 0 43.5 11t28.5 29.5t10 33.5q0 34 -22 53q-31 25 -60 25q-17 0 -32.5 -6t-26.5 -17t-17 -24.5t-6 -30.5
q0 -31 22.5 -52.5t59.5 -21.5z" />
    <glyph glyph-name="uring" unicode="&#x16f;" horiz-adv-x="1112" 
d="M438 -31q-52 0 -107.5 14.5t-101 52t-75 101.5t-29.5 164v764h256v-719q0 -65 38.5 -104t112.5 -39q62 0 110 38.5t67.5 94t19.5 102.5v627h256v-1065h-237l-7 119q-39 -49 -80 -81.5t-101.5 -50.5t-121.5 -18zM563 1153q-40 0 -74.5 14t-60 38t-40.5 57t-15 71t14 71
t39 56q26 25 61.5 39t75.5 14q37 0 71 -13t60 -38q26 -24 42 -57.5t16 -71.5q0 -76 -54 -127q-29 -28 -63 -40.5t-72 -12.5zM563 1257q25 0 43.5 11t28.5 29.5t10 33.5q0 34 -22 53q-31 25 -60 25q-17 0 -32.5 -6t-26.5 -17t-17 -24.5t-6 -30.5q0 -31 22.5 -52.5t59.5 -21.5
z" />
    <glyph glyph-name="Uhungarumlaut" unicode="&#x170;" horiz-adv-x="1303" 
d="M649 -33q-117 0 -211 26.5t-159.5 85.5t-100.5 155t-35 235v1006h263v-994q0 -77 14.5 -129.5t44 -85t75.5 -47t109 -14.5q97 0 152.5 33.5t74.5 99.5t19 143v994h264v-1006q0 -139 -35.5 -235t-101.5 -155t-160.5 -85.5t-212.5 -26.5zM375 1548l111 260h248l-205 -260
h-154zM703 1548l110 260h248l-207 -260h-151z" />
    <glyph glyph-name="uhungarumlaut" unicode="&#x171;" horiz-adv-x="1112" 
d="M438 -31q-52 0 -107.5 14.5t-101 52t-75 101.5t-29.5 164v764h256v-719q0 -65 38.5 -104t112.5 -39q62 0 110 38.5t67.5 94t19.5 102.5v627h256v-1065h-237l-7 119q-39 -49 -80 -81.5t-101.5 -50.5t-121.5 -18zM289 1200l111 260h248l-205 -260h-154zM617 1200l110 260
h248l-207 -260h-151z" />
    <glyph glyph-name="Uogonek" unicode="&#x172;" horiz-adv-x="1303" 
d="M649 -33q-117 0 -211 26.5t-159.5 85.5t-100.5 155t-35 235v1006h263v-994q0 -77 14.5 -129.5t44 -85t75.5 -47t109 -14.5q97 0 152.5 33.5t74.5 99.5t19 143v994h264v-1006q0 -139 -35.5 -235t-101.5 -155t-160.5 -85.5t-212.5 -26.5zM735 -401q-78 0 -136 30.5t-81 77
t-23 96.5q0 45 12.5 93t35.5 104h169q-45 -112 -45 -160q0 -39 16.5 -60t38.5 -27.5t42 -6.5q39 0 143 21v-144q-54 -14 -97.5 -19t-74.5 -5z" />
    <glyph glyph-name="uogonek" unicode="&#x173;" horiz-adv-x="1112" 
d="M438 -31q-52 0 -107.5 14.5t-101 52t-75 101.5t-29.5 164v764h256v-719q0 -65 38.5 -104t112.5 -39q62 0 110 38.5t67.5 94t19.5 102.5v627h256v-1065h-237l-7 119q-39 -49 -80 -81.5t-101.5 -50.5t-121.5 -18zM885 -401q-78 0 -136 30.5t-81 77t-23 96.5q0 45 12.5 93
t35.5 104h169q-45 -112 -45 -160q0 -39 16.5 -60t38.5 -27.5t42 -6.5q39 0 143 21v-144q-54 -14 -97.5 -19t-74.5 -5z" />
    <glyph glyph-name="Wcircumflex" unicode="&#x174;" horiz-adv-x="1624" 
d="M338 0l-328 1475h279l186 -1033l217 1033h256l203 -1033l199 1033h264l-330 -1475h-268l-205 975l-205 -975h-268zM501 1546l225 260h178l218 -260h-226l-82 100l-86 -100h-227z" />
    <glyph glyph-name="wcircumflex" unicode="&#x175;" horiz-adv-x="1475" 
d="M317 0l-307 1065h264l175 -721l174 721h243l174 -721l174 721h250l-307 -1065h-248l-172 647l-172 -647h-248zM427 1198l225 260h178l218 -260h-226l-82 100l-86 -100h-227z" />
    <glyph glyph-name="Ycircumflex" unicode="&#x176;" horiz-adv-x="1141" 
d="M428 0v598l-418 877h281l280 -623l291 623h268l-440 -877v-598h-262zM260 1546l225 260h178l218 -260h-226l-82 100l-86 -100h-227z" />
    <glyph glyph-name="ycircumflex" unicode="&#x177;" horiz-adv-x="1024" 
d="M215 -393q-66 0 -98 8v225q27 -6 59 -6q44 0 73.5 14.5t54 47.5t40.5 75l33 84l-367 1010h266l234 -657l250 657h254l-445 -1149q-52 -133 -111.5 -202.5t-122.5 -88t-120 -18.5zM201 1198l225 260h178l218 -260h-226l-82 100l-86 -100h-227z" />
    <glyph glyph-name="Ydieresis" unicode="&#x178;" horiz-adv-x="1141" 
d="M428 0v598l-418 877h281l280 -623l291 623h268l-440 -877v-598h-262zM299 1560v203h225v-203h-225zM628 1560v203h226v-203h-226z" />
    <glyph glyph-name="Zacute" unicode="&#x179;" horiz-adv-x="997" 
d="M31 0v225l610 1008h-586v242h887v-224l-612 -1009h637v-242h-936zM402 1548l110 260h269l-228 -260h-151z" />
    <glyph glyph-name="zacute" unicode="&#x17a;" horiz-adv-x="860" 
d="M31 0v180l473 682h-447v203h758v-180l-473 -682h487v-203h-798zM336 1200l110 260h269l-228 -260h-151z" />
    <glyph glyph-name="Zdotaccent" unicode="&#x17b;" horiz-adv-x="997" 
d="M31 0v225l610 1008h-586v242h887v-224l-612 -1009h637v-242h-936zM370 1560v234h244v-234h-244z" />
    <glyph glyph-name="zdotaccent" unicode="&#x17c;" horiz-adv-x="860" 
d="M31 0v180l473 682h-447v203h758v-180l-473 -682h487v-203h-798zM311 1212v234h244v-234h-244z" />
    <glyph glyph-name="Zcaron" unicode="&#x17d;" horiz-adv-x="997" 
d="M31 0v225l610 1008h-586v242h887v-224l-612 -1009h637v-242h-936zM432 1546l-217 260h225l82 -100l86 100h228l-226 -260h-178z" />
    <glyph glyph-name="zcaron" unicode="&#x17e;" horiz-adv-x="860" 
d="M31 0v180l473 682h-447v203h758v-180l-473 -682h487v-203h-798zM354 1198l-217 260h225l82 -100l86 100h228l-226 -260h-178z" />
    <glyph glyph-name="longs" unicode="&#x17f;" horiz-adv-x="511" 
d="M384 1126v-1126h-256l-3 1133q0 188 105 274q89 74 258 74q45 0 90.5 -3.5t73.5 -7.5v-180q-83 8 -125 8q-40 0 -67.5 -10.5t-41.5 -25.5q-20 -23 -27 -54t-7 -82z" />
    <glyph glyph-name="florin" unicode="&#x192;" horiz-adv-x="1159" 
d="M141 -393q-5 0 -11.5 0.5t-18.5 0.5q-11 0 -28.5 0.5t-45.5 0.5l45 219q52 -10 62 -10h6q65 0 92.5 15.5t43 54.5t25.5 92l166 841h-137l43 201h135q30 144 35 162q17 60 44.5 114t78.5 95q45 35 101 55.5t101 25.5t78 5q39 0 66.5 -3t50 -6t49.5 -6l-41 -207
q-81 11 -120 11t-67 -8t-48 -23q-28 -22 -42 -55.5t-24 -75.5q-5 -20 -8 -41t-8 -43h237l-43 -201h-233l-170 -866q-19 -91 -49.5 -158t-83.5 -110q-50 -41 -117.5 -60.5t-163.5 -19.5z" />
    <glyph glyph-name="Scommaaccent" unicode="&#x218;" horiz-adv-x="1188" 
d="M592 -33q-109 0 -193.5 25t-148 71.5t-107.5 112t-71 146.5l223 100q22 -59 50 -104t64.5 -75t83.5 -45.5t107 -15.5q63 0 110.5 15t77.5 43q23 21 36.5 52t13.5 75q0 66 -33.5 114.5t-112.5 83.5q-66 29 -131 53.5t-127 49.5q-41 18 -80 36.5t-73.5 41t-63.5 49.5
t-51 61q-28 42 -42.5 95t-14.5 122q0 66 13.5 125.5t51 121.5t106 107t151 62.5t173.5 17.5q144 0 246 -44t155 -113.5t80 -137.5l-217 -112q-35 80 -79.5 125t-96.5 58t-102 13q-62 0 -110 -18t-77 -55q-20 -26 -30.5 -60t-10.5 -78q0 -55 31 -93.5t82 -67.5t116.5 -52.5
t133.5 -48.5q82 -33 140.5 -62t103.5 -68.5t69 -78.5q22 -33 35.5 -69.5t19 -72t5.5 -77.5q0 -68 -20.5 -136t-67 -128t-118 -98t-146 -52t-154.5 -14zM451 -423q-28 0 -74 6l7 123q5 0 21.5 -1t38.5 -1q55 0 91 10q23 6 38 16t15 27q0 10 -16 21t-54 15.5t-98 4.5l45 129
q59 0 118.5 -8t106.5 -28t73 -56.5t26 -83.5q0 -44 -24.5 -77t-69.5 -54q-89 -43 -244 -43z" />
    <glyph glyph-name="scommaaccent" unicode="&#x219;" horiz-adv-x="995" 
d="M518 -33q-74 0 -130.5 11t-91 26.5t-60.5 30.5q-53 31 -92.5 78t-59.5 100l215 92q27 -45 61 -73t70 -39t76 -11q61 0 99 14.5t53.5 39t15.5 53.5q0 35 -16.5 56.5t-48 37.5t-79 29.5t-108.5 33.5q-71 25 -111 46q-42 20 -71 42.5t-47 45.5q-22 26 -36.5 65t-18 68
t-3.5 47q0 38 8.5 82.5t30.5 85.5q28 53 81 92.5t127.5 58.5t152.5 19q148 0 249.5 -54t143.5 -165l-207 -95q-9 22 -23.5 42t-36.5 35.5t-52 24.5t-70 9q-85 0 -125 -33q-37 -27 -37 -82q0 -37 35 -66t95 -48.5t118 -34.5q81 -23 134.5 -51t81.5 -56t40 -47
q18 -31 30.5 -75t12.5 -103q0 -77 -21 -123.5t-51 -85.5q-30 -37 -85 -66t-120.5 -43t-128.5 -14zM377 -423q-28 0 -74 6l7 123q5 0 21.5 -1t38.5 -1q55 0 91 10q23 6 38 16t15 27q0 10 -16 21t-54 15.5t-98 4.5l45 129q59 0 118.5 -8t106.5 -28t73 -56.5t26 -83.5
q0 -44 -24.5 -77t-69.5 -54q-89 -43 -244 -43z" />
    <glyph glyph-name="uni021A" unicode="&#x21a;" horiz-adv-x="1073" 
d="M406 0v1231h-383v244h1028v-244h-383v-1231h-262zM381 -423q-28 0 -74 6l7 123q5 0 21.5 -1t38.5 -1q55 0 91 10q23 6 38 16t15 27q0 10 -16 21t-54 15.5t-98 4.5l45 129q59 0 118.5 -8t106.5 -28t73 -56.5t26 -83.5q0 -44 -24.5 -77t-69.5 -54q-89 -43 -244 -43z" />
    <glyph glyph-name="uni021B" unicode="&#x21b;" horiz-adv-x="662" 
d="M504 -16q-102 0 -169 26.5t-106.5 75.5t-55 119.5t-15.5 159.5v497h-138v203h136v258h258v-258h217v-203h-217v-495q0 -90 31 -130t108 -40q44 0 88 4v-209q-11 -2 -27 -3t-34.5 -2.5t-38 -2t-37.5 -0.5zM239 -423q-28 0 -74 6l7 123q5 0 21.5 -1t38.5 -1q55 0 91 10
q23 6 38 16t15 27q0 10 -16 21t-54 15.5t-98 4.5l45 129q59 0 118.5 -8t106.5 -28t73 -56.5t26 -83.5q0 -44 -24.5 -77t-69.5 -54q-89 -43 -244 -43z" />
    <glyph glyph-name="dotlessj" unicode="&#x237;" horiz-adv-x="518" 
d="M43 -393q-52 0 -106 4v213h26q86 0 122.5 21t43 60.5t6.5 84.5v1075h256v-1098q0 -88 -16.5 -155t-65.5 -113q-46 -43 -112 -67.5t-154 -24.5z" />
    <glyph glyph-name="apostrophe" unicode="&#x2bc;" horiz-adv-x="502" 
d="M114 952v127q35 5 56 15q27 13 39.5 35.5t12.5 65.5v20h-92v260h245v-252q0 -89 -25 -143.5t-71 -83.5q-32 -20 -73.5 -30t-91.5 -14z" />
    <glyph glyph-name="circumflex" unicode="&#x2c6;" horiz-adv-x="702" 
d="M41 1198l225 260h178l218 -260h-226l-82 100l-86 -100h-227z" />
    <glyph glyph-name="caron" unicode="&#x2c7;" horiz-adv-x="702" 
d="M258 1198l-217 260h225l82 -100l86 100h228l-226 -260h-178z" />
    <glyph glyph-name="uni02C9" unicode="&#x2c9;" horiz-adv-x="702" 
d="M39 1217v192h625v-192h-625z" />
    <glyph glyph-name="breve" unicode="&#x2d8;" horiz-adv-x="702" 
d="M354 1212q-70 0 -122 16t-89.5 46t-60.5 74.5t-35 101.5h193q6 -32 15.5 -52t23.5 -31.5t32.5 -16t42.5 -4.5q38 0 60 11t34.5 36t18.5 57h188q-7 -54 -20.5 -89t-34 -56.5t-41.5 -36.5q-83 -56 -205 -56z" />
    <glyph glyph-name="dotaccent" unicode="&#x2d9;" horiz-adv-x="702" 
d="M229 1212v234h244v-234h-244z" />
    <glyph glyph-name="ring" unicode="&#x2da;" horiz-adv-x="702" 
d="M352 1153q-40 0 -74.5 14t-60 38t-40.5 57t-15 71t14 71t39 56q26 25 61.5 39t75.5 14q37 0 71 -13t60 -38q26 -24 42 -57.5t16 -71.5q0 -76 -54 -127q-29 -28 -63 -40.5t-72 -12.5zM352 1257q25 0 43.5 11t28.5 29.5t10 33.5q0 34 -22 53q-31 25 -60 25q-17 0 -32.5 -6
t-26.5 -17t-17 -24.5t-6 -30.5q0 -31 22.5 -52.5t59.5 -21.5z" />
    <glyph glyph-name="ogonek" unicode="&#x2db;" horiz-adv-x="702" 
d="M385 -401q-78 0 -136 30.5t-81 77t-23 96.5q0 45 12.5 93t35.5 104h169q-45 -112 -45 -160q0 -39 16.5 -60t38.5 -27.5t42 -6.5q39 0 143 21v-144q-54 -14 -97.5 -19t-74.5 -5z" />
    <glyph glyph-name="tilde" unicode="&#x2dc;" horiz-adv-x="702" 
d="M61 1194v47q0 85 25 132.5t61.5 61t73.5 13.5q51 0 133 -31q72 -35 90 -35q23 0 35.5 14.5t20.5 59.5h141v-47q0 -59 -11.5 -98t-33.5 -64t-51 -35t-64 -10q-37 0 -68 9t-59 20q-82 37 -96 37q-18 0 -29 -8t-16.5 -24.5t-9.5 -41.5h-142z" />
    <glyph glyph-name="hungarumlaut" unicode="&#x2dd;" horiz-adv-x="702" 
d="M8 1200l111 260h248l-205 -260h-154zM336 1200l110 260h248l-207 -260h-151z" />
    <glyph glyph-name="pi" unicode="&#x3c0;" horiz-adv-x="1153" 
d="M162 0v862h-121v203h1071v-203h-119v-862h-256v862h-319v-862h-256z" />
    <glyph glyph-name="Wgrave" unicode="&#x1e80;" horiz-adv-x="1624" 
d="M338 0l-328 1475h279l186 -1033l217 1033h256l203 -1033l199 1033h264l-330 -1475h-268l-205 975l-205 -975h-268zM769 1548l-227 260h268l111 -260h-152z" />
    <glyph glyph-name="wgrave" unicode="&#x1e81;" horiz-adv-x="1475" 
d="M317 0l-307 1065h264l175 -721l174 721h243l174 -721l174 721h250l-307 -1065h-248l-172 647l-172 -647h-248zM695 1200l-227 260h268l111 -260h-152z" />
    <glyph glyph-name="Wacute" unicode="&#x1e82;" horiz-adv-x="1624" 
d="M338 0l-328 1475h279l186 -1033l217 1033h256l203 -1033l199 1033h264l-330 -1475h-268l-205 975l-205 -975h-268zM762 1548l110 260h269l-228 -260h-151z" />
    <glyph glyph-name="wacute" unicode="&#x1e83;" horiz-adv-x="1475" 
d="M317 0l-307 1065h264l175 -721l174 721h243l174 -721l174 721h250l-307 -1065h-248l-172 647l-172 -647h-248zM668 1200l110 260h269l-228 -260h-151z" />
    <glyph glyph-name="Wdieresis" unicode="&#x1e84;" horiz-adv-x="1624" 
d="M338 0l-328 1475h279l186 -1033l217 1033h256l203 -1033l199 1033h264l-330 -1475h-268l-205 975l-205 -975h-268zM534 1560v203h225v-203h-225zM863 1560v203h226v-203h-226z" />
    <glyph glyph-name="wdieresis" unicode="&#x1e85;" horiz-adv-x="1475" 
d="M317 0l-307 1065h264l175 -721l174 721h243l174 -721l174 721h250l-307 -1065h-248l-172 647l-172 -647h-248zM460 1212v203h225v-203h-225zM789 1212v203h226v-203h-226z" />
    <glyph glyph-name="Ygrave" unicode="&#x1ef2;" horiz-adv-x="1141" 
d="M428 0v598l-418 877h281l280 -623l291 623h268l-440 -877v-598h-262zM548 1548l-227 260h268l111 -260h-152z" />
    <glyph glyph-name="ygrave" unicode="&#x1ef3;" horiz-adv-x="1024" 
d="M215 -393q-66 0 -98 8v225q27 -6 59 -6q44 0 73.5 14.5t54 47.5t40.5 75l33 84l-367 1010h266l234 -657l250 657h254l-445 -1149q-52 -133 -111.5 -202.5t-122.5 -88t-120 -18.5zM479 1200l-227 260h268l111 -260h-152z" />
    <glyph glyph-name="endash" unicode="&#x2013;" horiz-adv-x="1044" 
d="M-2 412v215h1049v-213z" />
    <glyph glyph-name="emdash" unicode="&#x2014;" horiz-adv-x="2068" 
d="M-2 412v215h2073v-213z" />
    <glyph glyph-name="quoteleft" unicode="&#x2018;" horiz-adv-x="502" 
d="M113 883v286q0 101 28 161.5t80 92.5q35 23 82 35t103 17v-144q-41 -7 -64 -18q-29 -14 -43 -39.5t-14 -73.5v-39h104v-278h-276z" />
    <glyph glyph-name="quoteright" unicode="&#x2019;" horiz-adv-x="502" 
d="M96 883v143q39 6 64 18q29 14 43 39.5t14 73.5v39h-104v279h276v-287q0 -100 -28 -161t-80 -93q-36 -23 -82.5 -34.5t-102.5 -16.5z" />
    <glyph glyph-name="quotesinglbase" unicode="&#x201a;" horiz-adv-x="502" 
d="M96 -313v143q39 6 64 18q29 14 43 39.5t14 73.5v39h-104v279h276v-287q0 -100 -28 -161t-80 -93q-36 -23 -82.5 -34.5t-102.5 -16.5z" />
    <glyph glyph-name="quotedblleft" unicode="&#x201c;" horiz-adv-x="889" 
d="M113 883v286q0 101 28 161.5t80 92.5q35 23 82 35t103 17v-144q-41 -7 -64 -18q-29 -14 -43 -39.5t-14 -73.5v-39h104v-278h-276zM500 883v286q0 101 28 161.5t80 92.5q35 23 82 35t103 17v-144q-41 -7 -64 -18q-29 -14 -43 -39.5t-14 -73.5v-39h104v-278h-276z" />
    <glyph glyph-name="quotedblright" unicode="&#x201d;" horiz-adv-x="889" 
d="M96 883v143q39 6 64 18q29 14 43 39.5t14 73.5v39h-104v279h276v-287q0 -100 -28 -161t-80 -93q-36 -23 -82.5 -34.5t-102.5 -16.5zM483 883v143q39 6 64 18q29 14 43 39.5t14 73.5v39h-104v279h276v-287q0 -100 -28 -161t-80 -93q-35 -23 -82 -34.5t-103 -16.5z" />
    <glyph glyph-name="quotedblbase" unicode="&#x201e;" horiz-adv-x="889" 
d="M96 -313v143q39 6 64 18q29 14 43 39.5t14 73.5v39h-104v279h276v-287q0 -100 -28 -161t-80 -93q-36 -23 -82.5 -34.5t-102.5 -16.5zM483 -313v143q39 6 64 18q29 14 43 39.5t14 73.5v39h-104v279h276v-287q0 -100 -28 -161t-80 -93q-35 -23 -82 -34.5t-103 -16.5z" />
    <glyph glyph-name="dagger" unicode="&#x2020;" horiz-adv-x="1016" 
d="M389 -319v1159h-317v211h313v422h240v-422h319v-211h-315v-1159h-240z" />
    <glyph glyph-name="daggerdbl" unicode="&#x2021;" horiz-adv-x="1014" 
d="M389 -317v376h-317v211h317v617h-317v211h313v377h238v-377h319v-211h-319v-617h319v-211h-315v-376h-238z" />
    <glyph glyph-name="bullet" unicode="&#x2022;" horiz-adv-x="961" 
d="M481 434q-62 0 -115 23t-94 63q-42 42 -65 95.5t-23 115.5q0 63 24 117t64 96q41 38 94 61t113 23q62 0 115.5 -23t93.5 -61q42 -42 65 -96t23 -117q0 -62 -22 -113.5t-64 -95.5q-43 -43 -95 -65.5t-114 -22.5z" />
    <glyph glyph-name="ellipsis" unicode="&#x2026;" horiz-adv-x="2068" 
d="M213 0v276h276v-276h-276zM895 0v276h276v-276h-276zM1579 0v276h276v-276h-276z" />
    <glyph glyph-name="perthousand" unicode="&#x2030;" horiz-adv-x="2651" 
d="M1561.5 539.5q-5.5 46.5 -13.5 74t-17.5 40.5t-17.5 20q-25 22 -75 22q-51 0 -76 -22q-8 -7 -17 -20t-17 -40.5t-13.5 -74t-5.5 -121.5q0 -76 5.5 -123.5t13.5 -75t17 -40t17 -19.5q25 -23 76 -23q50 0 75 23q8 7 17.5 19.5t17.5 40t13.5 75t5.5 123.5q0 75 -5.5 121.5z
M1790 302.5q-4 -54.5 -17 -101.5t-36 -87.5t-62 -72.5q-45 -38 -104 -56t-133 -18q-76 0 -130.5 16.5t-95.5 45.5q-40 30 -65.5 71.5t-40 91.5t-20 107t-5.5 119q0 61 5.5 118.5t20 107.5t40 91.5t65.5 71.5q41 29 95.5 45t130.5 16q75 0 130 -16t95 -45q40 -30 65.5 -71.5
t40 -91.5t20 -107.5t5.5 -118.5t-4 -115.5zM780 -33h-225l508 1508h225zM526.5 1146q-5.5 47 -13.5 74.5t-17 40t-17 19.5q-26 23 -76 23q-49 0 -75 -23q-8 -7 -17.5 -19.5t-17.5 -40t-13.5 -74.5t-5.5 -122q0 -76 5.5 -123.5t13.5 -75t17.5 -40t17.5 -19.5q12 -11 30.5 -17
t44.5 -6t45 6t31 17q8 7 17 19.5t17 40t13.5 75t5.5 123.5q0 75 -5.5 122zM755.5 908.5q-4.5 -54.5 -17 -101.5t-36 -87.5t-61.5 -72.5q-45 -38 -104 -56t-134 -18t-130 16.5t-95 45.5q-40 30 -65.5 71.5t-40 91.5t-20 107t-5.5 119q0 61 5.5 118.5t20 107.5t40 91.5
t65.5 71.5q40 29 95 45.5t130 16.5q76 0 130.5 -16.5t95.5 -45.5q40 -30 65.5 -71.5t40 -91.5t20 -107.5t5.5 -118.5t-4.5 -115.5zM2371.5 539.5q-5.5 46.5 -13.5 74t-17.5 40.5t-17.5 20q-25 22 -75 22q-51 0 -76 -22q-8 -7 -17 -20t-17 -40.5t-13.5 -74t-5.5 -121.5
q0 -76 5.5 -123.5t13.5 -75t17 -40t17 -19.5q25 -23 76 -23q50 0 75 23q8 7 17.5 19.5t17.5 40t13.5 75t5.5 123.5q0 75 -5.5 121.5zM2600 302.5q-4 -54.5 -17 -101.5t-36 -87.5t-62 -72.5q-45 -38 -104 -56t-133 -18q-76 0 -130.5 16.5t-95.5 45.5q-40 30 -65.5 71.5
t-40 91.5t-20 107t-5.5 119q0 61 5.5 118.5t20 107.5t40 91.5t65.5 71.5q41 29 95.5 45t130.5 16q75 0 130 -16t95 -45q40 -30 65.5 -71.5t40 -91.5t20 -107.5t5.5 -118.5t-4 -115.5z" />
    <glyph glyph-name="guilsinglleft" unicode="&#x2039;" horiz-adv-x="719" 
d="M457 25l-385 495l385 496l190 -92l-270 -404l270 -403z" />
    <glyph glyph-name="guilsinglright" unicode="&#x203a;" horiz-adv-x="719" 
d="M262 25l-190 92l270 403l-270 404l190 92l385 -496z" />
    <glyph glyph-name="fraction" unicode="&#x2044;" horiz-adv-x="242" 
d="M-246 -33l508 1508h225l-507 -1508h-226z" />
    <glyph glyph-name="zerosuperior" unicode="&#x2070;" 
d="M403 573q-75 0 -130 16.5t-95 45.5q-57 42 -88 113.5t-37 142.5t-6 133q0 103 14 180.5t45 128t71.5 80t95.5 46t130 16.5q76 0 130.5 -16.5t95.5 -45.5q56 -43 85.5 -110.5t37.5 -142.5t8 -136q0 -100 -12 -172.5t-40.5 -122.5t-66.5 -82q-45 -38 -104 -56t-134 -18z
M403 743q26 0 45 6t31 17q17 15 27.5 41t18 83.5t7.5 133.5q0 129 -15.5 182.5t-37.5 73.5q-26 23 -76 23q-49 0 -75 -23q-24 -21 -39 -73t-15 -183q0 -135 15 -186.5t39 -71.5q12 -11 30.5 -17t44.5 -6z" />
    <glyph glyph-name="foursuperior" unicode="&#x2074;" 
d="M465 592v153h-424v146l422 584h207v-576h80v-154h-80v-153h-205zM254 899h219v318z" />
    <glyph glyph-name="fivesuperior" unicode="&#x2075;" 
d="M412 573q-88 0 -150 16.5t-102.5 50t-62 83.5t-27.5 117l213 16q5 -60 34 -90.5t91 -30.5q68 0 97.5 37.5t29.5 110.5q0 71 -30 106t-99 35q-53 0 -84 -20t-50 -46l-170 17l35 481h563v-166h-381l-10 -143q66 37 154 37q150 0 224.5 -74.5t74.5 -210.5q0 -87 -29 -152.5
t-94 -111.5q-38 -29 -96.5 -45.5t-130.5 -16.5z" />
    <glyph glyph-name="sixsuperior" unicode="&#x2076;" 
d="M418 573q-104 0 -172.5 33t-109.5 91.5t-58 139t-17 175.5q0 99 17.5 179.5t50 134.5t68 82.5t70.5 42.5t74.5 19t80.5 5q92 0 146 -15.5t96 -50.5q32 -28 52.5 -68.5t28.5 -78.5l-208 -35q-12 35 -26.5 54t-39 27.5t-51.5 8.5q-69 0 -102 -54t-35 -153q31 22 73.5 35.5
t104.5 13.5q141 0 221 -70t80 -208q0 -78 -25.5 -139t-79.5 -103q-35 -29 -94 -47.5t-145 -18.5zM422 731q59 0 86 32.5t27 104.5q0 59 -15 89.5t-41.5 39.5t-54.5 9q-66 0 -98.5 -34t-32.5 -95q0 -72 30.5 -109t98.5 -37z" />
    <glyph glyph-name="sevensuperior" unicode="&#x2077;" 
d="M209 592l319 692h-276v-90h-191v262h703v-143l-338 -721h-217z" />
    <glyph glyph-name="eightsuperior" unicode="&#x2078;" 
d="M403 573q-83 0 -149 16t-112.5 49t-71.5 84t-25 120q0 58 23.5 104t60 73.5t68.5 39.5q-38 16 -67.5 45.5t-40.5 61.5t-11 67q0 84 46 140.5t122 79t157 22.5q119 0 196 -38t103.5 -94.5t26.5 -109.5q0 -50 -20.5 -87t-48.5 -57t-50 -30q49 -19 84.5 -54.5t51.5 -79.5
t16 -83q0 -102 -54.5 -165.5t-138.5 -83.5t-166 -20zM403 733q69 0 104.5 26.5t35.5 88.5q0 56 -32.5 88.5t-107.5 32.5q-74 0 -106.5 -32.5t-32.5 -88.5q0 -62 35.5 -88.5t103.5 -26.5zM403 1120q60 0 85.5 29.5t25.5 79.5q0 92 -111 92q-110 0 -110 -92q0 -50 25 -79.5
t85 -29.5z" />
    <glyph glyph-name="ninesuperior" unicode="&#x2079;" 
d="M397 573q-96 0 -156.5 19t-99.5 53q-14 12 -25.5 29t-21 35.5t-16 37.5t-10.5 35l213 35q8 -40 34 -63t80 -23t86 30t42.5 76t11.5 87q-28 -25 -70.5 -39.5t-110.5 -14.5q-143 0 -221 71.5t-78 217.5q0 163 88.5 239.5t255.5 76.5q106 0 175 -29t109.5 -84.5t56.5 -137.5
t16 -188q0 -142 -30.5 -240t-104.5 -157q-36 -29 -89 -47.5t-135 -18.5zM393 1024q68 0 98.5 37.5t30.5 103.5q0 79 -29.5 115.5t-97.5 36.5q-116 0 -116 -148q0 -80 27.5 -112.5t86.5 -32.5z" />
    <glyph glyph-name="zeroinferior" unicode="&#x2080;" 
d="M403 -17q-75 0 -130 16.5t-95 45.5q-57 42 -88 113.5t-37 142.5t-6 133q0 103 14 180.5t45 128t71.5 80t95.5 46t130 16.5q76 0 130.5 -16.5t95.5 -45.5q56 -43 85.5 -110.5t37.5 -142.5t8 -136q0 -100 -12 -172.5t-40.5 -122.5t-66.5 -82q-45 -38 -104 -56t-134 -18z
M403 153q26 0 45 6t31 17q17 15 27.5 41t18 83.5t7.5 133.5q0 129 -15.5 182.5t-37.5 73.5q-26 23 -76 23q-49 0 -75 -23q-24 -21 -39 -73t-15 -183q0 -135 15 -186.5t39 -71.5q12 -11 30.5 -17t44.5 -6z" />
    <glyph glyph-name="oneinferior" unicode="&#x2081;" 
d="M170 2v164h162v489l-164 -71l-78 153l297 148h154v-719h151v-164h-522z" />
    <glyph glyph-name="twoinferior" unicode="&#x2082;" 
d="M61 2v139l293 252q80 69 116.5 119t42 77t5.5 42q0 29 -12.5 48t-39 29.5t-58.5 10.5q-60 0 -93 -40.5t-43 -123.5l-211 12q3 51 20 107t57 103t108.5 77.5t175.5 30.5q129 0 204.5 -44t97 -103.5t21.5 -106.5q0 -101 -66 -187.5t-149 -149t-145 -110.5h360v-182h-684z
" />
    <glyph glyph-name="threeinferior" unicode="&#x2083;" 
d="M397 -17q-88 0 -151.5 18t-106 54t-67 90.5t-35.5 128.5l215 15q6 -48 23.5 -79t46 -43t61.5 -12q69 0 102 38.5t33 107.5q0 56 -31 91.5t-94 35.5q-57 0 -127 -35l-69 111l280 204h-387v158h615v-162l-209 -151q123 -3 186 -72.5t63 -187.5q0 -77 -25.5 -135t-71 -97
t-109.5 -58.5t-142 -19.5z" />
    <glyph glyph-name="fourinferior" unicode="&#x2084;" 
d="M465 2v153h-424v146l422 584h207v-576h80v-154h-80v-153h-205zM254 309h219v318z" />
    <glyph glyph-name="fiveinferior" unicode="&#x2085;" 
d="M412 -17q-88 0 -150 16.5t-102.5 50t-62 83.5t-27.5 117l213 16q5 -60 34 -90.5t91 -30.5q68 0 97.5 37.5t29.5 110.5q0 71 -30 106t-99 35q-53 0 -84 -20t-50 -46l-170 17l35 481h563v-166h-381l-10 -143q66 37 154 37q150 0 224.5 -74.5t74.5 -210.5q0 -87 -29 -152.5
t-94 -111.5q-38 -29 -96.5 -45.5t-130.5 -16.5z" />
    <glyph glyph-name="sixinferior" unicode="&#x2086;" 
d="M418 -17q-104 0 -172.5 33t-109.5 91.5t-58 139t-17 175.5q0 99 17.5 179.5t50 134.5t68 82.5t70.5 42.5t74.5 19t80.5 5q92 0 146 -15.5t96 -50.5q32 -28 52.5 -68.5t28.5 -78.5l-208 -35q-12 35 -26.5 54t-39 27.5t-51.5 8.5q-69 0 -102 -54t-35 -153q31 22 73.5 35.5
t104.5 13.5q141 0 221 -70t80 -208q0 -78 -25.5 -139t-79.5 -103q-35 -29 -94 -47.5t-145 -18.5zM422 141q59 0 86 32.5t27 104.5q0 59 -15 89.5t-41.5 39.5t-54.5 9q-66 0 -98.5 -34t-32.5 -95q0 -72 30.5 -109t98.5 -37z" />
    <glyph glyph-name="seveninferior" unicode="&#x2087;" 
d="M209 2l319 692h-276v-90h-191v262h703v-143l-338 -721h-217z" />
    <glyph glyph-name="eightinferior" unicode="&#x2088;" 
d="M403 -17q-83 0 -149 16t-112.5 49t-71.5 84t-25 120q0 58 23.5 104t60 73.5t68.5 39.5q-38 16 -67.5 45.5t-40.5 61.5t-11 67q0 84 46 140.5t122 79t157 22.5q119 0 196 -38t103.5 -94.5t26.5 -109.5q0 -50 -20.5 -87t-48.5 -57t-50 -30q49 -19 84.5 -54.5t51.5 -79.5
t16 -83q0 -102 -54.5 -165.5t-138.5 -83.5t-166 -20zM403 143q69 0 104.5 26.5t35.5 88.5q0 56 -32.5 88.5t-107.5 32.5q-74 0 -106.5 -32.5t-32.5 -88.5q0 -62 35.5 -88.5t103.5 -26.5zM403 530q60 0 85.5 29.5t25.5 79.5q0 92 -111 92q-110 0 -110 -92q0 -50 25 -79.5
t85 -29.5z" />
    <glyph glyph-name="nineinferior" unicode="&#x2089;" 
d="M397 -17q-96 0 -156.5 19t-99.5 53q-14 12 -25.5 29t-21 35.5t-16 37.5t-10.5 35l213 35q8 -40 34 -63t80 -23t86 30t42.5 76t11.5 87q-28 -25 -70.5 -39.5t-110.5 -14.5q-143 0 -221 71.5t-78 217.5q0 163 88.5 239.5t255.5 76.5q106 0 175 -29t109.5 -84.5t56.5 -137.5
t16 -188q0 -142 -30.5 -240t-104.5 -157q-36 -29 -89 -47.5t-135 -18.5zM393 434q68 0 98.5 37.5t30.5 103.5q0 79 -29.5 115.5t-97.5 36.5q-116 0 -116 -148q0 -80 27.5 -112.5t86.5 -32.5z" />
    <glyph glyph-name="Euro" unicode="&#x20ac;" horiz-adv-x="1159" 
d="M670 -33q-99 0 -178 28t-138 87q-68 66 -108.5 168.5t-59.5 236.5h-149l76 170h59v62v47t2 49h-141l76 170h81q40 245 156 361q66 68 157 98.5t206 30.5q116 0 204 -32t136 -76t73 -77l-123 -207q-25 55 -66 97t-93 63t-107 21q-60 0 -106.5 -14t-83.5 -52
q-31 -32 -53.5 -84t-34.5 -129h528l-76 -170h-469q-2 -22 -2 -45v-49v-64h402l-76 -170h-313q12 -102 37.5 -164t60.5 -96q28 -26 61.5 -37.5t71.5 -11.5q86 0 134.5 47.5t80.5 151.5l231 -92q-24 -65 -59 -123t-88 -101.5t-128 -68.5t-181 -25z" />
    <glyph glyph-name="afii61289" unicode="&#x2113;" horiz-adv-x="942" 
d="M12 336q53 31 97.5 62.5t78.5 60.5v342q0 160 18 269t54 176t90 96.5t127 29.5q59 0 106 -13.5t80 -47t50.5 -92t17.5 -148.5q0 -192 -89 -353.5t-267 -309.5q0 -44 3.5 -92.5t16 -89.5t37.5 -68t68 -27q33 0 70.5 23.5t71 55t58 61.5t31.5 44l115 -112
q-31 -40 -68 -79.5t-81 -71t-94 -51t-107 -19.5q-78 0 -132 22.5t-88.5 61.5t-53 92t-25.5 114l-111 -71zM375 633q85 100 127.5 207.5t42.5 226.5q0 82 -18 119t-52 37q-23 0 -41.5 -25t-31.5 -81.5t-20 -148t-7 -225.5v-110z" />
    <glyph glyph-name="trademark" unicode="&#x2122;" horiz-adv-x="1626" 
d="M244 623v694h-232v158h643v-158h-229v-694h-182zM758 623v852h188l191 -428l194 428h182v-852h-176v530l-131 -317h-143l-129 315v-528h-176z" />
    <glyph glyph-name="Omega" unicode="&#x2126;" horiz-adv-x="1380" 
d="M113 0v209h176q-62 87 -100.5 190t-52 207t-13.5 201q0 63 10 142t20.5 124t22.5 80q25 78 66.5 143.5t103.5 112t147 72.5t197 26q160 0 271.5 -55t165 -138t81.5 -161q28 -87 38.5 -180t10.5 -166q0 -144 -23.5 -259t-62.5 -198.5t-79 -140.5h176v-209h-488v186
q81 70 126 165t59 210t14 227q0 149 -21.5 251.5t-70.5 162.5q-35 41 -80 61.5t-115 20.5q-59 0 -105.5 -17t-78.5 -53q-57 -58 -82 -164t-25 -262q0 -172 25 -291t72.5 -192t101.5 -119v-186h-487z" />
    <glyph glyph-name="estimated" unicode="&#x212e;" horiz-adv-x="1229" 
d="M340 160q121 -121 297 -121q254 0 395 246l72 -43q-51 -75 -102.5 -128t-108 -86t-119.5 -48t-137 -15q-119 0 -216.5 42.5t-166.5 117.5t-107 178.5t-38 226.5q0 124 39 228t108.5 179t166.5 117t214 42q119 0 214.5 -40t163.5 -114t107 -178.5t45 -233.5h-827v-370z
M340 604h596v297q-129 123 -301 123t-295 -123v-297z" />
    <glyph glyph-name="onethird" unicode="&#x2153;" horiz-adv-x="1841" 
d="M106 592v164h162v489l-164 -71l-78 153l297 148h154v-719h151v-164h-522zM518 -33l508 1508h225l-507 -1508h-226zM1417 -29q-88 0 -151.5 18t-106 54t-67 90.5t-35.5 128.5l215 15q6 -48 23.5 -79t46 -43t61.5 -12q69 0 102 38.5t33 107.5q0 56 -31 91.5t-94 35.5
q-57 0 -127 -35l-69 111l280 204h-387v158h615v-162l-209 -151q123 -3 186 -72.5t63 -187.5q0 -77 -25.5 -135t-71 -97t-109.5 -58.5t-142 -19.5z" />
    <glyph glyph-name="twothirds" unicode="&#x2154;" horiz-adv-x="1841" 
d="M36 592v139l293 252q80 69 116.5 119t42 77t5.5 42q0 29 -12.5 48t-39 29.5t-58.5 10.5q-60 0 -93 -40.5t-43 -123.5l-211 12q3 51 20 107t57 103t108.5 77.5t175.5 30.5q129 0 204.5 -44t97 -103.5t21.5 -106.5q0 -101 -66 -187.5t-149 -149t-145 -110.5h360v-182h-684z
M551 -33l508 1508h225l-507 -1508h-226zM1435 -29q-88 0 -151.5 18t-106 54t-67 90.5t-35.5 128.5l215 15q6 -48 23.5 -79t46 -43t61.5 -12q69 0 102 38.5t33 107.5q0 56 -31 91.5t-94 35.5q-57 0 -127 -35l-69 111l280 204h-387v158h615v-162l-209 -151q123 -3 186 -72.5
t63 -187.5q0 -77 -25.5 -135t-71 -97t-109.5 -58.5t-142 -19.5z" />
    <glyph glyph-name="oneeighth" unicode="&#x215b;" horiz-adv-x="1841" 
d="M102 592v164h162v489l-164 -71l-78 153l297 148h154v-719h151v-164h-522zM512 -33l508 1508h225l-507 -1508h-226zM1407 -29q-83 0 -149 16t-112.5 49t-71.5 84t-25 120q0 58 23.5 104t60 73.5t68.5 39.5q-38 16 -67.5 45.5t-40.5 61.5t-11 67q0 84 46 140.5t122 79
t157 22.5q119 0 196 -38t103.5 -94.5t26.5 -109.5q0 -50 -20.5 -87t-48.5 -57t-50 -30q49 -19 84.5 -54.5t51.5 -79.5t16 -83q0 -102 -54.5 -165.5t-138.5 -83.5t-166 -20zM1407 131q69 0 104.5 26.5t35.5 88.5q0 56 -32.5 88.5t-107.5 32.5q-74 0 -106.5 -32.5t-32.5 -88.5
q0 -62 35.5 -88.5t103.5 -26.5zM1407 518q60 0 85.5 29.5t25.5 79.5q0 92 -111 92q-110 0 -110 -92q0 -50 25 -79.5t85 -29.5z" />
    <glyph glyph-name="threeeighths" unicode="&#x215c;" horiz-adv-x="1841" 
d="M381 573q-88 0 -151.5 18t-106 54t-67 90.5t-35.5 128.5l215 15q6 -48 23.5 -79t46 -43t61.5 -12q69 0 102 38.5t33 107.5q0 56 -31 91.5t-94 35.5q-57 0 -127 -35l-69 111l280 204h-387v158h615v-162l-209 -151q123 -3 186 -72.5t63 -187.5q0 -77 -25.5 -135t-71 -97
t-109.5 -58.5t-142 -19.5zM534 -33l508 1508h225l-507 -1508h-226zM1433 -29q-83 0 -149 16t-112.5 49t-71.5 84t-25 120q0 58 23.5 104t60 73.5t68.5 39.5q-38 16 -67.5 45.5t-40.5 61.5t-11 67q0 84 46 140.5t122 79t157 22.5q119 0 196 -38t103.5 -94.5t26.5 -109.5
q0 -50 -20.5 -87t-48.5 -57t-50 -30q49 -19 84.5 -54.5t51.5 -79.5t16 -83q0 -102 -54.5 -165.5t-138.5 -83.5t-166 -20zM1433 131q69 0 104.5 26.5t35.5 88.5q0 56 -32.5 88.5t-107.5 32.5q-74 0 -106.5 -32.5t-32.5 -88.5q0 -62 35.5 -88.5t103.5 -26.5zM1433 518
q60 0 85.5 29.5t25.5 79.5q0 92 -111 92q-110 0 -110 -92q0 -50 25 -79.5t85 -29.5z" />
    <glyph glyph-name="fiveeighths" unicode="&#x215d;" horiz-adv-x="1841" 
d="M408 573q-88 0 -150 16.5t-102.5 50t-62 83.5t-27.5 117l213 16q5 -60 34 -90.5t91 -30.5q68 0 97.5 37.5t29.5 110.5q0 71 -30 106t-99 35q-53 0 -84 -20t-50 -46l-170 17l35 481h563v-166h-381l-10 -143q66 37 154 37q150 0 224.5 -74.5t74.5 -210.5q0 -87 -29 -152.5
t-94 -111.5q-38 -29 -96.5 -45.5t-130.5 -16.5zM561 -33l508 1508h225l-507 -1508h-226zM1454 -29q-83 0 -149 16t-112.5 49t-71.5 84t-25 120q0 58 23.5 104t60 73.5t68.5 39.5q-38 16 -67.5 45.5t-40.5 61.5t-11 67q0 84 46 140.5t122 79t157 22.5q119 0 196 -38
t103.5 -94.5t26.5 -109.5q0 -50 -20.5 -87t-48.5 -57t-50 -30q49 -19 84.5 -54.5t51.5 -79.5t16 -83q0 -102 -54.5 -165.5t-138.5 -83.5t-166 -20zM1454 131q69 0 104.5 26.5t35.5 88.5q0 56 -32.5 88.5t-107.5 32.5q-74 0 -106.5 -32.5t-32.5 -88.5q0 -62 35.5 -88.5
t103.5 -26.5zM1454 518q60 0 85.5 29.5t25.5 79.5q0 92 -111 92q-110 0 -110 -92q0 -50 25 -79.5t85 -29.5z" />
    <glyph glyph-name="seveneighths" unicode="&#x215e;" horiz-adv-x="1841" 
d="M162 592l319 692h-276v-90h-191v262h703v-143l-338 -721h-217zM442 -33l508 1508h225l-507 -1508h-226zM1398 -29q-83 0 -149 16t-112.5 49t-71.5 84t-25 120q0 58 23.5 104t60 73.5t68.5 39.5q-38 16 -67.5 45.5t-40.5 61.5t-11 67q0 84 46 140.5t122 79t157 22.5
q119 0 196 -38t103.5 -94.5t26.5 -109.5q0 -50 -20.5 -87t-48.5 -57t-50 -30q49 -19 84.5 -54.5t51.5 -79.5t16 -83q0 -102 -54.5 -165.5t-138.5 -83.5t-166 -20zM1398 131q69 0 104.5 26.5t35.5 88.5q0 56 -32.5 88.5t-107.5 32.5q-74 0 -106.5 -32.5t-32.5 -88.5
q0 -62 35.5 -88.5t103.5 -26.5zM1398 518q60 0 85.5 29.5t25.5 79.5q0 92 -111 92q-110 0 -110 -92q0 -50 25 -79.5t85 -29.5z" />
    <glyph glyph-name="partialdiff" unicode="&#x2202;" horiz-adv-x="1096" 
d="M547 -33q-88 0 -155.5 19t-118 53t-85 82t-55.5 106q-23 66 -33 135t-10 132t7 133.5t30 136.5q34 95 92 153t127 76.5t129 18.5q52 0 93.5 -8.5t78 -29.5t62.5 -46q-13 101 -48 181.5t-80.5 115.5t-91.5 35q-64 0 -95 -17.5t-72 -58.5l-162 139q46 56 94 89t109.5 48
t125.5 15q136 0 234 -67.5t154 -170.5t86 -234.5t36.5 -229t6.5 -169.5q0 -120 -13 -214.5t-37 -162.5q-21 -58 -55 -106t-83.5 -82t-116.5 -53t-154 -19zM545 186h12q65 0 107.5 35t58.5 108.5t16 164.5q0 108 -28 190q-23 66 -64 91.5t-100 25.5h-2q-59 0 -101 -25
t-65 -90q-29 -81 -29 -185v-16q0 -37 7.5 -89.5t21.5 -92.5q23 -65 64.5 -91t101.5 -26z" />
    <glyph glyph-name="Delta" unicode="&#x2206;" horiz-adv-x="1214" 
d="M10 0l447 1475h262l485 -1475h-1194zM338 242h510l-262 866z" />
    <glyph glyph-name="product" unicode="&#x220f;" horiz-adv-x="1341" 
d="M162 0v1475h1018v-1475h-262v1231h-494v-1231h-262z" />
    <glyph glyph-name="summation" unicode="&#x2211;" horiz-adv-x="997" 
d="M23 0v225l460 541l-436 485v224h887v-242h-518l403 -451l-459 -540h598v-242h-935z" />
    <glyph glyph-name="minus" unicode="&#x2212;" horiz-adv-x="1159" 
d="M131 639v201h897v-201h-897z" />
    <glyph glyph-name="uni2215" unicode="&#x2215;" horiz-adv-x="242" 
d="M-246 -33l508 1508h225l-507 -1508h-226z" />
    <glyph glyph-name="uni2219" unicode="&#x2219;" horiz-adv-x="502" 
d="M113 582v276h276v-276h-276z" />
    <glyph glyph-name="radical" unicode="&#x221a;" horiz-adv-x="1403" 
d="M655 0l-276 788l-180 -94l-86 158l395 211l246 -703l522 1444h215l-651 -1804h-185z" />
    <glyph glyph-name="infinity" unicode="&#x221e;" horiz-adv-x="1159" 
d="M340 424q-68 0 -117.5 27t-81.5 71t-47.5 100t-15.5 113q0 105 43 180.5t103.5 103.5t115.5 28q58 0 102 -18.5t77.5 -54t58.5 -77.5q34 61 74 94t83.5 43t85.5 10q80 0 143.5 -47t90 -118.5t26.5 -143.5q0 -51 -14.5 -105.5t-45.5 -100.5t-80.5 -75.5t-119.5 -29.5
q-34 0 -65 7.5t-61 24.5t-58.5 46t-56.5 73q-28 -45 -57.5 -74t-60 -46.5t-61.5 -24t-61 -6.5zM346 578q39 0 69.5 30.5t46 67t25.5 59.5q-32 68 -56 102t-45.5 45t-39.5 11q-39 0 -64.5 -27.5t-35.5 -63.5t-10 -67q0 -81 32 -119t78 -38zM815 578q37 0 62.5 27t35 65.5
t9.5 66.5q0 58 -19 94t-45.5 50t-46.5 14q-42 0 -73 -37t-68 -125q31 -74 67 -114.5t78 -40.5z" />
    <glyph glyph-name="integral" unicode="&#x222b;" horiz-adv-x="1034" 
d="M201 -395q-64 0 -103 7.5t-88 22.5l31 211q32 -14 61 -19t64 -5q50 0 77.5 23.5t41.5 71.5t22 106l146 1062q12 91 38 164t71.5 124t113.5 78.5t164 27.5q57 0 99.5 -9.5t84.5 -27.5l-29 -211q-42 18 -74 24.5t-57 6.5q-29 0 -55 -10t-47.5 -35t-38 -68t-25.5 -109
l-143 -1065q-11 -77 -34.5 -144.5t-65 -117.5t-104 -79t-150.5 -29z" />
    <glyph glyph-name="approxequal" unicode="&#x2248;" horiz-adv-x="1159" 
d="M145 375v213q54 39 90.5 58t74.5 26.5t79 7.5q51 0 102.5 -14.5t101 -31.5t94.5 -31.5t83 -14.5q50 0 88 12.5t76 42.5t80 72v-232q-66 -46 -123.5 -63t-120.5 -17q-80 0 -244 60q-90 33 -155 33q-48 0 -95.5 -23t-80 -51.5t-50.5 -46.5zM145 770v213q54 39 90.5 58
t74.5 26.5t79 7.5q51 0 102.5 -14.5t101 -31.5t94.5 -31.5t83 -14.5q49 0 87.5 12.5t76.5 42.5t80 72v-231q-49 -34 -94.5 -52.5t-82.5 -23t-67 -4.5q-82 0 -244 59q-90 33 -155 33q-48 0 -95.5 -23t-80 -51.5t-50.5 -46.5z" />
    <glyph glyph-name="notequal" unicode="&#x2260;" horiz-adv-x="1159" 
d="M422 219l-156 80l72 141h-207v201h307l97 195h-404v200h504l110 221l156 -79l-70 -142h197v-200h-297l-98 -195h395v-201h-496z" />
    <glyph glyph-name="lessequal" unicode="&#x2264;" horiz-adv-x="1159" 
d="M186 0v205h772v-205h-772zM891 305l-705 371v184l705 369l82 -187l-551 -274l551 -274z" />
    <glyph glyph-name="greaterequal" unicode="&#x2265;" horiz-adv-x="1159" 
d="M201 0v205h772v-205h-772zM268 305l-82 189l551 274l-551 274l82 187l705 -369v-184z" />
    <glyph glyph-name="lozenge" unicode="&#x25ca;" horiz-adv-x="1159" 
d="M578 -33l-437 764l437 742l440 -742zM578 352l215 379l-215 363l-211 -363z" />
    <glyph glyph-name="onefifth" unicode="&#xf500;" horiz-adv-x="1841" 
d="M106 592v164h162v489l-164 -71l-78 153l297 148h154v-719h151v-164h-522zM512 -33l508 1508h225l-507 -1508h-226zM1418 -29q-88 0 -150 16.5t-102.5 50t-62 83.5t-27.5 117l213 16q5 -60 34 -90.5t91 -30.5q68 0 97.5 37.5t29.5 110.5q0 71 -30 106t-99 35
q-53 0 -84 -20t-50 -46l-170 17l35 481h563v-166h-381l-10 -143q66 37 154 37q150 0 224.5 -74.5t74.5 -210.5q0 -87 -29 -152.5t-94 -111.5q-38 -29 -96.5 -45.5t-130.5 -16.5z" />
    <glyph glyph-name="twofifths" unicode="&#xf501;" horiz-adv-x="1841" 
d="M40 592v139l293 252q80 69 116.5 119t42 77t5.5 42q0 29 -12.5 48t-39 29.5t-58.5 10.5q-60 0 -93 -40.5t-43 -123.5l-211 12q3 51 20 107t57 103t108.5 77.5t175.5 30.5q129 0 204.5 -44t97 -103.5t21.5 -106.5q0 -101 -66 -187.5t-149 -149t-145 -110.5h360v-182h-684z
M553 -33l508 1508h225l-507 -1508h-226zM1430 -29q-88 0 -150 16.5t-102.5 50t-62 83.5t-27.5 117l213 16q5 -60 34 -90.5t91 -30.5q68 0 97.5 37.5t29.5 110.5q0 71 -30 106t-99 35q-53 0 -84 -20t-50 -46l-170 17l35 481h563v-166h-381l-10 -143q66 37 154 37
q150 0 224.5 -74.5t74.5 -210.5q0 -87 -29 -152.5t-94 -111.5q-38 -29 -96.5 -45.5t-130.5 -16.5z" />
    <glyph glyph-name="threefifths" unicode="&#xf502;" horiz-adv-x="1841" 
d="M387 573q-88 0 -151.5 18t-106 54t-67 90.5t-35.5 128.5l215 15q6 -48 23.5 -79t46 -43t61.5 -12q69 0 102 38.5t33 107.5q0 56 -31 91.5t-94 35.5q-57 0 -127 -35l-69 111l280 204h-387v158h615v-162l-209 -151q123 -3 186 -72.5t63 -187.5q0 -77 -25.5 -135t-71 -97
t-109.5 -58.5t-142 -19.5zM553 -33l508 1508h225l-507 -1508h-226zM1444 -29q-88 0 -150 16.5t-102.5 50t-62 83.5t-27.5 117l213 16q5 -60 34 -90.5t91 -30.5q68 0 97.5 37.5t29.5 110.5q0 71 -30 106t-99 35q-53 0 -84 -20t-50 -46l-170 17l35 481h563v-166h-381l-10 -143
q66 37 154 37q150 0 224.5 -74.5t74.5 -210.5q0 -87 -29 -152.5t-94 -111.5q-38 -29 -96.5 -45.5t-130.5 -16.5z" />
    <glyph glyph-name="fourfifths" unicode="&#xf503;" horiz-adv-x="1841" 
d="M461 592v153h-424v146l422 584h207v-576h80v-154h-80v-153h-205zM250 899h219v318zM553 -33l508 1508h225l-507 -1508h-226zM1452 -29q-88 0 -150 16.5t-102.5 50t-62 83.5t-27.5 117l213 16q5 -60 34 -90.5t91 -30.5q68 0 97.5 37.5t29.5 110.5q0 71 -30 106t-99 35
q-53 0 -84 -20t-50 -46l-170 17l35 481h563v-166h-381l-10 -143q66 37 154 37q150 0 224.5 -74.5t74.5 -210.5q0 -87 -29 -152.5t-94 -111.5q-38 -29 -96.5 -45.5t-130.5 -16.5z" />
    <glyph glyph-name="onesixth" unicode="&#xf504;" horiz-adv-x="1841" 
d="M106 592v164h162v489l-164 -71l-78 153l297 148h154v-719h151v-164h-522zM506 -33l508 1508h225l-507 -1508h-226zM1424 -29q-104 0 -172.5 33t-109.5 91.5t-58 139t-17 175.5q0 99 17.5 179.5t50 134.5t68 82.5t70.5 42.5t74.5 19t80.5 5q92 0 146 -15.5t96 -50.5
q32 -28 52.5 -68.5t28.5 -78.5l-208 -35q-12 35 -26.5 54t-39 27.5t-51.5 8.5q-69 0 -102 -54t-35 -153q31 22 73.5 35.5t104.5 13.5q141 0 221 -70t80 -208q0 -78 -25.5 -139t-79.5 -103q-35 -29 -94 -47.5t-145 -18.5zM1428 129q59 0 86 32.5t27 104.5q0 59 -15 89.5
t-41.5 39.5t-54.5 9q-66 0 -98.5 -34t-32.5 -95q0 -72 30.5 -109t98.5 -37z" />
    <glyph glyph-name="fivesixths" unicode="&#xf505;" horiz-adv-x="1841" 
d="M410 573q-88 0 -150 16.5t-102.5 50t-62 83.5t-27.5 117l213 16q5 -60 34 -90.5t91 -30.5q68 0 97.5 37.5t29.5 110.5q0 71 -30 106t-99 35q-53 0 -84 -20t-50 -46l-170 17l35 481h563v-166h-381l-10 -143q66 37 154 37q150 0 224.5 -74.5t74.5 -210.5q0 -87 -29 -152.5
t-94 -111.5q-38 -29 -96.5 -45.5t-130.5 -16.5zM569 -33l508 1508h225l-507 -1508h-226zM1456 -29q-104 0 -172.5 33t-109.5 91.5t-58 139t-17 175.5q0 99 17.5 179.5t50 134.5t68 82.5t70.5 42.5t74.5 19t80.5 5q92 0 146 -15.5t96 -50.5q32 -28 52.5 -68.5t28.5 -78.5
l-208 -35q-12 35 -26.5 54t-39 27.5t-51.5 8.5q-69 0 -102 -54t-35 -153q31 22 73.5 35.5t104.5 13.5q141 0 221 -70t80 -208q0 -78 -25.5 -139t-79.5 -103q-35 -29 -94 -47.5t-145 -18.5zM1460 129q59 0 86 32.5t27 104.5q0 59 -15 89.5t-41.5 39.5t-54.5 9
q-66 0 -98.5 -34t-32.5 -95q0 -72 30.5 -109t98.5 -37z" />
    <glyph glyph-name="oneseventh" unicode="&#xf506;" horiz-adv-x="1841" 
d="M106 592v164h162v489l-164 -71l-78 153l297 148h154v-719h151v-164h-522zM491 -33l508 1508h225l-507 -1508h-226zM1229 -10l319 692h-276v-90h-191v262h703v-143l-338 -721h-217z" />
    <glyph glyph-name="twosevenths" unicode="&#xf507;" horiz-adv-x="1841" 
d="M36 592v139l293 252q80 69 116.5 119t42 77t5.5 42q0 29 -12.5 48t-39 29.5t-58.5 10.5q-60 0 -93 -40.5t-43 -123.5l-211 12q3 51 20 107t57 103t108.5 77.5t175.5 30.5q129 0 204.5 -44t97 -103.5t21.5 -106.5q0 -101 -66 -187.5t-149 -149t-145 -110.5h360v-182h-684z
M547 -33l508 1508h225l-507 -1508h-226zM1274 -10l319 692h-276v-90h-191v262h703v-143l-338 -721h-217z" />
    <glyph glyph-name="threesevenths" unicode="&#xf508;" horiz-adv-x="1841" 
d="M381 573q-88 0 -151.5 18t-106 54t-67 90.5t-35.5 128.5l215 15q6 -48 23.5 -79t46 -43t61.5 -12q69 0 102 38.5t33 107.5q0 56 -31 91.5t-94 35.5q-57 0 -127 -35l-69 111l280 204h-387v158h615v-162l-209 -151q123 -3 186 -72.5t63 -187.5q0 -77 -25.5 -135t-71 -97
t-109.5 -58.5t-142 -19.5zM512 -33l508 1508h225l-507 -1508h-226zM1253 -10l319 692h-276v-90h-191v262h703v-143l-338 -721h-217z" />
    <glyph glyph-name="foursevenths" unicode="&#xf509;" horiz-adv-x="1841" 
d="M461 592v153h-424v146l422 584h207v-576h80v-154h-80v-153h-205zM250 899h219v318zM542 -33l508 1508h225l-507 -1508h-226zM1268 -10l319 692h-276v-90h-191v262h703v-143l-338 -721h-217z" />
    <glyph glyph-name="fivesevenths" unicode="&#xf50a;" horiz-adv-x="1841" 
d="M408 573q-88 0 -150 16.5t-102.5 50t-62 83.5t-27.5 117l213 16q5 -60 34 -90.5t91 -30.5q68 0 97.5 37.5t29.5 110.5q0 71 -30 106t-99 35q-53 0 -84 -20t-50 -46l-170 17l35 481h563v-166h-381l-10 -143q66 37 154 37q150 0 224.5 -74.5t74.5 -210.5q0 -87 -29 -152.5
t-94 -111.5q-38 -29 -96.5 -45.5t-130.5 -16.5zM534 -33l508 1508h225l-507 -1508h-226zM1264 -10l319 692h-276v-90h-191v262h703v-143l-338 -721h-217z" />
    <glyph glyph-name="sixsevenths" unicode="&#xf50b;" horiz-adv-x="1841" 
d="M416 573q-104 0 -172.5 33t-109.5 91.5t-58 139t-17 175.5q0 99 17.5 179.5t50 134.5t68 82.5t70.5 42.5t74.5 19t80.5 5q92 0 146 -15.5t96 -50.5q32 -28 52.5 -68.5t28.5 -78.5l-208 -35q-12 35 -26.5 54t-39 27.5t-51.5 8.5q-69 0 -102 -54t-35 -153q31 22 73.5 35.5
t104.5 13.5q141 0 221 -70t80 -208q0 -78 -25.5 -139t-79.5 -103q-35 -29 -94 -47.5t-145 -18.5zM420 731q59 0 86 32.5t27 104.5q0 59 -15 89.5t-41.5 39.5t-54.5 9q-66 0 -98.5 -34t-32.5 -95q0 -72 30.5 -109t98.5 -37zM530 -33l508 1508h225l-507 -1508h-226zM1253 -10
l319 692h-276v-90h-191v262h703v-143l-338 -721h-217z" />
    <glyph glyph-name="oneninth" unicode="&#xf50c;" horiz-adv-x="1841" 
d="M106 592v164h162v489l-164 -71l-78 153l297 148h154v-719h151v-164h-522zM502 -33l508 1508h225l-507 -1508h-226zM1411 -29q-96 0 -156.5 19t-99.5 53q-14 12 -25.5 29t-21 35.5t-16 37.5t-10.5 35l213 35q8 -40 34 -63t80 -23t86 30t42.5 76t11.5 87
q-28 -25 -70.5 -39.5t-110.5 -14.5q-143 0 -221 71.5t-78 217.5q0 163 88.5 239.5t255.5 76.5q106 0 175 -29t109.5 -84.5t56.5 -137.5t16 -188q0 -142 -30.5 -240t-104.5 -157q-36 -29 -89 -47.5t-135 -18.5zM1407 422q68 0 98.5 37.5t30.5 103.5q0 79 -29.5 115.5
t-97.5 36.5q-116 0 -116 -148q0 -80 27.5 -112.5t86.5 -32.5z" />
    <glyph glyph-name="twoninths" unicode="&#xf50d;" horiz-adv-x="1841" 
d="M38 592v139l293 252q80 69 116.5 119t42 77t5.5 42q0 29 -12.5 48t-39 29.5t-58.5 10.5q-60 0 -93 -40.5t-43 -123.5l-211 12q3 51 20 107t57 103t108.5 77.5t175.5 30.5q129 0 204.5 -44t97 -103.5t21.5 -106.5q0 -101 -66 -187.5t-149 -149t-145 -110.5h360v-182h-684z
M553 -33l508 1508h225l-507 -1508h-226zM1437 -29q-96 0 -156.5 19t-99.5 53q-14 12 -25.5 29t-21 35.5t-16 37.5t-10.5 35l213 35q8 -40 34 -63t80 -23t86 30t42.5 76t11.5 87q-28 -25 -70.5 -39.5t-110.5 -14.5q-143 0 -221 71.5t-78 217.5q0 163 88.5 239.5t255.5 76.5
q106 0 175 -29t109.5 -84.5t56.5 -137.5t16 -188q0 -142 -30.5 -240t-104.5 -157q-36 -29 -89 -47.5t-135 -18.5zM1433 422q68 0 98.5 37.5t30.5 103.5q0 79 -29.5 115.5t-97.5 36.5q-116 0 -116 -148q0 -80 27.5 -112.5t86.5 -32.5z" />
    <glyph glyph-name="fourninths" unicode="&#xf50e;" horiz-adv-x="1841" 
d="M461 592v153h-424v146l422 584h207v-576h80v-154h-80v-153h-205zM250 899h219v318zM553 -33l508 1508h225l-507 -1508h-226zM1433 -29q-96 0 -156.5 19t-99.5 53q-14 12 -25.5 29t-21 35.5t-16 37.5t-10.5 35l213 35q8 -40 34 -63t80 -23t86 30t42.5 76t11.5 87
q-28 -25 -70.5 -39.5t-110.5 -14.5q-143 0 -221 71.5t-78 217.5q0 163 88.5 239.5t255.5 76.5q106 0 175 -29t109.5 -84.5t56.5 -137.5t16 -188q0 -142 -30.5 -240t-104.5 -157q-36 -29 -89 -47.5t-135 -18.5zM1429 422q68 0 98.5 37.5t30.5 103.5q0 79 -29.5 115.5
t-97.5 36.5q-116 0 -116 -148q0 -80 27.5 -112.5t86.5 -32.5z" />
    <glyph glyph-name="fiveninths" unicode="&#xf50f;" horiz-adv-x="1841" 
d="M410 573q-88 0 -150 16.5t-102.5 50t-62 83.5t-27.5 117l213 16q5 -60 34 -90.5t91 -30.5q68 0 97.5 37.5t29.5 110.5q0 71 -30 106t-99 35q-53 0 -84 -20t-50 -46l-170 17l35 481h563v-166h-381l-10 -143q66 37 154 37q150 0 224.5 -74.5t74.5 -210.5q0 -87 -29 -152.5
t-94 -111.5q-38 -29 -96.5 -45.5t-130.5 -16.5zM559 -33l508 1508h225l-507 -1508h-226zM1446 -29q-96 0 -156.5 19t-99.5 53q-14 12 -25.5 29t-21 35.5t-16 37.5t-10.5 35l213 35q8 -40 34 -63t80 -23t86 30t42.5 76t11.5 87q-28 -25 -70.5 -39.5t-110.5 -14.5
q-143 0 -221 71.5t-78 217.5q0 163 88.5 239.5t255.5 76.5q106 0 175 -29t109.5 -84.5t56.5 -137.5t16 -188q0 -142 -30.5 -240t-104.5 -157q-36 -29 -89 -47.5t-135 -18.5zM1442 422q68 0 98.5 37.5t30.5 103.5q0 79 -29.5 115.5t-97.5 36.5q-116 0 -116 -148
q0 -80 27.5 -112.5t86.5 -32.5z" />
    <glyph glyph-name="sevenninths" unicode="&#xf510;" horiz-adv-x="1841" 
d="M168 592l319 692h-276v-90h-191v262h703v-143l-338 -721h-217zM444 -33l508 1508h225l-507 -1508h-226zM1401 -29q-96 0 -156.5 19t-99.5 53q-14 12 -25.5 29t-21 35.5t-16 37.5t-10.5 35l213 35q8 -40 34 -63t80 -23t86 30t42.5 76t11.5 87q-28 -25 -70.5 -39.5
t-110.5 -14.5q-143 0 -221 71.5t-78 217.5q0 163 88.5 239.5t255.5 76.5q106 0 175 -29t109.5 -84.5t56.5 -137.5t16 -188q0 -142 -30.5 -240t-104.5 -157q-36 -29 -89 -47.5t-135 -18.5zM1397 422q68 0 98.5 37.5t30.5 103.5q0 79 -29.5 115.5t-97.5 36.5q-116 0 -116 -148
q0 -80 27.5 -112.5t86.5 -32.5z" />
    <glyph glyph-name="eightninths" unicode="&#xf511;" horiz-adv-x="1841" 
d="M403 573q-83 0 -149 16t-112.5 49t-71.5 84t-25 120q0 58 23.5 104t60 73.5t68.5 39.5q-38 16 -67.5 45.5t-40.5 61.5t-11 67q0 84 46 140.5t122 79t157 22.5q119 0 196 -38t103.5 -94.5t26.5 -109.5q0 -50 -20.5 -87t-48.5 -57t-50 -30q49 -19 84.5 -54.5t51.5 -79.5
t16 -83q0 -102 -54.5 -165.5t-138.5 -83.5t-166 -20zM403 733q69 0 104.5 26.5t35.5 88.5q0 56 -32.5 88.5t-107.5 32.5q-74 0 -106.5 -32.5t-32.5 -88.5q0 -62 35.5 -88.5t103.5 -26.5zM403 1120q60 0 85.5 29.5t25.5 79.5q0 92 -111 92q-110 0 -110 -92q0 -50 25 -79.5
t85 -29.5zM559 -33l508 1508h225l-507 -1508h-226zM1441 -29q-96 0 -156.5 19t-99.5 53q-14 12 -25.5 29t-21 35.5t-16 37.5t-10.5 35l213 35q8 -40 34 -63t80 -23t86 30t42.5 76t11.5 87q-28 -25 -70.5 -39.5t-110.5 -14.5q-143 0 -221 71.5t-78 217.5q0 163 88.5 239.5
t255.5 76.5q106 0 175 -29t109.5 -84.5t56.5 -137.5t16 -188q0 -142 -30.5 -240t-104.5 -157q-36 -29 -89 -47.5t-135 -18.5zM1437 422q68 0 98.5 37.5t30.5 103.5q0 79 -29.5 115.5t-97.5 36.5q-116 0 -116 -148q0 -80 27.5 -112.5t86.5 -32.5z" />
    <glyph glyph-name="fb" unicode="&#xf600;" horiz-adv-x="1759" 
d="M150 0v862h-138v203h135v68q0 188 105 274q89 74 258 74q45 0 90.5 -3.5t73.5 -7.5v-180q-83 8 -125 8q-40 0 -67.5 -10.5t-41.5 -25.5q-20 -23 -27 -54t-7 -82v-61h235v-203h-235v-862h-256zM1296 -33q-54 0 -97.5 15t-78 37.5t-61 48t-45.5 47.5l-6 -115h-238v1475h258
v-506q32 42 76 72.5t95 43.5t99 13q118 0 194 -43.5t118 -128.5q37 -75 48 -172t11 -222q0 -109 -9.5 -191t-31.5 -142q-23 -68 -70.5 -123t-115 -82t-146.5 -27zM1221 188q74 0 117.5 43t56.5 121q3 20 7.5 72t4.5 108q0 57 -3 111t-11 86q-11 48 -35.5 81.5t-60 48.5
t-74.5 15q-61 0 -109.5 -30.5t-68 -80t-19.5 -104.5v-253q0 -75 31 -128t76 -71.5t88 -18.5z" />
    <glyph glyph-name="fj" unicode="&#xf601;" horiz-adv-x="1143" 
d="M150 0v862h-138v203h135v68q0 188 105 274q89 74 258 74q45 0 90.5 -3.5t73.5 -7.5v-180q-83 8 -125 8q-40 0 -67.5 -10.5t-41.5 -25.5q-20 -23 -27 -54t-7 -82v-61h235v-203h-235v-862h-256zM668 -393q-52 0 -106 4v213h26q86 0 122.5 21t43 60.5t6.5 84.5v1075h256
v-1098q0 -88 -16.5 -155t-65.5 -113q-46 -43 -112 -67.5t-154 -24.5zM760 1233v242h256v-242h-256z" />
    <glyph glyph-name="fk" unicode="&#xf602;" horiz-adv-x="1707" 
d="M150 0v862h-138v203h135v68q0 188 105 274q89 74 258 74q45 0 90.5 -3.5t73.5 -7.5v-180q-83 8 -125 8q-40 0 -67.5 -10.5t-41.5 -25.5q-20 -23 -27 -54t-7 -82v-61h235v-203h-235v-862h-256zM769 0v1475h256v-754l336 344h309l-334 -334l361 -731h-287l-258 547
l-127 -127v-420h-256z" />
    <glyph glyph-name="ft" unicode="&#xf603;" horiz-adv-x="1258" 
d="M1100 -16q-102 0 -169 26.5t-106.5 75.5t-55 119.5t-15.5 159.5v497h-348v-862h-256v862h-138v203h135v68q0 188 105 274q89 74 258 74q45 0 90.5 -3.5t73.5 -7.5v-180q-83 8 -125 8q-40 0 -67.5 -10.5t-41.5 -25.5q-20 -23 -27 -54t-7 -82v-61h346v258h258v-258h217
v-203h-217v-495q0 -90 31 -130t108 -40q44 0 88 4v-209q-11 -2 -27 -3t-34.5 -2.5t-38 -2t-37.5 -0.5z" />
    <glyph glyph-name="fh" unicode="&#xf604;" horiz-adv-x="1765" 
d="M150 0v862h-138v203h135v68q0 188 105 274q89 74 258 74q45 0 90.5 -3.5t73.5 -7.5v-180q-83 8 -125 8q-40 0 -67.5 -10.5t-41.5 -25.5q-20 -23 -27 -54t-7 -82v-61h235v-203h-235v-862h-256zM768 0v1475h256v-523q36 45 80.5 79.5t102 50.5t118.5 16q92 0 166.5 -38
t111.5 -116t37 -178v-766h-256v721q0 65 -39.5 104t-113.5 39q-66 0 -116 -39.5t-70.5 -94t-20.5 -101.5v-629h-256z" />
    <glyph glyph-name="a.smcp" unicode="&#xf605;" horiz-adv-x="1059" 
d="M10 0l342 1159h320l377 -1159h-277l-61 221h-385l-58 -221h-258zM379 436h274l-141 527z" />
    <glyph glyph-name="b.smcp" unicode="&#xf606;" horiz-adv-x="1092" 
d="M135 0v1159h473q124 0 211 -43t122.5 -115t35.5 -149q0 -81 -32 -143.5t-101 -104.5q63 -30 101 -77t50.5 -99.5t12.5 -93.5q0 -69 -23.5 -130t-72 -106t-122 -71.5t-172.5 -26.5h-483zM385 207h176q100 0 141 33.5t41 105.5t-41 106.5t-141 34.5h-176v-280zM385 692h178
q75 0 115.5 36t40.5 95q0 63 -36 96t-120 33h-178v-260z" />
    <glyph glyph-name="c.smcp" unicode="&#xf607;" horiz-adv-x="1022" 
d="M553 -29q-96 0 -167.5 25.5t-123 70t-85 104.5t-53 128t-27 140.5t-7.5 142.5q0 74 7 147.5t26.5 141t54 125.5t88.5 100.5t130 67t179 24.5q163 0 261 -75t147 -230l-242 -86q-19 74 -44 110t-61.5 49t-74.5 13q-84 0 -130 -55t-58.5 -146.5t-12.5 -185.5
q0 -102 13.5 -175t39 -119.5t62.5 -68.5t84 -22q59 0 91 20t54.5 64.5t38.5 101.5l246 -86q-20 -74 -53 -134t-85 -103t-125 -66t-173 -23z" />
    <glyph glyph-name="d.smcp" unicode="&#xf608;" horiz-adv-x="1112" 
d="M135 0v1159h326q79 0 141.5 -7t113.5 -22.5t93 -40.5t80 -61q74 -71 103.5 -177t29.5 -239q0 -117 -17 -213t-57.5 -169.5t-95.5 -118.5q-32 -26 -66.5 -47t-75 -35t-90 -21.5t-112.5 -7.5h-373zM391 227h84q59 0 101 10.5t79 41.5q34 29 56 77t30.5 114t8.5 142
q0 54 -4.5 95t-14 71.5t-24 53t-33.5 40.5q-34 31 -79 44.5t-120 13.5h-84v-703z" />
    <glyph glyph-name="e.smcp" unicode="&#xf609;" horiz-adv-x="940" 
d="M135 0v1159h719v-231h-463v-217h440v-232h-440v-248h475v-231h-731z" />
    <glyph glyph-name="f.smcp" unicode="&#xf60a;" horiz-adv-x="883" 
d="M135 0v1159h694v-231h-438v-226h414v-231h-414v-471h-256z" />
    <glyph glyph-name="g.smcp" unicode="&#xf60b;" horiz-adv-x="1102" 
d="M508 -29q-89 0 -154 25t-111.5 68.5t-76 102t-46.5 126.5t-23.5 142t-6.5 147q0 120 16.5 214.5t57.5 174t110.5 131t146.5 69t161 17.5q163 0 265 -72t152 -235l-251 -76q-6 34 -19 64t-33 52.5t-49 35t-67 12.5q-49 0 -78.5 -10t-57.5 -33q-43 -39 -63.5 -126
t-20.5 -220q0 -121 13.5 -196.5t40.5 -118t66.5 -57.5t90.5 -15q61 0 100.5 19.5t55.5 58.5t16 87v58h-184v209h436v-625h-204l-9 96q-16 -34 -57.5 -63.5t-100 -45.5t-116.5 -16z" />
    <glyph glyph-name="h.smcp" unicode="&#xf60c;" horiz-adv-x="1141" 
d="M135 0v1159h256v-416h359v416h256v-1159h-256v508h-359v-508h-256z" />
    <glyph glyph-name="i.smcp" unicode="&#xf60d;" horiz-adv-x="526" 
d="M135 0v1159h256v-1159h-256z" />
    <glyph glyph-name="j.smcp" unicode="&#xf60e;" horiz-adv-x="926" 
d="M408 -29q-69 0 -131.5 16.5t-113 51.5t-86.5 89.5t-52 131.5l233 80q11 -47 26 -77t33.5 -47t40.5 -23.5t48 -6.5q61 0 91.5 24t39 71.5t8.5 105.5v772h256v-725v-57q0 -27 -2 -53q-4 -65 -13 -110.5t-33.5 -87.5t-52.5 -67q-51 -46 -124.5 -67t-167.5 -21z" />
    <glyph glyph-name="k.smcp" unicode="&#xf60f;" horiz-adv-x="1081" 
d="M135 0v1159h256v-434l381 434h297l-377 -426l389 -733h-303l-268 537l-119 -134v-403h-256z" />
    <glyph glyph-name="l.smcp" unicode="&#xf610;" horiz-adv-x="864" 
d="M135 0v1159h256v-928h461v-231h-717z" />
    <glyph glyph-name="m.smcp" unicode="&#xf611;" horiz-adv-x="1358" 
d="M135 0v1159h273l274 -639l272 639h269v-1159h-246v786l-201 -497h-196l-199 497v-786h-246z" />
    <glyph glyph-name="n.smcp" unicode="&#xf612;" horiz-adv-x="1128" 
d="M135 0v1159h248l367 -749v749h243v-1159h-248l-366 764v-764h-244z" />
    <glyph glyph-name="o.smcp" unicode="&#xf613;" horiz-adv-x="1151" 
d="M575 -29q-147 0 -247 53t-153.5 149t-69 204t-15.5 205q0 144 27 255t89 195t158 120t211 36q147 0 241.5 -50t148.5 -133.5t75 -193t21 -229.5q0 -122 -21 -232.5t-75 -194.5t-148.5 -134t-241.5 -50zM575 190q67 0 111 29t70 92q19 46 27 109t8 162q0 94 -8 156.5
t-27 109.5q-26 63 -70 92t-111 29q-66 0 -110 -29t-70 -92q-19 -46 -27 -108t-8 -158q0 -99 7.5 -162t27.5 -109q26 -63 70 -92t110 -29z" />
    <glyph glyph-name="p.smcp" unicode="&#xf614;" horiz-adv-x="1008" 
d="M135 0v1159h414q149 0 241.5 -58t123 -142t30.5 -164q0 -86 -24.5 -157t-76.5 -123t-133 -80.5t-194 -28.5h-131v-406h-250zM389 612h125q77 0 119.5 44.5t42.5 127.5q0 69 -20.5 107t-61 49.5t-88.5 11.5h-117v-340z" />
    <glyph glyph-name="q.smcp" unicode="&#xf615;" horiz-adv-x="1151" 
d="M977 -86l-135 121q-50 -29 -116 -46.5t-151 -17.5q-147 0 -247 53t-153.5 149t-69 204t-15.5 205q0 144 27 255t89 195t158 120t211 36q147 0 241.5 -50t148.5 -133.5t75 -193t21 -229.5q0 -106 -13.5 -190.5t-37 -144t-52.5 -102.5l127 -114zM575 174q54 0 91 19
l-123 110l108 117l115 -103q15 47 21 109t6 156q0 96 -8 155t-27 109q-26 63 -71 93t-112 30q-66 0 -111 -30t-71 -93q-20 -50 -27.5 -109t-7.5 -155q0 -103 8 -171.5t27 -113.5q26 -63 71 -93t111 -30z" />
    <glyph glyph-name="r.smcp" unicode="&#xf616;" horiz-adv-x="1071" 
d="M135 0v1159h428q149 0 245 -56.5t127.5 -143t31.5 -171.5q0 -100 -39.5 -177.5t-114.5 -127.5l221 -483h-291l-174 416h-184v-416h-250zM385 623h147q85 0 125.5 40t40.5 125q0 69 -20 106t-66 47.5t-102 10.5h-125v-329z" />
    <glyph glyph-name="s.smcp" unicode="&#xf617;" horiz-adv-x="1034" 
d="M530 -29q-92 0 -165 20.5t-128.5 59.5t-94 95.5t-62.5 127.5l221 93q38 -96 93 -140.5t136 -44.5q61 0 101.5 11t59 39t18.5 65q0 41 -21 67t-75 52t-128 53q-71 25 -137 53.5t-117.5 70t-82.5 100.5t-31 145q0 63 19 124t67 115.5t134.5 82.5t197.5 28q86 0 153.5 -17.5
t119 -50.5t88.5 -81t62 -109l-213 -96q-26 59 -62 93.5t-77 44t-78 9.5q-54 0 -93.5 -15.5t-54.5 -46t-15 -65.5q0 -33 19 -57.5t52 -44t76.5 -36t91.5 -34.5q89 -31 139 -51.5t107 -65t85 -109.5t28 -139q0 -61 -22.5 -123t-73.5 -111.5t-133.5 -80.5t-203.5 -31z" />
    <glyph glyph-name="t.smcp" unicode="&#xf618;" horiz-adv-x="915" 
d="M330 0v928h-312v231h879v-231h-311v-928h-256z" />
    <glyph glyph-name="u.smcp" unicode="&#xf619;" horiz-adv-x="1116" 
d="M557 -27q-98 0 -178 21.5t-136.5 69.5t-87 125t-30.5 188v782h256v-768q0 -54 10 -91t31 -60.5t54.5 -34t80.5 -10.5q72 0 112 24t53 71t13 101v768h256v-782q0 -111 -30.5 -188t-87.5 -125t-137 -69.5t-179 -21.5z" />
    <glyph glyph-name="v.smcp" unicode="&#xf61a;" horiz-adv-x="985" 
d="M358 0l-348 1159h273l211 -829l219 829h262l-350 -1159h-267z" />
    <glyph glyph-name="w.smcp" unicode="&#xf61b;" horiz-adv-x="1444" 
d="M297 0l-287 1159h277l147 -813l172 813h246l162 -813l155 813h265l-287 -1159h-268l-156 786l-158 -786h-268z" />
    <glyph glyph-name="x.smcp" unicode="&#xf61c;" horiz-adv-x="1024" 
d="M20 0l357 598l-322 561h277l188 -334l193 334h260l-324 -549l355 -610h-285l-211 381l-219 -381h-269z" />
    <glyph glyph-name="y.smcp" unicode="&#xf61d;" horiz-adv-x="1008" 
d="M367 0v469l-357 690h279l215 -444l225 444h268l-374 -690v-469h-256z" />
    <glyph glyph-name="z.smcp" unicode="&#xf61e;" horiz-adv-x="842" 
d="M20 0v199l469 729h-448v231h760v-196l-471 -732h491v-231h-801z" />
    <glyph glyph-name="ae.smcp" unicode="&#xf61f;" horiz-adv-x="1501" 
d="M0 0l530 1159h885v-231h-467v-217h445v-232h-445v-248h479v-231h-731v231h-336l-100 -231h-260zM451 436h245v563z" />
    <glyph glyph-name="eng.smcp" unicode="&#xf620;" horiz-adv-x="1128" 
d="M135 0v1159h248l367 -749v749h243v-1192q0 -88 -16.5 -155t-65.5 -113q-46 -43 -112 -67.5t-154 -24.5q-26 0 -52.5 1t-53.5 3v213h26q66 0 102 13t53 35.5t20.5 53t4.5 64.5v10l-366 764v-764h-244z" />
    <glyph glyph-name="oe.smcp" unicode="&#xf621;" horiz-adv-x="1573" 
d="M535 -16q-76 0 -150.5 21.5t-128.5 68.5q-51 43 -83.5 99.5t-51 121.5t-25 136.5t-6.5 146.5q0 114 17.5 212.5t53.5 167t85 115.5q113 107 295 107q55 0 107 -16t80.5 -35.5t39.5 -32.5v63h719v-231h-463v-217h440v-232h-440v-248h475v-231h-731v68q-20 -32 -87 -57.5
t-146 -26.5zM594 199q49 0 93 17t81 60v613q-20 28 -52 46t-64 25t-54 7q-54 0 -91 -15t-63 -41q-31 -30 -48 -71.5t-25 -86.5t-9.5 -89.5t-1.5 -81.5q0 -96 7.5 -156.5t31 -108t60.5 -75.5q31 -25 61 -34t74 -9z" />
    <glyph glyph-name="eth.smcp" unicode="&#xf622;" horiz-adv-x="1112" 
d="M135 0v524h-100v148h100v487h326q79 0 141.5 -7t113.5 -22.5t93 -40.5t80 -61q74 -71 103.5 -177t29.5 -239q0 -117 -17 -213t-57.5 -169.5t-95.5 -118.5q-32 -26 -66.5 -47t-75 -35t-90 -21.5t-112.5 -7.5h-373zM391 227h84q59 0 101 10.5t79 41.5q34 29 56 77t30.5 114
t8.5 142q0 54 -4.5 95t-14 71.5t-24 53t-33.5 40.5q-34 31 -79 44.5t-120 13.5h-84v-258h152v-148h-152v-297z" />
    <glyph glyph-name="hbar.smcp" unicode="&#xf623;" horiz-adv-x="1141" 
d="M135 0v837h-91v186h91v136h256v-136h359v136h256v-136h94v-186h-94v-837h-256v508h-359v-508h-256zM750 743v94h-359v-94h359z" />
    <glyph glyph-name="ij.smcp" unicode="&#xf624;" horiz-adv-x="1392" 
d="M135 0v1159h256v-1159h-256zM874 -29q-69 0 -131.5 16.5t-113 51.5t-86.5 89.5t-52 131.5l233 80q11 -47 26 -77t33.5 -47t40.5 -23.5t48 -6.5q61 0 91.5 24t39 71.5t8.5 105.5v772h256v-725v-57q0 -27 -2 -53q-4 -65 -13 -110.5t-33.5 -87.5t-52.5 -67
q-51 -46 -124.5 -67t-167.5 -21z" />
    <glyph glyph-name="idotaccent.smcp" unicode="&#xf625;" horiz-adv-x="436" 
d="M135 0v1159h256v-1159h-256zM143 1271v234h244v-234h-244z" />
    <glyph glyph-name="dotlessi.smcp" unicode="&#xf626;" horiz-adv-x="526" 
d="M135 0v1159h256v-1159h-256z" />
    <glyph glyph-name="oslash.smcp" unicode="&#xf627;" horiz-adv-x="1151" 
d="M209 -96l-121 84l107 155q-43 59 -68 142.5t-31 158.5t-6 138q0 144 27 255t89 195t158 120t211 36q93 0 164 -20.5t123 -57.5l80 117l121 -84l-96 -139q53 -85 73.5 -194t20.5 -228q0 -122 -21 -232.5t-75 -194.5t-148.5 -134t-241.5 -50q-85 0 -152 18t-120 50z
M575 190q67 0 111 29t70 92q19 46 27 109t8 162q0 82 -7 157l-344 -499q26 -25 59 -37.5t76 -12.5zM371 397l350 510q-26 32 -62 47t-84 15q-66 0 -110 -29t-70 -92q-19 -46 -27 -108t-8 -158q0 -130 11 -185z" />
    <glyph glyph-name="thorn.smcp" unicode="&#xf628;" horiz-adv-x="1008" 
d="M135 0v1159h250v-168h164q149 0 241.5 -58t123 -142t30.5 -164q0 -86 -24.5 -157t-76.5 -123t-133 -80.5t-194 -28.5h-131v-238h-250zM385 444h129q77 0 119.5 44.5t42.5 127.5q0 69 -20.5 107t-61 49.5t-88.5 11.5h-121v-340z" />
    <glyph glyph-name="tbar.smcp" unicode="&#xf629;" horiz-adv-x="915" 
d="M330 0v438h-197v186h197v304h-312v231h879v-231h-311v-304h216v-186h-216v-438h-256z" />
    <glyph glyph-name="kgreenlandic.smcp" unicode="&#xf62a;" horiz-adv-x="1081" 
d="M135 0v1159h256v-434l381 434h297l-377 -426l389 -733h-303l-268 537l-119 -134v-403h-256z" />
    <glyph glyph-name="lslash.smcp" unicode="&#xf62b;" horiz-adv-x="865" 
d="M0 611l136 50v498h256v-414l303 111v-190l-303 -111v-324h461v-231h-717v471l-136 -50v190z" />
    <glyph glyph-name="ampersand.smcp" unicode="&#xf62c;" horiz-adv-x="1190" 
d="M469 -29q-98 0 -173 28t-125 73.5t-75.5 103.5t-25.5 119q0 95 27.5 160.5t85 117t126.5 93.5q-46 58 -73 118.5t-27 133.5q0 60 23.5 109.5t66.5 85t103 55.5t133 20q108 0 183.5 -38t106.5 -96.5t31 -117.5q0 -51 -13.5 -94t-40.5 -80.5t-68 -72t-95 -68.5
q53 -66 164 -195q18 42 29 89.5t16 98.5l213 -51q-6 -62 -32.5 -148t-63.5 -155q27 -24 50 -37t46 -18t49 -5.5t61 -0.5v-199q-18 -2 -44 -2h-40q-40 0 -74.5 4t-66.5 13.5t-62 25.5t-61 41q-49 -42 -101.5 -65t-119 -34.5t-133.5 -11.5zM485 176q69 0 111 15t76 47
q-35 38 -69.5 78t-65 76t-55.5 65t-40 47q-56 -37 -85 -72t-35.5 -63.5t-6.5 -51.5q0 -39 25.5 -76t63.5 -51t81 -14zM500 768q62 40 93.5 73t37.5 56t6 37q0 34 -25.5 61t-79.5 27q-51 0 -79.5 -28t-28.5 -74q0 -41 20.5 -75t55.5 -77z" />
    <glyph glyph-name="fi.smcp" unicode="&#xf62d;" horiz-adv-x="1409" 
d="M135 0v1159h694v-231h-438v-226h414v-231h-414v-471h-256zM1017 0v1159h256v-1159h-256z" />
    <glyph glyph-name="fl.smcp" unicode="&#xf62e;" horiz-adv-x="1747" 
d="M135 0v1159h694v-231h-438v-226h414v-231h-414v-471h-256zM1019 0v1159h256v-928h461v-231h-717z" />
    <glyph glyph-name="ff.smcp" unicode="&#xf62f;" horiz-adv-x="1767" 
d="M135 0v1159h694v-231h-438v-226h414v-231h-414v-471h-256zM1019 0v1159h694v-231h-438v-226h414v-231h-414v-471h-256z" />
    <glyph glyph-name="ffi.smcp" unicode="&#xf630;" horiz-adv-x="2294" 
d="M1903 0v1159h256v-1159h-256zM135 0v1159h694v-231h-438v-226h414v-231h-414v-471h-256zM1019 0v1159h694v-231h-438v-226h414v-231h-414v-471h-256z" />
    <glyph glyph-name="ffl.smcp" unicode="&#xf631;" horiz-adv-x="2631" 
d="M135 0v1159h694v-231h-438v-226h414v-231h-414v-471h-256zM1019 0v1159h694v-231h-438v-226h414v-231h-414v-471h-256zM1903 0v1159h256v-928h461v-231h-717z" />
    <glyph glyph-name="fb.smcp" unicode="&#xf632;" horiz-adv-x="1976" 
d="M135 0v1159h694v-231h-438v-226h414v-231h-414v-471h-256zM1019 0v1159h473q124 0 211 -43t122.5 -115t35.5 -149q0 -81 -32 -143.5t-101 -104.5q63 -30 101 -77t50.5 -99.5t12.5 -93.5q0 -69 -23.5 -130t-72 -106t-122 -71.5t-172.5 -26.5h-483zM1269 207h176
q100 0 141 33.5t41 105.5t-41 106.5t-141 34.5h-176v-280zM1269 692h178q75 0 115.5 36t40.5 95q0 63 -36 96t-120 33h-178v-260z" />
    <glyph glyph-name="fj.smcp" unicode="&#xf633;" horiz-adv-x="1513" 
d="M135 0v1159h694v-231h-438v-226h414v-231h-414v-471h-256zM995 -29q-69 0 -131.5 16.5t-113 51.5t-86.5 89.5t-52 131.5l233 80q11 -47 26 -77t33.5 -47t40.5 -23.5t48 -6.5q61 0 91.5 24t39 71.5t8.5 105.5v772h256v-725v-57q0 -27 -2 -53q-4 -65 -13 -110.5
t-33.5 -87.5t-52.5 -67q-51 -46 -124.5 -67t-167.5 -21z" />
    <glyph glyph-name="fk.smcp" unicode="&#xf634;" horiz-adv-x="1965" 
d="M135 0v1159h694v-231h-438v-226h414v-231h-414v-471h-256zM1019 0v1159h256v-434l381 434h297l-377 -426l389 -733h-303l-268 537l-119 -134v-403h-256z" />
    <glyph glyph-name="ft.smcp" unicode="&#xf635;" horiz-adv-x="1799" 
d="M135 0v1159h694v-231h-438v-226h414v-231h-414v-471h-256zM1214 0v928h-312v231h879v-231h-311v-928h-256z" />
    <glyph glyph-name="fh.smcp" unicode="&#xf636;" horiz-adv-x="2025" 
d="M135 0v1159h694v-231h-438v-226h414v-231h-414v-471h-256zM1019 0v1159h256v-416h359v416h256v-1159h-256v508h-359v-508h-256z" />
    <glyph glyph-name="germandbls.smcp" unicode="&#xf637;" horiz-adv-x="2036" 
d="M1532 -29q-92 0 -165 20.5t-128.5 59.5t-94 95.5t-62.5 127.5l221 93q38 -96 93 -140.5t136 -44.5q61 0 101.5 11t59 39t18.5 65q0 41 -21 67t-75 52t-128 53q-71 25 -137 53.5t-117.5 70t-82.5 100.5t-31 145q0 63 19 124t67 115.5t134.5 82.5t197.5 28
q86 0 153.5 -17.5t119 -50.5t88.5 -81t62 -109l-213 -96q-26 59 -62 93.5t-77 44t-78 9.5q-54 0 -93.5 -15.5t-54.5 -46t-15 -65.5q0 -33 19 -57.5t52 -44t76.5 -36t91.5 -34.5q89 -31 139 -51.5t107 -65t85 -109.5t28 -139q0 -61 -22.5 -123t-73.5 -111.5t-133.5 -80.5
t-203.5 -31zM530 -29q-92 0 -165 20.5t-128.5 59.5t-94 95.5t-62.5 127.5l221 93q38 -96 93 -140.5t136 -44.5q61 0 101.5 11t59 39t18.5 65q0 41 -21 67t-75 52t-128 53q-71 25 -137 53.5t-117.5 70t-82.5 100.5t-31 145q0 63 19 124t67 115.5t134.5 82.5t197.5 28
q86 0 153.5 -17.5t119 -50.5t88.5 -81t62 -109l-213 -96q-26 59 -62 93.5t-77 44t-78 9.5q-54 0 -93.5 -15.5t-54.5 -46t-15 -65.5q0 -33 19 -57.5t52 -44t76.5 -36t91.5 -34.5q89 -31 139 -51.5t107 -65t85 -109.5t28 -139q0 -61 -22.5 -123t-73.5 -111.5t-133.5 -80.5
t-203.5 -31z" />
    <glyph glyph-name="euro.smcp" unicode="&#xf638;" horiz-adv-x="1083" 
d="M637 -27q-105 0 -183 25t-132 75t-85.5 125t-43.5 175h-146l66 133h71v127h-133l66 133h78q18 103 54.5 182t94.5 131.5t139 79.5t189 27q104 0 182.5 -24.5t124 -58.5t70.5 -59l-121 -186q-35 47 -72 76t-82.5 42t-89.5 13q-71 0 -121.5 -27t-75 -79.5t-32.5 -116.5h438
l-66 -133h-387v-127h324l-66 -133h-245q6 -100 54 -152.5t144 -52.5q57 0 96.5 21t60 54t30.5 64l217 -80q-38 -92 -94.5 -148.5t-141.5 -81t-182 -24.5z" />
    <glyph glyph-name="dollar.smcp" unicode="&#xf639;" horiz-adv-x="1083" 
d="M486 1006q-80 -10 -111.5 -47.5t-31.5 -92.5q0 -50 29 -79q30 -29 114 -60v279zM615 160q67 8 105.5 39t38.5 88q0 56 -28 87q-27 33 -116 68v-282zM486 -188v163q-109 8 -188.5 43.5t-130.5 81.5q-66 63 -100 154l221 84q38 -89 87.5 -128t110.5 -48v323
q-115 34 -197.5 75t-127.5 93q-29 34 -45.5 78.5t-16.5 104.5q0 36 6.5 72.5t19.5 69t32 60t43 45.5q35 30 73 50t75.5 32.5t72.5 18.5t65 7v93h129v-93q54 -3 110 -19t106.5 -46t93 -73.5t71.5 -100.5l-211 -92q-27 50 -49 76q-22 27 -54 44.5t-67 23.5v-320
q121 -42 198 -80t120.5 -81t59.5 -95.5t16 -122.5q0 -98 -58 -174q-57 -75 -149 -110q-93 -35 -187 -44v-165h-129z" />
    <glyph glyph-name="cent.smcp" unicode="&#xf63a;" horiz-adv-x="1083" 
d="M504 -27v156q-74 5 -135 28.5t-105 61.5q-47 43 -72.5 106t-31.5 129.5t-6 125.5q0 83 12 155t37.5 120.5t58.5 78.5q44 40 102 65.5t140 30.5v156h129v-156q58 -5 107.5 -23t88 -48t65 -71t38.5 -91l-193 -56q-12 47 -37.5 79.5t-68.5 41.5v-557q40 14 62.5 40.5
t37.5 74.5l197 -60q-31 -99 -108.5 -159.5t-188.5 -69.5v-158h-129zM504 299v559q-38 -8 -62 -33t-38 -65q-13 -35 -18 -80.5t-5 -99.5q0 -62 5 -106t16 -75q14 -45 39 -67t63 -33z" />
    <glyph glyph-name="sterling.smcp" unicode="&#xf63b;" horiz-adv-x="1083" 
d="M115 0v150q133 83 189 140.5t61.5 90t5.5 55.5q0 21 -6 37h-233v160h129q-41 49 -66 90t-37 82t-12 80q0 50 19.5 103t68 96.5t131 71.5t207.5 28q163 0 261.5 -46t137.5 -117.5t51 -141.5l-245 -43q-9 55 -36 90.5t-70 52t-93 16.5q-64 0 -101 -19.5t-49 -49t-12 -54.5
q0 -42 19.5 -74t64.5 -83l68 -82h323v-160h-256q2 -20 2 -41q-2 -59 -36.5 -115.5t-112.5 -107.5h524v-209h-897z" />
    <glyph glyph-name="yen.smcp" unicode="&#xf63c;" horiz-adv-x="1083" 
d="M402 0v188h-293v148h293v137h-293v148h222l-316 538h277l245 -467l256 467h275l-332 -538h236v-148h-310v-137h310v-148h-310v-188h-260z" />
    <glyph glyph-name="florin.smcp" unicode="&#xf63d;" horiz-adv-x="1083" 
d="M142 -309q-71 0 -123 14l37 174q9 -3 29.5 -6.5t46.5 -3.5q51 0 77 16.5t38.5 48t19.5 66.5l127 647h-129l35 162h127l20 104q18 96 72 160t134.5 88.5t170.5 24.5q44 0 66 -2t52.5 -5.5t43.5 -4.5l-35 -177q-69 9 -115 9q-37 0 -62.5 -6.5t-43.5 -18.5
q-26 -17 -39.5 -44.5t-20.5 -59.5l-12 -68h223l-34 -162h-222l-129 -678q-26 -139 -110.5 -208.5t-243.5 -69.5z" />
    <glyph glyph-name="exclam.smcp" unicode="&#xf63e;" horiz-adv-x="586" 
d="M167 0v241h252v-241h-252zM192 360l-23 799h247l-24 -799h-200z" />
    <glyph glyph-name="question.smcp" unicode="&#xf63f;" horiz-adv-x="884" 
d="M33 842q6 54 31.5 110.5t75.5 102t127.5 75t189.5 29.5q64 0 125.5 -14t109.5 -45.5t77.5 -82t29.5 -123.5q0 -62 -16.5 -108t-42 -82t-58 -65t-63.5 -56q-21 -18 -40 -37.5t-33 -41t-22 -47t-8 -56.5v-41h-240v60q0 53 14 94.5t36 75.5t50 61.5t56 52.5q24 22 47 42.5
t40.5 42.5t28 46t10.5 53q0 20 -5.5 39t-19 34t-37 24t-59.5 9q-45 0 -76 -15.5t-50.5 -40.5t-29.5 -56.5t-14 -63.5zM268 0v241h252v-241h-252z" />
    <glyph glyph-name="ordfeminine.smcp" unicode="&#xf640;" horiz-adv-x="733" 
d="M205 433h-195l248 707h199l266 -707h-202l-55 154h-211zM292 737h131l-65 216z" />
    <glyph glyph-name="ordmasculine.smcp" unicode="&#xf641;" horiz-adv-x="728" 
d="M364 415q-93 0 -154.5 32t-98 84.5t-51.5 119.5t-15 137q0 75 16 142.5t54 118t99.5 80t153.5 29.5q88 0 148.5 -28t97.5 -77.5t53 -117t16 -145.5q0 -74 -18 -142t-56 -119.5t-99 -82.5t-146 -31zM364 575q37 0 58.5 20t32.5 51t14.5 68.5t3.5 73.5q0 39 -3.5 77
t-14.5 68t-33 48.5t-58 18.5q-37 0 -58.5 -20t-33 -50.5t-15 -68t-3.5 -73.5q0 -38 3.5 -76t15.5 -68.5t33.5 -49.5t57.5 -19z" />
    <glyph glyph-name="questiondown.smcp" unicode="&#xf642;" horiz-adv-x="891" 
d="M846 317q-6 -54 -31.5 -110.5t-75.5 -102t-127.5 -75t-189.5 -29.5q-64 0 -125.5 14t-109.5 45.5t-77.5 82t-29.5 123.5q0 62 16.5 108t42 82t58 65t63.5 56q21 18 40 37.5t33 41t22 47t8 56.5v41h240v-60q0 -53 -14 -94.5t-36 -75.5t-50 -61.5t-56 -52.5
q-24 -22 -47 -42.5t-40.5 -42.5t-28 -46t-10.5 -53q0 -20 5.5 -39t19 -34t37 -24t59.5 -9q45 0 76 15.5t50.5 40.5t29.5 56.5t14 63.5zM611 1159v-241h-252v241h252z" />
    <glyph glyph-name="exclamdown.smcp" unicode="&#xf643;" horiz-adv-x="586" 
d="M419 1159v-241h-252v241h252zM394 799l23 -799h-247l24 799h200z" />
    <glyph glyph-name="abreve.smcp" unicode="&#xf644;" horiz-adv-x="1059" 
d="M10 0l342 1159h320l377 -1159h-277l-61 221h-385l-58 -221h-258zM379 436h274l-141 527zM518 1249q-70 0 -122 16t-89.5 46t-60.5 74.5t-35 101.5h193q6 -32 15.5 -52t23.5 -31.5t32.5 -16t42.5 -4.5q38 0 60 11t34.5 36t18.5 57h188q-7 -54 -20.5 -89t-34 -56.5
t-41.5 -36.5q-83 -56 -205 -56z" />
    <glyph glyph-name="amacron.smcp" unicode="&#xf645;" horiz-adv-x="1059" 
d="M10 0l342 1159h320l377 -1159h-277l-61 221h-385l-58 -221h-258zM379 436h274l-141 527zM203 1274v192h625v-192h-625z" />
    <glyph glyph-name="aogonek.smcp" unicode="&#xf646;" horiz-adv-x="1059" 
d="M10 0l342 1159h320l377 -1159h-277l-61 221h-385l-58 -221h-258zM379 436h274l-141 527zM965 -401q-78 0 -136 30.5t-81 77t-23 96.5q0 45 12.5 93t35.5 104h169q-45 -112 -45 -160q0 -39 16.5 -60t38.5 -27.5t42 -6.5q39 0 143 21v-144q-54 -14 -97.5 -19t-74.5 -5z" />
    <glyph glyph-name="agrave.smcp" unicode="&#xf647;" horiz-adv-x="1059" 
d="M10 0l342 1159h320l377 -1159h-277l-61 221h-385l-58 -221h-258zM379 436h274l-141 527zM459 1257l-227 260h268l111 -260h-152z" />
    <glyph glyph-name="aacute.smcp" unicode="&#xf648;" horiz-adv-x="1059" 
d="M10 0l342 1159h320l377 -1159h-277l-61 221h-385l-58 -221h-258zM379 436h274l-141 527zM431 1257l110 260h269l-228 -260h-151z" />
    <glyph glyph-name="acircumflex.smcp" unicode="&#xf649;" horiz-adv-x="1059" 
d="M10 0l342 1159h320l377 -1159h-277l-61 221h-385l-58 -221h-258zM379 436h274l-141 527zM201 1255l225 260h178l218 -260h-226l-82 100l-86 -100h-227z" />
    <glyph glyph-name="atilde.smcp" unicode="&#xf64a;" horiz-adv-x="1059" 
d="M10 0l342 1159h320l377 -1159h-277l-61 221h-385l-58 -221h-258zM379 436h274l-141 527zM227 1251v47q0 85 25 132.5t61.5 61t73.5 13.5q51 0 133 -31q72 -35 90 -35q23 0 35.5 14.5t20.5 59.5h141v-47q0 -59 -11.5 -98t-33.5 -64t-51 -35t-64 -10q-37 0 -68 9t-59 20
q-82 37 -96 37q-18 0 -29 -8t-16.5 -24.5t-9.5 -41.5h-142z" />
    <glyph glyph-name="adieresis.smcp" unicode="&#xf64b;" horiz-adv-x="1059" 
d="M10 0l342 1159h320l377 -1159h-277l-61 221h-385l-58 -221h-258zM379 436h274l-141 527zM244 1269v203h225v-203h-225zM573 1269v203h226v-203h-226z" />
    <glyph glyph-name="aring.smcp" unicode="&#xf64c;" horiz-adv-x="1059" 
d="M10 0l338 1145q-12 20 -19 43t-7 49q0 38 14 71t39 56q26 25 61.5 39t75.5 14q38 0 72 -13t59 -38q26 -25 41.5 -58t15.5 -71q0 -26 -5 -49t-19 -43l373 -1145h-277l-61 221h-385l-58 -221h-258zM379 436h274l-141 527zM512 1161q25 0 43.5 11t28.5 29.5t10 33.5
q0 35 -23 53q-29 25 -59 25q-34 0 -59 -23q-23 -26 -23 -55q0 -31 22.5 -52.5t59.5 -21.5z" />
    <glyph glyph-name="cacute.smcp" unicode="&#xf64d;" horiz-adv-x="1022" 
d="M553 -29q-96 0 -167.5 25.5t-123 70t-85 104.5t-53 128t-27 140.5t-7.5 142.5q0 74 7 147.5t26.5 141t54 125.5t88.5 100.5t130 67t179 24.5q163 0 261 -75t147 -230l-242 -86q-19 74 -44 110t-61.5 49t-74.5 13q-84 0 -130 -55t-58.5 -146.5t-12.5 -185.5
q0 -102 13.5 -175t39 -119.5t62.5 -68.5t84 -22q59 0 91 20t54.5 64.5t38.5 101.5l246 -86q-20 -74 -53 -134t-85 -103t-125 -66t-173 -23zM469 1257l110 260h269l-228 -260h-151z" />
    <glyph glyph-name="ccaron.smcp" unicode="&#xf64e;" horiz-adv-x="1022" 
d="M553 -29q-96 0 -167.5 25.5t-123 70t-85 104.5t-53 128t-27 140.5t-7.5 142.5q0 74 7 147.5t26.5 141t54 125.5t88.5 100.5t130 67t179 24.5q163 0 261 -75t147 -230l-242 -86q-19 74 -44 110t-61.5 49t-74.5 13q-84 0 -130 -55t-58.5 -146.5t-12.5 -185.5
q0 -102 13.5 -175t39 -119.5t62.5 -68.5t84 -22q59 0 91 20t54.5 64.5t38.5 101.5l246 -86q-20 -74 -53 -134t-85 -103t-125 -66t-173 -23zM489 1255l-217 260h225l82 -100l86 100h228l-226 -260h-178z" />
    <glyph glyph-name="cdotaccent.smcp" unicode="&#xf64f;" horiz-adv-x="985" 
d="M553 -29q-96 0 -167.5 25.5t-123 70t-85 104.5t-53 128t-27 140.5t-7.5 142.5q0 74 7 147.5t26.5 141t54 125.5t88.5 100.5t130 67t179 24.5q163 0 261 -75t147 -230l-242 -86q-19 74 -44 110t-61.5 49t-74.5 13q-84 0 -130 -55t-58.5 -146.5t-12.5 -185.5
q0 -102 13.5 -175t39 -119.5t62.5 -68.5t84 -22q59 0 91 20t54.5 64.5t38.5 101.5l246 -86q-20 -74 -53 -134t-85 -103t-125 -66t-173 -23zM439 1281v234h244v-234h-244z" />
    <glyph glyph-name="ccircumflex.smcp" unicode="&#xf650;" horiz-adv-x="1022" 
d="M553 -29q-96 0 -167.5 25.5t-123 70t-85 104.5t-53 128t-27 140.5t-7.5 142.5q0 74 7 147.5t26.5 141t54 125.5t88.5 100.5t130 67t179 24.5q163 0 261 -75t147 -230l-242 -86q-19 74 -44 110t-61.5 49t-74.5 13q-84 0 -130 -55t-58.5 -146.5t-12.5 -185.5
q0 -102 13.5 -175t39 -119.5t62.5 -68.5t84 -22q59 0 91 20t54.5 64.5t38.5 101.5l246 -86q-20 -74 -53 -134t-85 -103t-125 -66t-173 -23zM252 1255l225 260h178l218 -260h-226l-82 100l-86 -100h-227z" />
    <glyph glyph-name="ccedilla.smcp" unicode="&#xf651;" horiz-adv-x="1022" 
d="M553 -29q-96 0 -167.5 25.5t-123 70t-85 104.5t-53 128t-27 140.5t-7.5 142.5q0 74 7 147.5t26.5 141t54 125.5t88.5 100.5t130 67t179 24.5q163 0 261 -75t147 -230l-242 -86q-19 74 -44 110t-61.5 49t-74.5 13q-84 0 -130 -55t-58.5 -146.5t-12.5 -185.5
q0 -102 13.5 -175t39 -119.5t62.5 -68.5t84 -22q59 0 91 20t54.5 64.5t38.5 101.5l246 -86q-20 -74 -53 -134t-85 -103t-125 -66t-173 -23zM430 -403q-28 0 -74 6l9 127h21q30 0 69 3.5t61 8.5q23 6 38 16t15 27q0 11 -14.5 19.5t-54 13t-99.5 4.5l62 178h170l-33 -86
q54 -7 93.5 -27.5t57 -50.5t17.5 -65q0 -44 -24.5 -77t-69.5 -54q-89 -43 -244 -43z" />
    <glyph glyph-name="dcaron.smcp" unicode="&#xf652;" horiz-adv-x="1112" 
d="M135 0v1159h326q79 0 141.5 -7t113.5 -22.5t93 -40.5t80 -61q74 -71 103.5 -177t29.5 -239q0 -117 -17 -213t-57.5 -169.5t-95.5 -118.5q-32 -26 -66.5 -47t-75 -35t-90 -21.5t-112.5 -7.5h-373zM391 227h84q59 0 101 10.5t79 41.5q34 29 56 77t30.5 114t8.5 142
q0 54 -4.5 95t-14 71.5t-24 53t-33.5 40.5q-34 31 -79 44.5t-120 13.5h-84v-703zM442 1255l-217 260h225l82 -100l86 100h228l-226 -260h-178z" />
    <glyph glyph-name="dcroat.smcp" unicode="&#xf653;" horiz-adv-x="1112" 
d="M135 0v524h-100v148h100v487h326q79 0 141.5 -7t113.5 -22.5t93 -40.5t80 -61q74 -71 103.5 -177t29.5 -239q0 -117 -17 -213t-57.5 -169.5t-95.5 -118.5q-32 -26 -66.5 -47t-75 -35t-90 -21.5t-112.5 -7.5h-373zM391 227h84q59 0 101 10.5t79 41.5q34 29 56 77t30.5 114
t8.5 142q0 54 -4.5 95t-14 71.5t-24 53t-33.5 40.5q-34 31 -79 44.5t-120 13.5h-84v-258h152v-148h-152v-297z" />
    <glyph glyph-name="egrave.smcp" unicode="&#xf654;" horiz-adv-x="940" 
d="M135 0v1159h719v-231h-463v-217h440v-232h-440v-248h475v-231h-731zM491 1257l-227 260h268l111 -260h-152z" />
    <glyph glyph-name="eacute.smcp" unicode="&#xf655;" horiz-adv-x="940" 
d="M135 0v1159h719v-231h-463v-217h440v-232h-440v-248h475v-231h-731zM407 1257l110 260h269l-228 -260h-151z" />
    <glyph glyph-name="ecircumflex.smcp" unicode="&#xf656;" horiz-adv-x="940" 
d="M135 0v1159h719v-231h-463v-217h440v-232h-440v-248h475v-231h-731zM191 1255l225 260h178l218 -260h-226l-82 100l-86 -100h-227z" />
    <glyph glyph-name="edieresis.smcp" unicode="&#xf657;" horiz-adv-x="940" 
d="M135 0v1159h719v-231h-463v-217h440v-232h-440v-248h475v-231h-731zM226 1269v203h225v-203h-225zM555 1269v203h226v-203h-226z" />
    <glyph glyph-name="ecaron.smcp" unicode="&#xf658;" horiz-adv-x="940" 
d="M135 0v1159h719v-231h-463v-217h440v-232h-440v-248h475v-231h-731zM422 1255l-217 260h225l82 -100l86 100h228l-226 -260h-178z" />
    <glyph glyph-name="edotaccent.smcp" unicode="&#xf659;" horiz-adv-x="940" 
d="M135 0v1159h719v-231h-463v-217h440v-232h-440v-248h475v-231h-731zM385 1269v234h244v-234h-244z" />
    <glyph glyph-name="emacron.smcp" unicode="&#xf65a;" horiz-adv-x="940" 
d="M135 0v1159h719v-231h-463v-217h440v-232h-440v-248h475v-231h-731zM182 1274v192h625v-192h-625z" />
    <glyph glyph-name="eogonek.smcp" unicode="&#xf65b;" horiz-adv-x="940" 
d="M135 0v1159h719v-231h-463v-217h440v-232h-440v-248h475v-231h-731zM760 -401q-78 0 -136 30.5t-81 77t-23 96.5q0 45 12.5 93t35.5 104h169q-45 -112 -45 -160q0 -39 16.5 -60t38.5 -27.5t42 -6.5q39 0 143 21v-144q-54 -14 -97.5 -19t-74.5 -5z" />
    <glyph glyph-name="ebreve.smcp" unicode="&#xf65c;" horiz-adv-x="897" 
d="M135 0v1159h719v-231h-463v-217h440v-232h-440v-248h475v-231h-731zM493 1251q-70 0 -122 16t-89.5 46t-60.5 74.5t-35 101.5h193q6 -32 15.5 -52t23.5 -31.5t32.5 -16t42.5 -4.5q38 0 60 11t34.5 36t18.5 57h188q-7 -54 -20.5 -89t-34 -56.5t-41.5 -36.5
q-83 -56 -205 -56z" />
    <glyph glyph-name="gbreve.smcp" unicode="&#xf65d;" horiz-adv-x="1102" 
d="M508 -29q-89 0 -154 25t-111.5 68.5t-76 102t-46.5 126.5t-23.5 142t-6.5 147q0 120 16.5 214.5t57.5 174t110.5 131t146.5 69t161 17.5q163 0 265 -72t152 -235l-251 -76q-6 34 -19 64t-33 52.5t-49 35t-67 12.5q-49 0 -78.5 -10t-57.5 -33q-43 -39 -63.5 -126
t-20.5 -220q0 -121 13.5 -196.5t40.5 -118t66.5 -57.5t90.5 -15q61 0 100.5 19.5t55.5 58.5t16 87v58h-184v209h436v-625h-204l-9 96q-16 -34 -57.5 -63.5t-100 -45.5t-116.5 -16zM570 1251q-70 0 -122 16t-89.5 46t-60.5 74.5t-35 101.5h193q6 -32 15.5 -52t23.5 -31.5
t32.5 -16t42.5 -4.5q38 0 60 11t34.5 36t18.5 57h188q-7 -54 -20.5 -89t-34 -56.5t-41.5 -36.5q-83 -56 -205 -56z" />
    <glyph glyph-name="gcommaaccent.smcp" unicode="&#xf65e;" horiz-adv-x="1102" 
d="M508 -29q-89 0 -154 25t-111.5 68.5t-76 102t-46.5 126.5t-23.5 142t-6.5 147q0 120 16.5 214.5t57.5 174t110.5 131t146.5 69t161 17.5q163 0 265 -72t152 -235l-251 -76q-6 34 -19 64t-33 52.5t-49 35t-67 12.5q-49 0 -78.5 -10t-57.5 -33q-43 -39 -63.5 -126
t-20.5 -220q0 -121 13.5 -196.5t40.5 -118t66.5 -57.5t90.5 -15q61 0 100.5 19.5t55.5 58.5t16 87v58h-184v209h436v-625h-204l-9 96q-16 -34 -57.5 -63.5t-100 -45.5t-116.5 -16zM428 -423q-28 0 -74 6l7 123q5 0 21.5 -1t38.5 -1q55 0 91 10q23 6 38 16t15 27q0 10 -16 21
t-54 15.5t-98 4.5l45 129q59 0 118.5 -8t106.5 -28t73 -56.5t26 -83.5q0 -44 -24.5 -77t-69.5 -54q-89 -43 -244 -43z" />
    <glyph glyph-name="gdotaccent.smcp" unicode="&#xf65f;" horiz-adv-x="1102" 
d="M508 -29q-89 0 -154 25t-111.5 68.5t-76 102t-46.5 126.5t-23.5 142t-6.5 147q0 120 16.5 214.5t57.5 174t110.5 131t146.5 69t161 17.5q163 0 265 -72t152 -235l-251 -76q-6 34 -19 64t-33 52.5t-49 35t-67 12.5q-49 0 -78.5 -10t-57.5 -33q-43 -39 -63.5 -126
t-20.5 -220q0 -121 13.5 -196.5t40.5 -118t66.5 -57.5t90.5 -15q61 0 100.5 19.5t55.5 58.5t16 87v58h-184v209h436v-625h-204l-9 96q-16 -34 -57.5 -63.5t-100 -45.5t-116.5 -16zM452 1281v234h244v-234h-244z" />
    <glyph glyph-name="gcircumflex.smcp" unicode="&#xf660;" horiz-adv-x="1065" 
d="M508 -29q-89 0 -154 25t-111.5 68.5t-76 102t-46.5 126.5t-23.5 142t-6.5 147q0 120 16.5 214.5t57.5 174t110.5 131t146.5 69t161 17.5q163 0 265 -72t152 -235l-251 -76q-6 34 -19 64t-33 52.5t-49 35t-67 12.5q-49 0 -78.5 -10t-57.5 -33q-43 -39 -63.5 -126
t-20.5 -220q0 -121 13.5 -196.5t40.5 -118t66.5 -57.5t90.5 -15q61 0 100.5 19.5t55.5 58.5t16 87v58h-184v209h436v-625h-204l-9 96q-16 -34 -57.5 -63.5t-100 -45.5t-116.5 -16zM251 1257l225 260h178l218 -260h-226l-82 100l-86 -100h-227z" />
    <glyph glyph-name="hcircumflex.smcp" unicode="&#xf661;" horiz-adv-x="1087" 
d="M135 0v1159h256v-416h359v416h256v-1159h-256v508h-359v-508h-256zM265 1257l225 260h178l218 -260h-226l-82 100l-86 -100h-227z" />
    <glyph glyph-name="igrave.smcp" unicode="&#xf662;" horiz-adv-x="526" 
d="M135 0v1159h256v-1159h-256zM209 1257l-227 260h268l111 -260h-152z" />
    <glyph glyph-name="iacute.smcp" unicode="&#xf663;" horiz-adv-x="526" 
d="M135 0v1159h256v-1159h-256zM182 1257l110 260h269l-228 -260h-151z" />
    <glyph glyph-name="icircumflex.smcp" unicode="&#xf664;" horiz-adv-x="526" 
d="M135 0v1159h256v-1159h-256zM-36 1255l225 260h178l218 -260h-226l-82 100l-86 -100h-227z" />
    <glyph glyph-name="idieresis.smcp" unicode="&#xf665;" horiz-adv-x="526" 
d="M135 0v1159h256v-1159h-256zM-10 1269v203h225v-203h-225zM319 1269v203h226v-203h-226z" />
    <glyph glyph-name="imacron.smcp" unicode="&#xf666;" horiz-adv-x="526" 
d="M135 0v1159h256v-1159h-256zM-39 1274v192h625v-192h-625z" />
    <glyph glyph-name="iogonek.smcp" unicode="&#xf667;" horiz-adv-x="526" 
d="M135 0v1159h256v-1159h-256zM309 -401q-78 0 -136 30.5t-81 77t-23 96.5q0 45 12.5 93t35.5 104h169q-45 -112 -45 -160q0 -39 16.5 -60t38.5 -27.5t42 -6.5q39 0 143 21v-144q-54 -14 -97.5 -19t-74.5 -5z" />
    <glyph glyph-name="itilde.smcp" unicode="&#xf668;" horiz-adv-x="526" 
d="M135 0v1159h256v-1159h-256zM-31 1253v47q0 85 25 132.5t61.5 61t73.5 13.5q51 0 133 -31q72 -35 90 -35q23 0 35.5 14.5t20.5 59.5h141v-47q0 -59 -11.5 -98t-33.5 -64t-51 -35t-64 -10q-37 0 -68 9t-59 20q-82 37 -96 37q-18 0 -29 -8t-16.5 -24.5t-9.5 -41.5h-142z
" />
    <glyph glyph-name="ibreve.smcp" unicode="&#xf669;" horiz-adv-x="526" 
d="M135 0v1159h256v-1159h-256zM269 1251q-70 0 -122 16t-89.5 46t-60.5 74.5t-35 101.5h193q6 -32 15.5 -52t23.5 -31.5t32.5 -16t42.5 -4.5q38 0 60 11t34.5 36t18.5 57h188q-7 -54 -20.5 -89t-34 -56.5t-41.5 -36.5q-83 -56 -205 -56z" />
    <glyph glyph-name="jcircumflex.smcp" unicode="&#xf66a;" horiz-adv-x="852" 
d="M408 -29q-69 0 -131.5 16.5t-113 51.5t-86.5 89.5t-52 131.5l233 80q11 -47 26 -77t33.5 -47t40.5 -23.5t48 -6.5q61 0 91.5 24t39 71.5t8.5 105.5v772h256v-725v-57q0 -27 -2 -53q-4 -65 -13 -110.5t-33.5 -87.5t-52.5 -67q-51 -46 -124.5 -67t-167.5 -21zM360 1257
l225 260h178l218 -260h-226l-82 100l-86 -100h-227z" />
    <glyph glyph-name="kcommaaccent.smcp" unicode="&#xf66b;" horiz-adv-x="1081" 
d="M135 0v1159h256v-434l381 434h297l-377 -426l389 -733h-303l-268 537l-119 -134v-403h-256zM448 -423q-28 0 -74 6l7 123q5 0 21.5 -1t38.5 -1q55 0 91 10q23 6 38 16t15 27q0 10 -16 21t-54 15.5t-98 4.5l45 129q59 0 118.5 -8t106.5 -28t73 -56.5t26 -83.5
q0 -44 -24.5 -77t-69.5 -54q-89 -43 -244 -43z" />
    <glyph glyph-name="lacute.smcp" unicode="&#xf66c;" horiz-adv-x="864" 
d="M135 0v1159h256v-928h461v-231h-717zM182 1257l110 260h269l-228 -260h-151z" />
    <glyph glyph-name="lcaron.smcp" unicode="&#xf66d;" horiz-adv-x="864" 
d="M135 0v1159h256v-928h461v-231h-717zM548 768v393h232l-53 -393h-179z" />
    <glyph glyph-name="lcommaaccent.smcp" unicode="&#xf66e;" horiz-adv-x="864" 
d="M135 0v1159h256v-928h461v-231h-717zM350 -423q-28 0 -74 6l7 123q5 0 21.5 -1t38.5 -1q55 0 91 10q23 6 38 16t15 27q0 10 -16 21t-54 15.5t-98 4.5l45 129q59 0 118.5 -8t106.5 -28t73 -56.5t26 -83.5q0 -44 -24.5 -77t-69.5 -54q-89 -43 -244 -43z" />
    <glyph glyph-name="ldot.smcp" unicode="&#xf66f;" horiz-adv-x="864" 
d="M135 0v1159h256v-928h461v-231h-717zM555 501v276h276v-276h-276z" />
    <glyph glyph-name="nacute.smcp" unicode="&#xf670;" horiz-adv-x="1128" 
d="M135 0v1159h248l367 -749v749h243v-1159h-248l-366 764v-764h-244zM486 1257l110 260h269l-228 -260h-151z" />
    <glyph glyph-name="napostrophe.smcp" unicode="&#xf671;" horiz-adv-x="1254" 
d="M312 0v1159h248l367 -749v749h243v-1159h-248l-366 764v-764h-244zM2 952v127q35 5 56 15q27 13 39.5 35.5t12.5 65.5v20h-92v260h245v-252q0 -89 -25 -143.5t-71 -83.5q-32 -20 -73.5 -30t-91.5 -14z" />
    <glyph glyph-name="ntilde.smcp" unicode="&#xf672;" horiz-adv-x="1128" 
d="M135 0v1159h248l367 -749v749h243v-1159h-248l-366 764v-764h-244zM287 1251v47q0 85 25 132.5t61.5 61t73.5 13.5q51 0 133 -31q72 -35 90 -35q23 0 35.5 14.5t20.5 59.5h141v-47q0 -59 -11.5 -98t-33.5 -64t-51 -35t-64 -10q-37 0 -68 9t-59 20q-82 37 -96 37
q-18 0 -29 -8t-16.5 -24.5t-9.5 -41.5h-142z" />
    <glyph glyph-name="ncaron.smcp" unicode="&#xf673;" horiz-adv-x="1128" 
d="M135 0v1159h248l367 -749v749h243v-1159h-248l-366 764v-764h-244zM463 1255l-217 260h225l82 -100l86 100h228l-226 -260h-178z" />
    <glyph glyph-name="ncommaaccent.smcp" unicode="&#xf674;" horiz-adv-x="1128" 
d="M135 0v1159h248l367 -749v749h243v-1159h-248l-366 764v-764h-244zM444 -423q-28 0 -74 6l7 123q5 0 21.5 -1t38.5 -1q55 0 91 10q23 6 38 16t15 27q0 10 -16 21t-54 15.5t-98 4.5l45 129q59 0 118.5 -8t106.5 -28t73 -56.5t26 -83.5q0 -44 -24.5 -77t-69.5 -54
q-89 -43 -244 -43z" />
    <glyph glyph-name="ograve.smcp" unicode="&#xf675;" horiz-adv-x="1151" 
d="M575 -29q-147 0 -247 53t-153.5 149t-69 204t-15.5 205q0 144 27 255t89 195t158 120t211 36q147 0 241.5 -50t148.5 -133.5t75 -193t21 -229.5q0 -122 -21 -232.5t-75 -194.5t-148.5 -134t-241.5 -50zM575 190q67 0 111 29t70 92q19 46 27 109t8 162q0 94 -8 156.5
t-27 109.5q-26 63 -70 92t-111 29q-66 0 -110 -29t-70 -92q-19 -46 -27 -108t-8 -158q0 -99 7.5 -162t27.5 -109q26 -63 70 -92t110 -29zM526 1257l-227 260h268l111 -260h-152z" />
    <glyph glyph-name="oacute.smcp" unicode="&#xf676;" horiz-adv-x="1151" 
d="M575 -29q-147 0 -247 53t-153.5 149t-69 204t-15.5 205q0 144 27 255t89 195t158 120t211 36q147 0 241.5 -50t148.5 -133.5t75 -193t21 -229.5q0 -122 -21 -232.5t-75 -194.5t-148.5 -134t-241.5 -50zM575 190q67 0 111 29t70 92q19 46 27 109t8 162q0 94 -8 156.5
t-27 109.5q-26 63 -70 92t-111 29q-66 0 -110 -29t-70 -92q-19 -46 -27 -108t-8 -158q0 -99 7.5 -162t27.5 -109q26 -63 70 -92t110 -29zM470 1257l110 260h269l-228 -260h-151z" />
    <glyph glyph-name="ocircumflex.smcp" unicode="&#xf677;" horiz-adv-x="1151" 
d="M575 -29q-147 0 -247 53t-153.5 149t-69 204t-15.5 205q0 144 27 255t89 195t158 120t211 36q147 0 241.5 -50t148.5 -133.5t75 -193t21 -229.5q0 -122 -21 -232.5t-75 -194.5t-148.5 -134t-241.5 -50zM575 190q67 0 111 29t70 92q19 46 27 109t8 162q0 94 -8 156.5
t-27 109.5q-26 63 -70 92t-111 29q-66 0 -110 -29t-70 -92q-19 -46 -27 -108t-8 -158q0 -99 7.5 -162t27.5 -109q26 -63 70 -92t110 -29zM259 1255l225 260h178l218 -260h-226l-82 100l-86 -100h-227z" />
    <glyph glyph-name="otilde.smcp" unicode="&#xf678;" horiz-adv-x="1151" 
d="M575 -29q-147 0 -247 53t-153.5 149t-69 204t-15.5 205q0 144 27 255t89 195t158 120t211 36q147 0 241.5 -50t148.5 -133.5t75 -193t21 -229.5q0 -122 -21 -232.5t-75 -194.5t-148.5 -134t-241.5 -50zM575 190q67 0 111 29t70 92q19 46 27 109t8 162q0 94 -8 156.5
t-27 109.5q-26 63 -70 92t-111 29q-66 0 -110 -29t-70 -92q-19 -46 -27 -108t-8 -158q0 -99 7.5 -162t27.5 -109q26 -63 70 -92t110 -29zM281 1251v47q0 85 25 132.5t61.5 61t73.5 13.5q51 0 133 -31q72 -35 90 -35q23 0 35.5 14.5t20.5 59.5h141v-47q0 -59 -11.5 -98
t-33.5 -64t-51 -35t-64 -10q-37 0 -68 9t-59 20q-82 37 -96 37q-18 0 -29 -8t-16.5 -24.5t-9.5 -41.5h-142z" />
    <glyph glyph-name="odieresis.smcp" unicode="&#xf679;" horiz-adv-x="1151" 
d="M575 -29q-147 0 -247 53t-153.5 149t-69 204t-15.5 205q0 144 27 255t89 195t158 120t211 36q147 0 241.5 -50t148.5 -133.5t75 -193t21 -229.5q0 -122 -21 -232.5t-75 -194.5t-148.5 -134t-241.5 -50zM575 190q67 0 111 29t70 92q19 46 27 109t8 162q0 94 -8 156.5
t-27 109.5q-26 63 -70 92t-111 29q-66 0 -110 -29t-70 -92q-19 -46 -27 -108t-8 -158q0 -99 7.5 -162t27.5 -109q26 -63 70 -92t110 -29zM305 1269v203h225v-203h-225zM634 1269v203h226v-203h-226z" />
    </font>
</defs>
</svg>
